<ttFont>
        <CharString name=".notdef">
          -658 endchar
        </CharString>
        <CharString name=".null">
          -1313 endchar
        </CharString>
        <CharString name="A">
          651 84 vmoveto
          50 21 42 51 vhcurveto
          139 hlineto
          662 1495 rlineto
          47 20 39 45 64 hhcurveto
          67 31 -46 -50 20 hvcurveto
          601 -1491 rlineto
          178 hlineto
          51 20 -42 -50 -44 -26 -40 -47 hvcurveto
          -645 hlineto
          -47 -27 40 44 50 21 42 51 hvcurveto
          219 hlineto
          -148 391 rlineto
          -725 hlineto
          -157 -391 rlineto
          186 hlineto
          51 21 -42 -50 -44 -27 -40 -47 hvcurveto
          -543 hlineto
          -47 -27 40 44 hvcurveto
          652 637 rmoveto
          606 hlineto
          -293 778 rlineto
          endchar
        </CharString>
        <CharString name="AE">
          2251 -77 74 rmoveto
          47 32 55 48 vhcurveto
          137 hlineto
          975 1473 rlineto
          64 45 62 1 104 hhcurveto
          10 hlineto
          1032 hlineto
          116 67 -347 -91 -41 -22 -29 -44 -59 -42 28 48 -13 hvcurveto
          -68 256 rlineto
          -909 hlineto
          104 -571 rlineto
          320 hlineto
          18 186 rlineto
          39 5 23 29 40 hhcurveto
          48 29 -36 -44 9 hvcurveto
          26 -242 60 -250 rlineto
          -14 vlineto
          -44 -20 -22 -40 -44 -27 33 35 -17 vhcurveto
          -84 186 rlineto
          -319 hlineto
          118 -647 rlineto
          809 hlineto
          64 330 rlineto
          44 11 27 32 48 hhcurveto
          47 34 -31 -43 7 hvcurveto
          -20 vlineto
          -6 1 -6 3 -7 vhcurveto
          -391 vlineto
          -51 -4 -18 -27 -45 hhcurveto
          -1471 hlineto
          -45 -20 35 43 49 29 49 52 hvcurveto
          226 hlineto
          -64 391 rlineto
          -729 hlineto
          -244 -391 rlineto
          187 hlineto
          49 33 -34 -46 -55 -43 -41 -60 hvcurveto
          -540 hlineto
          -42 -22 34 40 hvcurveto
          776 647 rmoveto
          611 hlineto
          -125 778 rlineto
          endchar
        </CharString>
        <CharString name="Aacute">
          651 84 vmoveto
          50 21 42 51 vhcurveto
          139 hlineto
          662 1495 rlineto
          47 20 39 45 64 hhcurveto
          67 31 -46 -50 20 hvcurveto
          601 -1491 rlineto
          178 hlineto
          51 20 -42 -50 -44 -26 -40 -47 hvcurveto
          -645 hlineto
          -47 -27 40 44 50 21 42 51 hvcurveto
          219 hlineto
          -148 391 rlineto
          -725 hlineto
          -157 -391 rlineto
          186 hlineto
          51 21 -42 -50 -44 -27 -40 -47 hvcurveto
          -543 hlineto
          -47 -27 40 44 hvcurveto
          652 637 rmoveto
          606 hlineto
          -293 778 rlineto
          243 809 rmoveto
          42 42 -43 -41 -18 -8 -15 -18 -12 hvcurveto
          -158 -99 -177 -115 -163 -93 rrcurveto
          -4 -7 -7 -3 -5 hhcurveto
          -26 -23 27 25 14 6 9 11 7 hvcurveto
          150 100 164 129 136 117 rrcurveto
          10 11 14 5 16 hhcurveto
          endchar
        </CharString>
        <CharString name="Abreve">
          651 84 vmoveto
          50 21 42 51 vhcurveto
          139 hlineto
          662 1495 rlineto
          47 20 39 45 64 hhcurveto
          67 31 -46 -50 20 hvcurveto
          601 -1491 rlineto
          178 hlineto
          51 20 -42 -50 -44 -26 -40 -47 hvcurveto
          -645 hlineto
          -47 -27 40 44 50 21 42 51 hvcurveto
          219 hlineto
          -148 391 rlineto
          -725 hlineto
          -157 -391 rlineto
          186 hlineto
          51 21 -42 -50 -44 -27 -40 -47 hvcurveto
          -543 hlineto
          -47 -27 40 44 hvcurveto
          652 637 rmoveto
          606 hlineto
          -293 778 rlineto
          -177 709 rmoveto
          -120 46 81 -60 81 hhcurveto
          81 81 60 120 46 hvcurveto
          16 6 14 5 13 hhcurveto
          26 29 -25 -22 -211 -148 -106 -148 -148 -148 106 211 22 29 25 26 13 14 -5 -16 6 hvcurveto
          endchar
        </CharString>
        <CharString name="Acircumflex">
          651 84 vmoveto
          50 21 42 51 vhcurveto
          139 hlineto
          662 1495 rlineto
          47 20 39 45 64 hhcurveto
          67 31 -46 -50 20 hvcurveto
          601 -1491 rlineto
          178 hlineto
          51 20 -42 -50 -44 -26 -40 -47 hvcurveto
          -645 hlineto
          -47 -27 40 44 50 21 42 51 hvcurveto
          219 hlineto
          -148 391 rlineto
          -725 hlineto
          -157 -391 rlineto
          186 hlineto
          51 21 -42 -50 -44 -27 -40 -47 hvcurveto
          -543 hlineto
          -47 -27 40 44 hvcurveto
          652 637 rmoveto
          606 hlineto
          -293 778 rlineto
          31 865 rmoveto
          19 19 -6 -11 8 hvcurveto
          270 -414 rlineto
          7 -8 3 -9 -8 vvcurveto
          -24 -27 -19 -27 -12 -14 2 11 -8 vhcurveto
          -238 306 -238 -306 rlineto
          -11 -8 -14 -2 -12 hhcurveto
          -27 -27 19 24 8 3 9 7 8 hvcurveto
          270 414 rlineto
          11 8 19 6 19 hhcurveto
          endchar
        </CharString>
        <CharString name="Adieresis">
          651 84 vmoveto
          50 21 42 51 vhcurveto
          139 hlineto
          662 1495 rlineto
          47 20 39 45 64 hhcurveto
          67 31 -46 -50 20 hvcurveto
          601 -1491 rlineto
          178 hlineto
          51 20 -42 -50 -44 -26 -40 -47 hvcurveto
          -645 hlineto
          -47 -27 40 44 50 21 42 51 hvcurveto
          219 hlineto
          -148 391 rlineto
          -725 hlineto
          -157 -391 rlineto
          186 hlineto
          51 21 -42 -50 -44 -27 -40 -47 hvcurveto
          -543 hlineto
          -47 -27 40 44 hvcurveto
          652 637 rmoveto
          606 hlineto
          -293 778 rlineto
          -214 366 rmoveto
          -73 -61 60 73 73 61 60 73 73 60 -60 -73 -73 -60 -60 -73 hvcurveto
          491 hmoveto
          -73 -60 60 73 73 60 60 73 73 60 -60 -73 -73 -60 -60 -73 hvcurveto
          endchar
        </CharString>
        <CharString name="Agrave">
          651 84 vmoveto
          50 21 42 51 vhcurveto
          139 hlineto
          662 1495 rlineto
          47 20 39 45 64 hhcurveto
          67 31 -46 -50 20 hvcurveto
          601 -1491 rlineto
          178 hlineto
          51 20 -42 -50 -44 -26 -40 -47 hvcurveto
          -645 hlineto
          -47 -27 40 44 50 21 42 51 hvcurveto
          219 hlineto
          -148 391 rlineto
          -725 hlineto
          -157 -391 rlineto
          186 hlineto
          51 21 -42 -50 -44 -27 -40 -47 hvcurveto
          -543 hlineto
          -47 -27 40 44 hvcurveto
          652 637 rmoveto
          606 hlineto
          -293 778 rlineto
          327 418 rmoveto
          -25 -23 -27 -26 -7 -6 3 4 -5 vhcurveto
          -162 93 -179 116 -157 98 rrcurveto
          -18 12 -9 15 18 vvcurveto
          41 42 43 42 16 14 -5 -10 11 vhcurveto
          136 -117 165 -129 150 -100 rrcurveto
          11 -7 5 -9 -14 vvcurveto
          endchar
        </CharString>
        <CharString name="Amacron">
          651 84 vmoveto
          50 21 42 51 vhcurveto
          139 hlineto
          662 1495 rlineto
          47 20 39 45 64 hhcurveto
          67 31 -46 -50 20 hvcurveto
          601 -1491 rlineto
          178 hlineto
          51 20 -42 -50 -44 -26 -40 -47 hvcurveto
          -645 hlineto
          -47 -27 40 44 50 21 42 51 hvcurveto
          219 hlineto
          -148 391 rlineto
          -725 hlineto
          -157 -391 rlineto
          186 hlineto
          51 21 -42 -50 -44 -27 -40 -47 hvcurveto
          -543 hlineto
          -47 -27 40 44 hvcurveto
          652 637 rmoveto
          606 hlineto
          -293 778 rlineto
          300 366 rmoveto
          -530 hlineto
          -55 -27 40 39 39 26 38 50 hvcurveto
          538 hlineto
          48 24 -38 -39 -39 -25 -40 -49 hvcurveto
          endchar
        </CharString>
        <CharString name="Aogonek">
          651 84 vmoveto
          50 21 42 51 vhcurveto
          139 hlineto
          662 1495 rlineto
          47 20 39 45 64 hhcurveto
          67 31 -46 -50 20 hvcurveto
          601 -1491 rlineto
          178 hlineto
          51 20 -42 -50 -44 -26 -40 -47 hvcurveto
          -645 hlineto
          -47 -27 40 44 50 21 42 51 hvcurveto
          219 hlineto
          -148 391 rlineto
          -725 hlineto
          -157 -391 rlineto
          186 hlineto
          51 21 -42 -50 -44 -27 -40 -47 hvcurveto
          -543 hlineto
          -47 -27 40 44 hvcurveto
          652 637 rmoveto
          606 hlineto
          -293 778 rlineto
          557 -2027 rmoveto
          -92 -70 43 115 72 66 175 170 141 hvcurveto
          79 hlineto
          9 -120 -192 -95 hvcurveto
          -111 137 25 -60 vvcurveto
          -51 -85 -62 -94 vhcurveto
          endchar
        </CharString>
        <CharString name="Aring">
          651 84 vmoveto
          50 21 42 51 vhcurveto
          139 hlineto
          662 1495 rlineto
          47 20 39 45 64 hhcurveto
          67 31 -46 -50 20 hvcurveto
          601 -1491 rlineto
          178 hlineto
          51 20 -42 -50 -44 -26 -40 -47 hvcurveto
          -645 hlineto
          -47 -27 40 44 50 21 42 51 hvcurveto
          219 hlineto
          -148 391 rlineto
          -725 hlineto
          -157 -391 rlineto
          186 hlineto
          51 21 -42 -50 -44 -27 -40 -47 hvcurveto
          -543 hlineto
          -47 -27 40 44 hvcurveto
          652 637 rmoveto
          606 hlineto
          -293 778 rlineto
          24 714 rmoveto
          165 82 -124 -124 -124 -86 -126 -166 -166 -84 122 123 126 88 127 167 hvcurveto
          3 -403 rmoveto
          94 44 70 82 82 -47 72 -95 -96 -46 -72 -82 -81 54 -71 92 hvcurveto
          endchar
        </CharString>
        <CharString name="Atilde">
          651 84 vmoveto
          50 21 42 51 vhcurveto
          139 hlineto
          662 1495 rlineto
          47 20 39 45 64 hhcurveto
          67 31 -46 -50 20 hvcurveto
          601 -1491 rlineto
          178 hlineto
          51 20 -42 -50 -44 -26 -40 -47 hvcurveto
          -645 hlineto
          -47 -27 40 44 50 21 42 51 hvcurveto
          219 hlineto
          -148 391 rlineto
          -725 hlineto
          -157 -391 rlineto
          186 hlineto
          51 21 -42 -50 -44 -27 -40 -47 hvcurveto
          -543 hlineto
          -47 -27 40 44 hvcurveto
          652 637 rmoveto
          606 hlineto
          -293 778 rlineto
          -335 419 rmoveto
          155 84 110 106 vhcurveto
          155 116 -142 56 89 3 142 49 hhcurveto
          39 34 -18 -36 -155 -100 -109 -126 hvcurveto
          -116 -113 141 -77 -85 0 -141 -41 hhcurveto
          -39 -34 17 36 hvcurveto
          endchar
        </CharString>
        <CharString name="B">
          508 1751 510 rmoveto
          -365 -368 -145 -366 vhcurveto
          -907 hlineto
          -47 -27 40 44 50 21 42 51 hvcurveto
          264 1362 -213 hlineto
          -47 -26 40 44 50 20 42 51 hvcurveto
          817 hlineto
          330 278 -99 -336 -168 -110 -109 -131 -35 hvcurveto
          223 -31 187 -133 -293 vvcurveto
          -250 22 rmoveto
          303 -214 31 -231 vhcurveto
          -450 -690 414 hlineto
          281 200 86 270 hvcurveto
          -120 735 rmoveto
          205 -156 66 -232 vhcurveto
          -387 -543 450 hlineto
          162 163 79 193 hvcurveto
          endchar
        </CharString>
        <CharString name="C">
          489 1694 571 rmoveto
          -322 -288 -274 -449 -505 -375 355 559 510 382 340 517 218 149 -78 -123 120 vhcurveto
          104 vlineto
          51 42 21 50 44 40 -27 -47 vhcurveto
          -374 vlineto
          -47 -40 -27 -44 -45 -15 44 34 -24 vhcurveto
          161 -98 -146 119 -251 hhcurveto
          -396 -240 -282 -390 -439 229 -268 407 283 177 165 254 50 hvcurveto
          48 10 46 23 46 hhcurveto
          52 54 -31 -59 hvcurveto
          endchar
        </CharString>
        <CharString name="Cacute">
          489 1694 571 rmoveto
          -322 -288 -274 -449 -505 -375 355 559 510 382 340 517 218 149 -78 -123 120 vhcurveto
          104 vlineto
          51 42 21 50 44 40 -27 -47 vhcurveto
          -374 vlineto
          -47 -40 -27 -44 -45 -15 44 34 -24 vhcurveto
          161 -98 -146 119 -251 hhcurveto
          -396 -240 -282 -390 -439 229 -268 407 283 177 165 254 50 hvcurveto
          48 10 46 23 46 hhcurveto
          52 54 -31 -59 hvcurveto
          -506 1713 rmoveto
          42 42 -43 -41 -18 -8 -15 -18 -12 hvcurveto
          -158 -99 -177 -115 -163 -93 rrcurveto
          -4 -7 -7 -3 -5 hhcurveto
          -26 -23 27 25 14 6 9 11 7 hvcurveto
          150 100 164 129 136 117 rrcurveto
          10 11 14 5 16 hhcurveto
          endchar
        </CharString>
        <CharString name="Ccaron">
          489 1694 571 rmoveto
          -322 -288 -274 -449 -505 -375 355 559 510 382 340 517 218 149 -78 -123 120 vhcurveto
          104 vlineto
          51 42 21 50 44 40 -27 -47 vhcurveto
          -374 vlineto
          -47 -40 -27 -44 -45 -15 44 34 -24 vhcurveto
          161 -98 -146 119 -251 hhcurveto
          -396 -240 -282 -390 -439 229 -268 407 283 177 165 254 50 hvcurveto
          48 10 46 23 46 hhcurveto
          52 54 -31 -59 hvcurveto
          -718 1270 rmoveto
          -19 -19 6 11 -8 hvcurveto
          -270 414 rlineto
          -7 8 -3 9 8 vvcurveto
          24 27 19 27 12 14 -2 -11 8 vhcurveto
          238 -306 238 306 rlineto
          11 8 14 2 12 hhcurveto
          27 27 -19 -24 -8 -3 -9 -7 -8 hvcurveto
          -270 -414 rlineto
          -11 -8 -19 -6 -19 hhcurveto
          endchar
        </CharString>
        <CharString name="Ccedilla">
          489 1694 571 rmoveto
          -322 -288 -274 -449 -505 -375 355 559 510 382 340 517 218 149 -78 -123 120 vhcurveto
          104 vlineto
          51 42 21 50 44 40 -27 -47 vhcurveto
          -374 vlineto
          -47 -40 -27 -44 -45 -15 44 34 -24 vhcurveto
          161 -98 -146 119 -251 hhcurveto
          -396 -240 -282 -390 -439 229 -268 407 283 177 165 254 50 hvcurveto
          48 10 46 23 46 hhcurveto
          52 54 -31 -59 hvcurveto
          -673 -574 rmoveto
          -60 -501 rlineto
          -118 -8 -69 -56 -65 hhcurveto
          -58 -54 46 91 66 156 423 30 49 hvcurveto
          endchar
        </CharString>
        <CharString name="Ccircumflex">
          489 1694 571 rmoveto
          -322 -288 -274 -449 -505 -375 355 559 510 382 340 517 218 149 -78 -123 120 vhcurveto
          104 vlineto
          51 42 21 50 44 40 -27 -47 vhcurveto
          -374 vlineto
          -47 -40 -27 -44 -45 -15 44 34 -24 vhcurveto
          161 -98 -146 119 -251 hhcurveto
          -396 -240 -282 -390 -439 229 -268 407 283 177 165 254 50 hvcurveto
          48 10 46 23 46 hhcurveto
          52 54 -31 -59 hvcurveto
          -718 1769 rmoveto
          19 19 -6 -11 8 hvcurveto
          270 -414 rlineto
          7 -8 3 -9 -8 vvcurveto
          -24 -27 -19 -27 -12 -14 2 11 -8 vhcurveto
          -238 306 -238 -306 rlineto
          -11 -8 -14 -2 -12 hhcurveto
          -27 -27 19 24 8 3 9 7 8 hvcurveto
          270 414 rlineto
          11 8 19 6 19 hhcurveto
          endchar
        </CharString>
        <CharString name="Cdotaccent">
          489 1694 571 rmoveto
          -322 -288 -274 -449 -505 -375 355 559 510 382 340 517 218 149 -78 -123 120 vhcurveto
          104 vlineto
          51 42 21 50 44 40 -27 -47 vhcurveto
          -374 vlineto
          -47 -40 -27 -44 -45 -15 44 34 -24 vhcurveto
          161 -98 -146 119 -251 hhcurveto
          -396 -240 -282 -390 -439 229 -268 407 283 177 165 254 50 hvcurveto
          48 10 46 23 46 hhcurveto
          52 54 -31 -59 hvcurveto
          -582 1426 rmoveto
          -77 -60 -79 -89 -97 -53 79 77 73 48 72 104 vhcurveto
          0 vlineto
          92 55 -71 -74 hvcurveto
          endchar
        </CharString>
        <CharString name="D">
          611 1605 866 rmoveto
          431 -275 241 -434 vhcurveto
          -286 -1362 hlineto
          -3 47 45 -1 45 hhcurveto
          508 350 174 520 hvcurveto
          242 hmoveto
          -565 -412 -301 -567 vhcurveto
          -758 hlineto
          -47 -27 40 44 50 21 42 51 hvcurveto
          268 1362 -203 hlineto
          -51 -20 42 50 44 27 40 47 hvcurveto
          692 hlineto
          579 400 -276 -572 hvcurveto
          endchar
        </CharString>
        <CharString name="Dcaron">
          611 1605 866 rmoveto
          431 -275 241 -434 vhcurveto
          -286 -1362 hlineto
          -3 47 45 -1 45 hhcurveto
          508 350 174 520 hvcurveto
          242 hmoveto
          -565 -412 -301 -567 vhcurveto
          -758 hlineto
          -47 -27 40 44 50 21 42 51 hvcurveto
          268 1362 -203 hlineto
          -51 -20 42 50 44 27 40 47 hvcurveto
          692 hlineto
          579 400 -276 -572 hvcurveto
          -906 975 rmoveto
          -19 -19 6 11 -8 hvcurveto
          -270 414 rlineto
          -7 8 -3 9 8 vvcurveto
          24 27 19 27 12 14 -2 -11 8 vhcurveto
          238 -306 238 306 rlineto
          11 8 14 2 12 hhcurveto
          27 27 -19 -24 -8 -3 -9 -7 -8 hvcurveto
          -270 -414 rlineto
          -11 -8 -19 -6 -19 hhcurveto
          endchar
        </CharString>
        <CharString name="Dcroat">
          565 1872 866 rmoveto
          -565 -412 -301 -567 vhcurveto
          -758 hlineto
          -47 -27 40 44 50 21 42 51 hvcurveto
          268 633 -149 hlineto
          -55 -27 40 39 39 26 38 50 hvcurveto
          155 573 -203 hlineto
          -51 -20 42 50 44 27 40 47 hvcurveto
          692 hlineto
          579 400 -276 -572 hvcurveto
          -242 hmoveto
          431 -275 241 -434 vhcurveto
          -286 -573 253 hlineto
          48 24 -38 -39 -39 -25 -40 -49 hvcurveto
          -251 -633 hlineto
          -3 47 45 -1 45 hhcurveto
          508 350 174 520 hvcurveto
          endchar
        </CharString>
        <CharString name="E">
          568 1161 649 rmoveto
          -47 -25 -33 -45 -42 -27 31 37 -11 vhcurveto
          -51 186 rlineto
          -334 -647 883 hlineto
          116 330 rlineto
          42 19 32 34 52 hhcurveto
          44 29 -28 -46 -14 -2 -13 -4 -12 hvcurveto
          -63 -391 rlineto
          -48 -14 -20 -30 -48 hhcurveto
          -1540 hlineto
          -47 -27 40 44 50 21 42 51 hvcurveto
          285 1362 -183 hlineto
          -51 -20 42 50 44 26 40 47 hvcurveto
          1397 hlineto
          48 18 -31 -47 16 hvcurveto
          96 -317 rlineto
          4 -15 2 -13 -11 vvcurveto
          -44 -30 -30 -43 -50 -36 34 42 -17 vhcurveto
          -108 256 rlineto
          -883 -571 334 hlineto
          51 186 rlineto
          37 11 27 31 42 hhcurveto
          45 25 -33 -47 hvcurveto
          -15 -242 rlineto
          endchar
        </CharString>
        <CharString name="Eacute">
          568 1161 649 rmoveto
          -47 -25 -33 -45 -42 -27 31 37 -11 vhcurveto
          -51 186 rlineto
          -334 -647 883 hlineto
          116 330 rlineto
          42 19 32 34 52 hhcurveto
          44 29 -28 -46 -14 -2 -13 -4 -12 hvcurveto
          -63 -391 rlineto
          -48 -14 -20 -30 -48 hhcurveto
          -1540 hlineto
          -47 -27 40 44 50 21 42 51 hvcurveto
          285 1362 -183 hlineto
          -51 -20 42 50 44 26 40 47 hvcurveto
          1397 hlineto
          48 18 -31 -47 16 hvcurveto
          96 -317 rlineto
          4 -15 2 -13 -11 vvcurveto
          -44 -30 -30 -43 -50 -36 34 42 -17 vhcurveto
          -108 256 rlineto
          -883 -571 334 hlineto
          51 186 rlineto
          37 11 27 31 42 hhcurveto
          45 25 -33 -47 hvcurveto
          -15 -242 rlineto
          -24 1385 rmoveto
          42 42 -43 -41 -18 -8 -15 -18 -12 hvcurveto
          -158 -99 -177 -115 -163 -93 rrcurveto
          -4 -7 -7 -3 -5 hhcurveto
          -26 -23 27 25 14 6 9 11 7 hvcurveto
          150 100 164 129 136 117 rrcurveto
          10 11 14 5 16 hhcurveto
          endchar
        </CharString>
        <CharString name="Ecaron">
          568 1161 649 rmoveto
          -47 -25 -33 -45 -42 -27 31 37 -11 vhcurveto
          -51 186 rlineto
          -334 -647 883 hlineto
          116 330 rlineto
          42 19 32 34 52 hhcurveto
          44 29 -28 -46 -14 -2 -13 -4 -12 hvcurveto
          -63 -391 rlineto
          -48 -14 -20 -30 -48 hhcurveto
          -1540 hlineto
          -47 -27 40 44 50 21 42 51 hvcurveto
          285 1362 -183 hlineto
          -51 -20 42 50 44 26 40 47 hvcurveto
          1397 hlineto
          48 18 -31 -47 16 hvcurveto
          96 -317 rlineto
          4 -15 2 -13 -11 vvcurveto
          -44 -30 -30 -43 -50 -36 34 42 -17 vhcurveto
          -108 256 rlineto
          -883 -571 334 hlineto
          51 186 rlineto
          37 11 27 31 42 hhcurveto
          45 25 -33 -47 hvcurveto
          -15 -242 rlineto
          -236 942 rmoveto
          -19 -19 6 11 -8 hvcurveto
          -270 414 rlineto
          -7 8 -3 9 8 vvcurveto
          24 27 19 27 12 14 -2 -11 8 vhcurveto
          238 -306 238 306 rlineto
          11 8 14 2 12 hhcurveto
          27 27 -19 -24 -8 -3 -9 -7 -8 hvcurveto
          -270 -414 rlineto
          -11 -8 -19 -6 -19 hhcurveto
          endchar
        </CharString>
        <CharString name="Ecircumflex">
          568 1161 649 rmoveto
          -47 -25 -33 -45 -42 -27 31 37 -11 vhcurveto
          -51 186 rlineto
          -334 -647 883 hlineto
          116 330 rlineto
          42 19 32 34 52 hhcurveto
          44 29 -28 -46 -14 -2 -13 -4 -12 hvcurveto
          -63 -391 rlineto
          -48 -14 -20 -30 -48 hhcurveto
          -1540 hlineto
          -47 -27 40 44 50 21 42 51 hvcurveto
          285 1362 -183 hlineto
          -51 -20 42 50 44 26 40 47 hvcurveto
          1397 hlineto
          48 18 -31 -47 16 hvcurveto
          96 -317 rlineto
          4 -15 2 -13 -11 vvcurveto
          -44 -30 -30 -43 -50 -36 34 42 -17 vhcurveto
          -108 256 rlineto
          -883 -571 334 hlineto
          51 186 rlineto
          37 11 27 31 42 hhcurveto
          45 25 -33 -47 hvcurveto
          -15 -242 rlineto
          -236 1441 rmoveto
          19 19 -6 -11 8 hvcurveto
          270 -414 rlineto
          7 -8 3 -9 -8 vvcurveto
          -24 -27 -19 -27 -12 -14 2 11 -8 vhcurveto
          -238 306 -238 -306 rlineto
          -11 -8 -14 -2 -12 hhcurveto
          -27 -27 19 24 8 3 9 7 8 hvcurveto
          270 414 rlineto
          11 8 19 6 19 hhcurveto
          endchar
        </CharString>
        <CharString name="Edieresis">
          568 1161 649 rmoveto
          -47 -25 -33 -45 -42 -27 31 37 -11 vhcurveto
          -51 186 rlineto
          -334 -647 883 hlineto
          116 330 rlineto
          42 19 32 34 52 hhcurveto
          44 29 -28 -46 -14 -2 -13 -4 -12 hvcurveto
          -63 -391 rlineto
          -48 -14 -20 -30 -48 hhcurveto
          -1540 hlineto
          -47 -27 40 44 50 21 42 51 hvcurveto
          285 1362 -183 hlineto
          -51 -20 42 50 44 26 40 47 hvcurveto
          1397 hlineto
          48 18 -31 -47 16 hvcurveto
          96 -317 rlineto
          4 -15 2 -13 -11 vvcurveto
          -44 -30 -30 -43 -50 -36 34 42 -17 vhcurveto
          -108 256 rlineto
          -883 -571 334 hlineto
          51 186 rlineto
          37 11 27 31 42 hhcurveto
          45 25 -33 -47 hvcurveto
          -15 -242 rlineto
          -481 942 rmoveto
          -73 -61 60 73 73 61 60 73 73 60 -60 -73 -73 -60 -60 -73 hvcurveto
          491 hmoveto
          -73 -60 60 73 73 60 60 73 73 60 -60 -73 -73 -60 -60 -73 hvcurveto
          endchar
        </CharString>
        <CharString name="Edotaccent">
          568 1161 649 rmoveto
          -47 -25 -33 -45 -42 -27 31 37 -11 vhcurveto
          -51 186 rlineto
          -334 -647 883 hlineto
          116 330 rlineto
          42 19 32 34 52 hhcurveto
          44 29 -28 -46 -14 -2 -13 -4 -12 hvcurveto
          -63 -391 rlineto
          -48 -14 -20 -30 -48 hhcurveto
          -1540 hlineto
          -47 -27 40 44 50 21 42 51 hvcurveto
          285 1362 -183 hlineto
          -51 -20 42 50 44 26 40 47 hvcurveto
          1397 hlineto
          48 18 -31 -47 16 hvcurveto
          96 -317 rlineto
          4 -15 2 -13 -11 vvcurveto
          -44 -30 -30 -43 -50 -36 34 42 -17 vhcurveto
          -108 256 rlineto
          -883 -571 334 hlineto
          51 186 rlineto
          37 11 27 31 42 hhcurveto
          45 25 -33 -47 hvcurveto
          -15 -242 rlineto
          -86 1098 rmoveto
          -77 -60 -79 -89 -97 -53 79 77 73 48 72 104 vhcurveto
          0 vlineto
          92 55 -71 -74 hvcurveto
          endchar
        </CharString>
        <CharString name="Egrave">
          568 1161 649 rmoveto
          -47 -25 -33 -45 -42 -27 31 37 -11 vhcurveto
          -51 186 rlineto
          -334 -647 883 hlineto
          116 330 rlineto
          42 19 32 34 52 hhcurveto
          44 29 -28 -46 -14 -2 -13 -4 -12 hvcurveto
          -63 -391 rlineto
          -48 -14 -20 -30 -48 hhcurveto
          -1540 hlineto
          -47 -27 40 44 50 21 42 51 hvcurveto
          285 1362 -183 hlineto
          -51 -20 42 50 44 26 40 47 hvcurveto
          1397 hlineto
          48 18 -31 -47 16 hvcurveto
          96 -317 rlineto
          4 -15 2 -13 -11 vvcurveto
          -44 -30 -30 -43 -50 -36 34 42 -17 vhcurveto
          -108 256 rlineto
          -883 -571 334 hlineto
          51 186 rlineto
          37 11 27 31 42 hhcurveto
          45 25 -33 -47 hvcurveto
          -15 -242 rlineto
          61 994 rmoveto
          -25 -23 -27 -26 -7 -6 3 4 -5 vhcurveto
          -162 93 -179 116 -157 98 rrcurveto
          -18 12 -9 15 18 vvcurveto
          41 42 43 42 16 14 -5 -10 11 vhcurveto
          136 -117 165 -129 150 -100 rrcurveto
          11 -7 5 -9 -14 vvcurveto
          endchar
        </CharString>
        <CharString name="Emacron">
          568 1161 649 rmoveto
          -47 -25 -33 -45 -42 -27 31 37 -11 vhcurveto
          -51 186 rlineto
          -334 -647 883 hlineto
          116 330 rlineto
          42 19 32 34 52 hhcurveto
          44 29 -28 -46 -14 -2 -13 -4 -12 hvcurveto
          -63 -391 rlineto
          -48 -14 -20 -30 -48 hhcurveto
          -1540 hlineto
          -47 -27 40 44 50 21 42 51 hvcurveto
          285 1362 -183 hlineto
          -51 -20 42 50 44 26 40 47 hvcurveto
          1397 hlineto
          48 18 -31 -47 16 hvcurveto
          96 -317 rlineto
          4 -15 2 -13 -11 vvcurveto
          -44 -30 -30 -43 -50 -36 34 42 -17 vhcurveto
          -108 256 rlineto
          -883 -571 334 hlineto
          51 186 rlineto
          37 11 27 31 42 hhcurveto
          45 25 -33 -47 hvcurveto
          -15 -242 rlineto
          34 942 rmoveto
          -530 hlineto
          -55 -27 40 39 39 26 38 50 hvcurveto
          538 hlineto
          48 24 -38 -39 -39 -25 -40 -49 hvcurveto
          endchar
        </CharString>
        <CharString name="Eng">
          770 68 1630 rmoveto
          44 27 40 47 vhcurveto
          463 hlineto
          32 15 -10 -25 12 hvcurveto
          879 -1253 rlineto
          1112 -180 vlineto
          -51 -21 42 50 44 27 40 47 hvcurveto
          582 hlineto
          47 26 -40 -44 -50 -20 -42 -51 hvcurveto
          -199 -1590 hlineto
          -373 -195 -162 -253 -181 -154 98 125 vhcurveto
          119 vlineto
          69 30 35 74 57 51 -29 -55 vhcurveto
          -113 vlineto
          -43 1 62 -38 73 hhcurveto
          103 125 83 261 hvcurveto
          126 vlineto
          -993 1405 rlineto
          -1280 176 vlineto
          51 21 -42 -50 -44 -27 -40 -47 hvcurveto
          -582 hlineto
          -47 -27 40 44 50 21 42 51 hvcurveto
          199 1362 -199 hlineto
          -51 -21 42 50 hvcurveto
          endchar
        </CharString>
        <CharString name="Eogonek">
          568 1161 649 rmoveto
          -47 -25 -33 -45 -42 -27 31 37 -11 vhcurveto
          -51 186 rlineto
          -334 -647 883 hlineto
          116 330 rlineto
          42 19 32 34 52 hhcurveto
          44 29 -28 -46 -14 -2 -13 -4 -12 hvcurveto
          -63 -391 rlineto
          -48 -14 -20 -30 -48 hhcurveto
          -1540 hlineto
          -47 -27 40 44 50 21 42 51 hvcurveto
          285 1362 -183 hlineto
          -51 -20 42 50 44 26 40 47 hvcurveto
          1397 hlineto
          48 18 -31 -47 16 hvcurveto
          96 -317 rlineto
          4 -15 2 -13 -11 vvcurveto
          -44 -30 -30 -43 -50 -36 34 42 -17 vhcurveto
          -108 256 rlineto
          -883 -571 334 hlineto
          51 186 rlineto
          37 11 27 31 42 hhcurveto
          45 25 -33 -47 hvcurveto
          -15 -242 rlineto
          -146 -1427 rmoveto
          -92 -70 43 115 72 66 175 170 141 hvcurveto
          79 hlineto
          9 -120 -192 -95 hvcurveto
          -111 137 25 -60 vvcurveto
          -51 -85 -62 -94 vhcurveto
          endchar
        </CharString>
        <CharString name="Eth">
          565 1872 866 rmoveto
          -565 -412 -301 -567 vhcurveto
          -758 hlineto
          -47 -27 40 44 50 21 42 51 hvcurveto
          268 633 -149 hlineto
          -55 -27 40 39 39 26 38 50 hvcurveto
          155 573 -203 hlineto
          -51 -20 42 50 44 27 40 47 hvcurveto
          692 hlineto
          579 400 -276 -572 hvcurveto
          -242 hmoveto
          431 -275 241 -434 vhcurveto
          -286 -573 253 hlineto
          48 24 -38 -39 -39 -25 -40 -49 hvcurveto
          -251 -633 hlineto
          -3 47 45 -1 45 hhcurveto
          508 350 174 520 hvcurveto
          endchar
        </CharString>
        <CharString name="Euro">
          884 1952 539 rmoveto
          7 vlineto
          55 -46 29 -47 -42 -42 -23 -47 -11 vhcurveto
          -234 -59 -168 -155 -283 hhcurveto
          -312 -218 158 271 -85 hvcurveto
          358 hlineto
          58 29 37 37 37 -29 37 -58 hvcurveto
          -389 hlineto
          -5 41 -3 44 45 vvcurveto
          24 1 24 2 24 vhcurveto
          394 hlineto
          58 29 38 37 38 -29 37 -58 hvcurveto
          -366 hlineto
          271 79 228 179 316 hhcurveto
          251 146 -119 -161 98 hvcurveto
          -34 24 15 -44 45 hhcurveto
          44 40 27 47 hvcurveto
          374 vlineto
          47 -40 27 -44 -50 -42 -21 -51 vhcurveto
          -104 vlineto
          123 -120 -149 78 -218 hhcurveto
          -435 -311 -255 -384 -88 hvcurveto
          -187 hlineto
          -59 -30 -37 -38 -37 30 -38 59 hvcurveto
          165 hlineto
          -2 -27 -1 -27 -27 vvcurveto
          -42 2 -40 3 -39 vhcurveto
          -167 hlineto
          -59 -30 -37 -37 -37 30 -37 59 hvcurveto
          191 hlineto
          -396 92 301 -229 418 hhcurveto
          449 248 282 282 20 hvcurveto
          endchar
        </CharString>
        <CharString name="F">
          469 970 hmoveto
          47 27 40 44 50 -21 42 -51 hvcurveto
          -305 608 340 hlineto
          51 -186 rlineto
          -37 11 27 -31 42 hhcurveto
          45 25 33 47 hvcurveto
          -14 250 14 242 rlineto
          47 -25 33 -45 -42 -27 -31 -37 -11 vhcurveto
          -51 -186 rlineto
          -340 610 875 hlineto
          88 -256 rlineto
          -42 17 35 -34 50 hhcurveto
          43 31 30 44 11 -2 13 -4 15 hvcurveto
          -76 317 rlineto
          47 -16 -18 31 -48 hhcurveto
          -1450 hlineto
          -47 -27 -40 -44 -50 21 -42 51 hvcurveto
          244 -1362 -326 hlineto
          -51 -21 -42 -50 -44 27 -40 47 hvcurveto
          endchar
        </CharString>
        <CharString name="G">
          675 974 164 rmoveto
          314 290 88 317 hvcurveto
          127 -152 vlineto
          -47 -26 40 44 50 20 42 51 hvcurveto
          416 hlineto
          51 21 -42 -50 -44 -27 -40 -47 hvcurveto
          -84 -624 hlineto
          -51 -42 -21 -50 -44 -40 27 47 vhcurveto
          123 vlineto
          -159 -116 -217 -63 -271 hhcurveto
          -529 -368 344 531 537 381 352 536 242 167 -75 -126 140 hvcurveto
          104 vlineto
          51 42 21 50 44 40 -27 -47 vhcurveto
          -374 vlineto
          -47 -40 -27 -44 -46 -16 44 34 -22 vhcurveto
          173 -123 -172 107 -262 hhcurveto
          -411 -244 -288 -412 -406 233 -280 402 hvcurveto
          endchar
        </CharString>
        <CharString name="Gbreve">
          675 974 164 rmoveto
          314 290 88 317 hvcurveto
          127 -152 vlineto
          -47 -26 40 44 50 20 42 51 hvcurveto
          416 hlineto
          51 21 -42 -50 -44 -27 -40 -47 hvcurveto
          -84 -624 hlineto
          -51 -42 -21 -50 -44 -40 27 47 vhcurveto
          123 vlineto
          -159 -116 -217 -63 -271 hhcurveto
          -529 -368 344 531 537 381 352 536 242 167 -75 -126 140 hvcurveto
          104 vlineto
          51 42 21 50 44 40 -27 -47 vhcurveto
          -374 vlineto
          -47 -40 -27 -44 -46 -16 44 34 -22 vhcurveto
          173 -123 -172 107 -262 hhcurveto
          -411 -244 -288 -412 -406 233 -280 402 hvcurveto
          -188 2020 rmoveto
          -120 46 81 -60 81 hhcurveto
          81 81 60 120 46 hvcurveto
          16 6 14 5 13 hhcurveto
          26 29 -25 -22 -211 -148 -106 -148 -148 -148 106 211 22 29 25 26 13 14 -5 -16 6 hvcurveto
          endchar
        </CharString>
        <CharString name="Gcommaaccent">
          675 974 164 rmoveto
          314 290 88 317 hvcurveto
          127 -152 vlineto
          -47 -26 40 44 50 20 42 51 hvcurveto
          416 hlineto
          51 21 -42 -50 -44 -27 -40 -47 hvcurveto
          -84 -624 hlineto
          -51 -42 -21 -50 -44 -40 27 47 vhcurveto
          123 vlineto
          -159 -116 -217 -63 -271 hhcurveto
          -529 -368 344 531 537 381 352 536 242 167 -75 -126 140 hvcurveto
          104 vlineto
          51 42 21 50 44 40 -27 -47 vhcurveto
          -374 vlineto
          -47 -40 -27 -44 -46 -16 44 34 -22 vhcurveto
          173 -123 -172 107 -262 hhcurveto
          -411 -244 -288 -412 -406 233 -280 402 hvcurveto
          -7 -291 rmoveto
          110 95 -74 -148 -211 -123 -134 -151 -76 hvcurveto
          -9 -16 -17 -4 -14 hhcurveto
          -43 -32 33 35 18 9 19 22 15 hvcurveto
          77 51 101 66 114 vvcurveto
          -108 -80 48 102 103 82 52 88 hvcurveto
          endchar
        </CharString>
        <CharString name="Gdotaccent">
          675 974 164 rmoveto
          314 290 88 317 hvcurveto
          127 -152 vlineto
          -47 -26 40 44 50 20 42 51 hvcurveto
          416 hlineto
          51 21 -42 -50 -44 -27 -40 -47 hvcurveto
          -84 -624 hlineto
          -51 -42 -21 -50 -44 -40 27 47 vhcurveto
          123 vlineto
          -159 -116 -217 -63 -271 hhcurveto
          -529 -368 344 531 537 381 352 536 242 167 -75 -126 140 hvcurveto
          104 vlineto
          51 42 21 50 44 40 -27 -47 vhcurveto
          -374 vlineto
          -47 -40 -27 -44 -46 -16 44 34 -22 vhcurveto
          173 -123 -172 107 -262 hhcurveto
          -411 -244 -288 -412 -406 233 -280 402 hvcurveto
          170 1833 rmoveto
          -77 -60 -79 -89 -97 -53 79 77 73 48 72 104 vhcurveto
          0 vlineto
          92 55 -71 -74 hvcurveto
          endchar
        </CharString>
        <CharString name="H">
          707 36 84 rmoveto
          50 21 42 51 vhcurveto
          223 1362 -202 hlineto
          -51 -21 42 50 44 27 40 47 hvcurveto
          635 hlineto
          47 26 -40 -44 -50 -20 -42 -51 hvcurveto
          -203 -575 932 575 -203 hlineto
          -51 -21 42 50 44 27 40 47 hvcurveto
          614 hlineto
          47 27 -40 -44 -50 -21 -42 -51 hvcurveto
          -182 -1362 182 hlineto
          51 21 -42 -50 -44 -27 -40 -47 hvcurveto
          -614 hlineto
          -47 -27 40 44 50 21 42 51 hvcurveto
          203 612 -932 -612 203 hlineto
          51 20 -42 -50 -44 -26 -40 -47 hvcurveto
          -656 hlineto
          -47 -27 40 44 hvcurveto
          endchar
        </CharString>
        <CharString name="I">
          -305 74 84 rmoveto
          50 20 42 51 vhcurveto
          244 1362 -244 hlineto
          -51 -20 42 50 44 26 40 47 hvcurveto
          717 hlineto
          47 27 -40 -44 -50 -21 -42 -51 hvcurveto
          -243 -1362 243 hlineto
          51 21 -42 -50 -44 -27 -40 -47 hvcurveto
          -717 hlineto
          -47 -26 40 44 hvcurveto
          endchar
        </CharString>
        <CharString name="IJ">
          1028 74 84 rmoveto
          50 20 42 51 vhcurveto
          244 1362 -244 hlineto
          -51 -20 42 50 44 26 40 47 hvcurveto
          717 hlineto
          47 27 -40 -44 -50 -21 -42 -51 hvcurveto
          -243 -1362 243 hlineto
          51 21 -42 -50 -44 -27 -40 -47 hvcurveto
          -717 hlineto
          -47 -26 40 44 hvcurveto
          1899 359 rmoveto
          -419 -220 -182 -284 -204 -172 111 140 vhcurveto
          133 vlineto
          77 33 40 84 64 57 -32 -62 vhcurveto
          -127 vlineto
          -49 1 70 -42 82 hhcurveto
          116 140 92 294 hvcurveto
          1121 -322 vlineto
          -51 -20 42 50 44 26 40 47 hvcurveto
          816 hlineto
          47 26 -40 -44 -50 -20 -42 -51 hvcurveto
          -265 hlineto
          endchar
        </CharString>
        <CharString name="Iacute">
          -305 74 84 rmoveto
          50 20 42 51 vhcurveto
          244 1362 -244 hlineto
          -51 -20 42 50 44 26 40 47 hvcurveto
          717 hlineto
          47 27 -40 -44 -50 -21 -42 -51 hvcurveto
          -243 -1362 243 hlineto
          51 21 -42 -50 -44 -27 -40 -47 hvcurveto
          -717 hlineto
          -47 -26 40 44 hvcurveto
          644 2200 rmoveto
          42 42 -43 -41 -18 -8 -15 -18 -12 hvcurveto
          -158 -99 -177 -115 -163 -93 rrcurveto
          -4 -7 -7 -3 -5 hhcurveto
          -26 -23 27 25 14 6 9 11 7 hvcurveto
          150 100 164 129 136 117 rrcurveto
          10 11 14 5 16 hhcurveto
          endchar
        </CharString>
        <CharString name="Ibreve">
          -305 74 84 rmoveto
          50 20 42 51 vhcurveto
          244 1362 -244 hlineto
          -51 -20 42 50 44 26 40 47 hvcurveto
          717 hlineto
          47 27 -40 -44 -50 -21 -42 -51 hvcurveto
          -243 -1362 243 hlineto
          51 21 -42 -50 -44 -27 -40 -47 hvcurveto
          -717 hlineto
          -47 -26 40 44 hvcurveto
          224 2100 rmoveto
          -120 46 81 -60 81 hhcurveto
          81 81 60 120 46 hvcurveto
          16 6 14 5 13 hhcurveto
          26 29 -25 -22 -211 -148 -106 -148 -148 -148 106 211 22 29 25 26 13 14 -5 -16 6 hvcurveto
          endchar
        </CharString>
        <CharString name="Icircumflex">
          -305 74 84 rmoveto
          50 20 42 51 vhcurveto
          244 1362 -244 hlineto
          -51 -20 42 50 44 26 40 47 hvcurveto
          717 hlineto
          47 27 -40 -44 -50 -21 -42 -51 hvcurveto
          -243 -1362 243 hlineto
          51 21 -42 -50 -44 -27 -40 -47 hvcurveto
          -717 hlineto
          -47 -26 40 44 hvcurveto
          432 2256 rmoveto
          19 19 -6 -11 8 hvcurveto
          270 -414 rlineto
          7 -8 3 -9 -8 vvcurveto
          -24 -27 -19 -27 -12 -14 2 11 -8 vhcurveto
          -238 306 -238 -306 rlineto
          -11 -8 -14 -2 -12 hhcurveto
          -27 -27 19 24 8 3 9 7 8 hvcurveto
          270 414 rlineto
          11 8 19 6 19 hhcurveto
          endchar
        </CharString>
        <CharString name="Idieresis">
          -305 74 84 rmoveto
          50 20 42 51 vhcurveto
          244 1362 -244 hlineto
          -51 -20 42 50 44 26 40 47 hvcurveto
          717 hlineto
          47 27 -40 -44 -50 -21 -42 -51 hvcurveto
          -243 -1362 243 hlineto
          51 21 -42 -50 -44 -27 -40 -47 hvcurveto
          -717 hlineto
          -47 -26 40 44 hvcurveto
          187 1757 rmoveto
          -73 -61 60 73 73 61 60 73 73 60 -60 -73 -73 -60 -60 -73 hvcurveto
          491 hmoveto
          -73 -60 60 73 73 60 60 73 73 60 -60 -73 -73 -60 -60 -73 hvcurveto
          endchar
        </CharString>
        <CharString name="Idotaccent">
          -305 74 84 rmoveto
          50 20 42 51 vhcurveto
          244 1362 -244 hlineto
          -51 -20 42 50 44 26 40 47 hvcurveto
          717 hlineto
          47 27 -40 -44 -50 -21 -42 -51 hvcurveto
          -243 -1362 243 hlineto
          51 21 -42 -50 -44 -27 -40 -47 hvcurveto
          -717 hlineto
          -47 -26 40 44 hvcurveto
          581 1913 rmoveto
          -77 -60 -79 -89 -97 -53 79 77 73 48 72 104 vhcurveto
          0 vlineto
          92 55 -71 -74 hvcurveto
          endchar
        </CharString>
        <CharString name="Igrave">
          -305 74 84 rmoveto
          50 20 42 51 vhcurveto
          244 1362 -244 hlineto
          -51 -20 42 50 44 26 40 47 hvcurveto
          717 hlineto
          47 27 -40 -44 -50 -21 -42 -51 hvcurveto
          -243 -1362 243 hlineto
          51 21 -42 -50 -44 -27 -40 -47 hvcurveto
          -717 hlineto
          -47 -26 40 44 hvcurveto
          728 1809 rmoveto
          -25 -23 -27 -26 -7 -6 3 4 -5 vhcurveto
          -162 93 -179 116 -157 98 rrcurveto
          -18 12 -9 15 18 vvcurveto
          41 42 43 42 16 14 -5 -10 11 vhcurveto
          136 -117 165 -129 150 -100 rrcurveto
          11 -7 5 -9 -14 vvcurveto
          endchar
        </CharString>
        <CharString name="Imacron">
          -305 74 84 rmoveto
          50 20 42 51 vhcurveto
          244 1362 -244 hlineto
          -51 -20 42 50 44 26 40 47 hvcurveto
          717 hlineto
          47 27 -40 -44 -50 -21 -42 -51 hvcurveto
          -243 -1362 243 hlineto
          51 21 -42 -50 -44 -27 -40 -47 hvcurveto
          -717 hlineto
          -47 -26 40 44 hvcurveto
          701 1757 rmoveto
          -530 hlineto
          -55 -27 40 39 39 26 38 50 hvcurveto
          538 hlineto
          48 24 -38 -39 -39 -25 -40 -49 hvcurveto
          endchar
        </CharString>
        <CharString name="Iogonek">
          -305 74 84 rmoveto
          50 20 42 51 vhcurveto
          244 1362 -244 hlineto
          -51 -20 42 50 44 26 40 47 hvcurveto
          717 hlineto
          47 27 -40 -44 -50 -21 -42 -51 hvcurveto
          -243 -1362 243 hlineto
          51 21 -42 -50 -44 -27 -40 -47 hvcurveto
          -717 hlineto
          -47 -26 40 44 hvcurveto
          318 -612 rmoveto
          -92 -70 43 115 72 66 175 170 141 hvcurveto
          79 hlineto
          9 -120 -192 -95 hvcurveto
          -111 137 25 -60 vvcurveto
          -51 -85 -62 -94 vhcurveto
          endchar
        </CharString>
        <CharString name="Itilde">
          -305 74 84 rmoveto
          50 20 42 51 vhcurveto
          244 1362 -244 hlineto
          -51 -20 42 50 44 26 40 47 hvcurveto
          717 hlineto
          47 27 -40 -44 -50 -21 -42 -51 hvcurveto
          -243 -1362 243 hlineto
          51 21 -42 -50 -44 -27 -40 -47 hvcurveto
          -717 hlineto
          -47 -26 40 44 hvcurveto
          66 1810 rmoveto
          155 84 110 106 vhcurveto
          155 116 -142 56 89 3 142 49 hhcurveto
          39 34 -18 -36 -155 -100 -109 -126 hvcurveto
          -116 -113 141 -77 -85 0 -141 -41 hhcurveto
          -39 -34 17 36 hvcurveto
          endchar
        </CharString>
        <CharString name="J">
          20 965 443 rmoveto
          -419 -220 -182 -284 -204 -172 111 140 vhcurveto
          133 vlineto
          77 33 40 84 64 57 -32 -62 vhcurveto
          -127 vlineto
          -49 1 70 -42 82 hhcurveto
          116 140 92 294 hvcurveto
          1121 -322 vlineto
          -51 -20 42 50 44 26 40 47 hvcurveto
          816 hlineto
          47 26 -40 -44 -50 -20 -42 -51 hvcurveto
          -265 hlineto
          endchar
        </CharString>
        <CharString name="Jcircumflex">
          20 965 443 rmoveto
          -419 -220 -182 -284 -204 -172 111 140 vhcurveto
          133 vlineto
          77 33 40 84 64 57 -32 -62 vhcurveto
          -127 vlineto
          -49 1 70 -42 82 hhcurveto
          116 140 92 294 hvcurveto
          1121 -322 vlineto
          -51 -20 42 50 44 26 40 47 hvcurveto
          816 hlineto
          47 26 -40 -44 -50 -20 -42 -51 hvcurveto
          -265 hlineto
          -145 802 rmoveto
          19 19 -6 -11 8 hvcurveto
          270 -414 rlineto
          7 -8 3 -9 -8 vvcurveto
          -24 -27 -19 -27 -12 -14 2 11 -8 vhcurveto
          -238 306 -238 -306 rlineto
          -11 -8 -14 -2 -12 hhcurveto
          -27 -27 19 24 8 3 9 7 8 hvcurveto
          270 414 rlineto
          11 8 19 6 19 hhcurveto
          endchar
        </CharString>
        <CharString name="K">
          719 36 84 rmoveto
          50 21 42 51 vhcurveto
          219 1362 -219 hlineto
          -51 -21 42 50 44 27 40 47 hvcurveto
          651 hlineto
          47 27 -40 -44 -50 -20 -42 -51 hvcurveto
          -203 -696 hlineto
          792 657 rlineto
          6 6 9 12 13 vvcurveto
          15 -11 7 -22 vhcurveto
          -70 hlineto
          -48 -23 26 52 44 26 40 47 hvcurveto
          529 hlineto
          47 26 -40 -44 -50 -20 -42 -51 hvcurveto
          -158 hlineto
          -606 -522 786 -840 rlineto
          142 hlineto
          51 20 -42 -50 -44 -26 -40 -47 hvcurveto
          -611 hlineto
          -47 -26 40 44 50 20 42 51 hvcurveto
          199 hlineto
          -662 735 -323 -249 rlineto
          -486 284 vlineto
          51 21 -42 -50 -44 -27 -40 -47 hvcurveto
          -733 hlineto
          -47 -27 40 44 hvcurveto
          endchar
        </CharString>
        <CharString name="Kcommaaccent">
          719 36 84 rmoveto
          50 21 42 51 vhcurveto
          219 1362 -219 hlineto
          -51 -21 42 50 44 27 40 47 hvcurveto
          651 hlineto
          47 27 -40 -44 -50 -20 -42 -51 hvcurveto
          -203 -696 hlineto
          792 657 rlineto
          6 6 9 12 13 vvcurveto
          15 -11 7 -22 vhcurveto
          -70 hlineto
          -48 -23 26 52 44 26 40 47 hvcurveto
          529 hlineto
          47 26 -40 -44 -50 -20 -42 -51 hvcurveto
          -158 hlineto
          -606 -522 786 -840 rlineto
          142 hlineto
          51 20 -42 -50 -44 -26 -40 -47 hvcurveto
          -611 hlineto
          -47 -26 40 44 50 20 42 51 hvcurveto
          199 hlineto
          -662 735 -323 -249 rlineto
          -486 284 vlineto
          51 21 -42 -50 -44 -27 -40 -47 hvcurveto
          -733 hlineto
          -47 -27 40 44 hvcurveto
          992 -186 rmoveto
          110 95 -74 -148 -211 -123 -134 -151 -76 hvcurveto
          -9 -16 -17 -4 -14 hhcurveto
          -43 -32 33 35 18 9 19 22 15 hvcurveto
          77 51 101 66 114 vvcurveto
          -108 -80 48 102 103 82 52 88 hvcurveto
          endchar
        </CharString>
        <CharString name="L">
          525 938 1630 rmoveto
          -50 -21 -42 -51 vhcurveto
          -223 -1362 704 hlineto
          114 92 21 106 9 hvcurveto
          29 281 rlineto
          44 5 30 19 47 hhcurveto
          49 43 -27 -53 hvcurveto
          -45 -499 rlineto
          -38 -4 -20 -30 -37 hhcurveto
          -1549 hlineto
          -47 -27 40 44 50 21 42 51 hvcurveto
          301 1362 -239 hlineto
          -51 -21 42 50 44 27 40 47 hvcurveto
          692 hlineto
          47 27 -40 -44 hvcurveto
          endchar
        </CharString>
        <CharString name="Lacute">
          525 938 1630 rmoveto
          -50 -21 -42 -51 vhcurveto
          -223 -1362 704 hlineto
          114 92 21 106 9 hvcurveto
          29 281 rlineto
          44 5 30 19 47 hhcurveto
          49 43 -27 -53 hvcurveto
          -45 -499 rlineto
          -38 -4 -20 -30 -37 hhcurveto
          -1549 hlineto
          -47 -27 40 44 50 21 42 51 hvcurveto
          301 1362 -239 hlineto
          -51 -21 42 50 44 27 40 47 hvcurveto
          692 hlineto
          47 27 -40 -44 hvcurveto
          -168 654 rmoveto
          42 42 -43 -41 -18 -8 -15 -18 -12 hvcurveto
          -158 -99 -177 -115 -163 -93 rrcurveto
          -4 -7 -7 -3 -5 hhcurveto
          -26 -23 27 25 14 6 9 11 7 hvcurveto
          150 100 164 129 136 117 rrcurveto
          10 11 14 5 16 hhcurveto
          endchar
        </CharString>
        <CharString name="Lcaron">
          525 938 1630 rmoveto
          -50 -21 -42 -51 vhcurveto
          -223 -1362 704 hlineto
          114 92 21 106 9 hvcurveto
          29 281 rlineto
          44 5 30 19 47 hhcurveto
          49 43 -27 -53 hvcurveto
          -45 -499 rlineto
          -38 -4 -20 -30 -37 hhcurveto
          -1549 hlineto
          -47 -27 40 44 50 21 42 51 hvcurveto
          301 1362 -239 hlineto
          -51 -21 42 50 44 27 40 47 hvcurveto
          692 hlineto
          47 27 -40 -44 hvcurveto
          472 109 rmoveto
          110 95 -74 -148 -211 -123 -134 -151 -76 hvcurveto
          -9 -16 -17 -4 -14 hhcurveto
          -43 -32 33 35 18 9 19 22 15 hvcurveto
          77 51 101 66 114 vvcurveto
          -108 -80 48 102 103 82 52 88 hvcurveto
          endchar
        </CharString>
        <CharString name="Lcommaaccent">
          525 938 1630 rmoveto
          -50 -21 -42 -51 vhcurveto
          -223 -1362 704 hlineto
          114 92 21 106 9 hvcurveto
          29 281 rlineto
          44 5 30 19 47 hhcurveto
          49 43 -27 -53 hvcurveto
          -45 -499 rlineto
          -38 -4 -20 -30 -37 hhcurveto
          -1549 hlineto
          -47 -27 40 44 50 21 42 51 hvcurveto
          301 1362 -239 hlineto
          -51 -21 42 50 44 27 40 47 hvcurveto
          692 hlineto
          47 27 -40 -44 hvcurveto
          -61 -1732 rmoveto
          110 95 -74 -148 -211 -123 -134 -151 -76 hvcurveto
          -9 -16 -17 -4 -14 hhcurveto
          -43 -32 33 35 18 9 19 22 15 hvcurveto
          77 51 101 66 114 vvcurveto
          -108 -80 48 102 103 82 52 88 hvcurveto
          endchar
        </CharString>
        <CharString name="Ldot">
          525 938 1630 rmoveto
          -50 -21 -42 -51 vhcurveto
          -223 -1362 704 hlineto
          114 92 21 106 9 hvcurveto
          29 281 rlineto
          44 5 30 19 47 hhcurveto
          49 43 -27 -53 hvcurveto
          -45 -499 rlineto
          -38 -4 -20 -30 -37 hhcurveto
          -1549 hlineto
          -47 -27 40 44 50 21 42 51 hvcurveto
          301 1362 -239 hlineto
          -51 -21 42 50 44 27 40 47 hvcurveto
          692 hlineto
          47 27 -40 -44 hvcurveto
          238 -972 rmoveto
          -122 -89 90 121 122 90 89 121 122 89 -90 -121 -122 -90 -89 -121 hvcurveto
          endchar
        </CharString>
        <CharString name="Lslash">
          557 970 1630 rmoveto
          -50 -21 -42 -51 vhcurveto
          -223 -389 hlineto
          262 101 rlineto
          6 21 18 3 16 hhcurveto
          50 18 -31 -33 -35 -20 -38 -24 -7 hvcurveto
          -341 -131 rlineto
          -808 704 vlineto
          114 92 21 106 9 hvcurveto
          29 281 rlineto
          44 5 30 19 47 hhcurveto
          49 43 -27 -53 hvcurveto
          -45 -499 rlineto
          -38 -4 -20 -30 -37 hhcurveto
          -1549 hlineto
          -47 -27 40 44 50 21 42 51 hvcurveto
          301 717 hlineto
          -131 -50 rlineto
          -7 -24 -20 -3 -17 hhcurveto
          -52 -19 31 33 34 19 36 26 8 hvcurveto
          218 84 rlineto
          479 -239 vlineto
          -51 -21 42 50 44 27 40 47 hvcurveto
          692 hlineto
          47 27 -40 -44 hvcurveto
          endchar
        </CharString>
        <CharString name="M">
          1104 1640 84 rmoveto
          50 21 42 51 vhcurveto
          182 1059 hlineto
          -604 -1133 rlineto
          -35 -13 -35 -30 -46 hhcurveto
          -41 -35 26 29 -14 hvcurveto
          -566 1157 rlineto
          -1073 203 vlineto
          51 21 -42 -50 -44 -27 -40 -47 hvcurveto
          -631 hlineto
          -47 -27 40 44 50 21 42 51 hvcurveto
          223 1362 -202 hlineto
          -51 -21 42 50 44 27 40 47 hvcurveto
          336 hlineto
          36 19 -26 -25 12 hvcurveto
          662 -1335 706 1343 rlineto
          23 12 20 20 34 hhcurveto
          319 hlineto
          47 27 -40 -44 -50 -21 -42 -51 hvcurveto
          -182 -1362 203 hlineto
          51 20 -42 -50 -44 -26 -40 -47 hvcurveto
          -594 hlineto
          -47 -27 40 44 hvcurveto
          endchar
        </CharString>
        <CharString name="N">
          711 36 1630 rmoveto
          44 27 40 47 vhcurveto
          463 hlineto
          32 15 -10 -25 12 hvcurveto
          879 -1253 rlineto
          1112 -180 vlineto
          -51 -21 42 50 44 27 40 47 hvcurveto
          582 hlineto
          47 26 -40 -44 -50 -20 -42 -51 hvcurveto
          -199 -1485 hlineto
          -51 -41 -39 -49 -43 -29 24 29 -20 vhcurveto
          -1018 1440 rlineto
          -1280 176 vlineto
          51 21 -42 -50 -44 -27 -40 -47 hvcurveto
          -582 hlineto
          -47 -27 40 44 50 21 42 51 hvcurveto
          199 1362 -199 hlineto
          -51 -21 42 50 hvcurveto
          endchar
        </CharString>
        <CharString name="Nacute">
          711 36 1630 rmoveto
          44 27 40 47 vhcurveto
          463 hlineto
          32 15 -10 -25 12 hvcurveto
          879 -1253 rlineto
          1112 -180 vlineto
          -51 -21 42 50 44 27 40 47 hvcurveto
          582 hlineto
          47 26 -40 -44 -50 -20 -42 -51 hvcurveto
          -199 -1485 hlineto
          -51 -41 -39 -49 -43 -29 24 29 -20 vhcurveto
          -1018 1440 rlineto
          -1280 176 vlineto
          51 21 -42 -50 -44 -27 -40 -47 hvcurveto
          -582 hlineto
          -47 -27 40 44 50 21 42 51 hvcurveto
          199 1362 -199 hlineto
          -51 -21 42 50 hvcurveto
          1189 654 rmoveto
          42 42 -43 -41 -18 -8 -15 -18 -12 hvcurveto
          -158 -99 -177 -115 -163 -93 rrcurveto
          -4 -7 -7 -3 -5 hhcurveto
          -26 -23 27 25 14 6 9 11 7 hvcurveto
          150 100 164 129 136 117 rrcurveto
          10 11 14 5 16 hhcurveto
          endchar
        </CharString>
        <CharString name="Ncaron">
          711 36 1630 rmoveto
          44 27 40 47 vhcurveto
          463 hlineto
          32 15 -10 -25 12 hvcurveto
          879 -1253 rlineto
          1112 -180 vlineto
          -51 -21 42 50 44 27 40 47 hvcurveto
          582 hlineto
          47 26 -40 -44 -50 -20 -42 -51 hvcurveto
          -199 -1485 hlineto
          -51 -41 -39 -49 -43 -29 24 29 -20 vhcurveto
          -1018 1440 rlineto
          -1280 176 vlineto
          51 21 -42 -50 -44 -27 -40 -47 hvcurveto
          -582 hlineto
          -47 -27 40 44 50 21 42 51 hvcurveto
          199 1362 -199 hlineto
          -51 -21 42 50 hvcurveto
          977 211 rmoveto
          -19 -19 6 11 -8 hvcurveto
          -270 414 rlineto
          -7 8 -3 9 8 vvcurveto
          24 27 19 27 12 14 -2 -11 8 vhcurveto
          238 -306 238 306 rlineto
          11 8 14 2 12 hhcurveto
          27 27 -19 -24 -8 -3 -9 -7 -8 hvcurveto
          -270 -414 rlineto
          -11 -8 -19 -6 -19 hhcurveto
          endchar
        </CharString>
        <CharString name="Ncommaaccent">
          711 36 1630 rmoveto
          44 27 40 47 vhcurveto
          463 hlineto
          32 15 -10 -25 12 hvcurveto
          879 -1253 rlineto
          1112 -180 vlineto
          -51 -21 42 50 44 27 40 47 hvcurveto
          582 hlineto
          47 26 -40 -44 -50 -20 -42 -51 hvcurveto
          -199 -1485 hlineto
          -51 -41 -39 -49 -43 -29 24 29 -20 vhcurveto
          -1018 1440 rlineto
          -1280 176 vlineto
          51 21 -42 -50 -44 -27 -40 -47 hvcurveto
          -582 hlineto
          -47 -27 40 44 50 21 42 51 hvcurveto
          199 1362 -199 hlineto
          -51 -21 42 50 hvcurveto
          998 -1710 rmoveto
          110 95 -74 -148 -211 -123 -134 -151 -76 hvcurveto
          -9 -16 -17 -4 -14 hhcurveto
          -43 -32 33 35 18 9 19 22 15 hvcurveto
          77 51 101 66 114 vvcurveto
          -108 -80 48 102 103 82 52 88 hvcurveto
          endchar
        </CharString>
        <CharString name="Ntilde">
          711 36 1630 rmoveto
          44 27 40 47 vhcurveto
          463 hlineto
          32 15 -10 -25 12 hvcurveto
          879 -1253 rlineto
          1112 -180 vlineto
          -51 -21 42 50 44 27 40 47 hvcurveto
          582 hlineto
          47 26 -40 -44 -50 -20 -42 -51 hvcurveto
          -199 -1485 hlineto
          -51 -41 -39 -49 -43 -29 24 29 -20 vhcurveto
          -1018 1440 rlineto
          -1280 176 vlineto
          51 21 -42 -50 -44 -27 -40 -47 hvcurveto
          -582 hlineto
          -47 -27 40 44 50 21 42 51 hvcurveto
          199 1362 -199 hlineto
          -51 -21 42 50 hvcurveto
          611 264 rmoveto
          155 84 110 106 vhcurveto
          155 116 -142 56 89 3 142 49 hhcurveto
          39 34 -18 -36 -155 -100 -109 -126 hvcurveto
          -116 -113 141 -77 -85 0 -141 -41 hhcurveto
          -39 -34 17 36 hvcurveto
          endchar
        </CharString>
        <CharString name="O">
          627 966 -25 rmoveto
          -524 -365 345 530 532 365 357 524 530 367 -357 -532 -530 -369 -345 -528 hvcurveto
          -9 1575 rmoveto
          -399 -231 -294 -406 -406 237 -280 410 401 240 274 410 414 -246 288 -412 hvcurveto
          endchar
        </CharString>
        <CharString name="OE">
          1734 950 -25 rmoveto
          -516 -360 345 530 532 360 357 516 272 263 -130 -222 104 hvcurveto
          327 1197 vlineto
          48 18 -31 -47 16 hvcurveto
          96 -317 rlineto
          4 -15 2 -13 -11 vvcurveto
          -44 -30 -30 -43 -50 -36 34 42 -17 vhcurveto
          -108 256 rlineto
          -864 -571 334 hlineto
          51 186 rlineto
          37 11 27 31 42 hhcurveto
          45 25 -33 -47 hvcurveto
          -15 -242 15 -250 rlineto
          -47 -25 -33 -45 -42 -27 31 37 -11 vhcurveto
          -51 186 rlineto
          -334 -647 864 hlineto
          116 330 rlineto
          42 19 32 34 52 hhcurveto
          44 29 -28 -46 -14 -2 -13 -4 -12 hvcurveto
          -63 -391 rlineto
          -48 -14 -20 -30 -48 hhcurveto
          -1238 311 hlineto
          -203 -84 -284 -133 -271 hhcurveto
          -9 1575 rmoveto
          -391 -226 -294 -406 -406 232 -280 402 395 236 274 410 414 -242 288 -406 hvcurveto
          endchar
        </CharString>
        <CharString name="Oacute">
          627 966 -25 rmoveto
          -524 -365 345 530 532 365 357 524 530 367 -357 -532 -530 -369 -345 -528 hvcurveto
          -9 1575 rmoveto
          -399 -231 -294 -406 -406 237 -280 410 401 240 274 410 414 -246 288 -412 hvcurveto
          221 734 rmoveto
          42 42 -43 -41 -18 -8 -15 -18 -12 hvcurveto
          -158 -99 -177 -115 -163 -93 rrcurveto
          -4 -7 -7 -3 -5 hhcurveto
          -26 -23 27 25 14 6 9 11 7 hvcurveto
          150 100 164 129 136 117 rrcurveto
          10 11 14 5 16 hhcurveto
          endchar
        </CharString>
        <CharString name="Obreve">
          627 966 -25 rmoveto
          -524 -365 345 530 532 365 357 524 530 367 -357 -532 -530 -369 -345 -528 hvcurveto
          -9 1575 rmoveto
          -399 -231 -294 -406 -406 237 -280 410 401 240 274 410 414 -246 288 -412 hvcurveto
          -199 634 rmoveto
          -120 46 81 -60 81 hhcurveto
          81 81 60 120 46 hvcurveto
          16 6 14 5 13 hhcurveto
          26 29 -25 -22 -211 -148 -106 -148 -148 -148 106 211 22 29 25 26 13 14 -5 -16 6 hvcurveto
          endchar
        </CharString>
        <CharString name="Ocircumflex">
          627 966 -25 rmoveto
          -524 -365 345 530 532 365 357 524 530 367 -357 -532 -530 -369 -345 -528 hvcurveto
          -9 1575 rmoveto
          -399 -231 -294 -406 -406 237 -280 410 401 240 274 410 414 -246 288 -412 hvcurveto
          9 790 rmoveto
          19 19 -6 -11 8 hvcurveto
          270 -414 rlineto
          7 -8 3 -9 -8 vvcurveto
          -24 -27 -19 -27 -12 -14 2 11 -8 vhcurveto
          -238 306 -238 -306 rlineto
          -11 -8 -14 -2 -12 hhcurveto
          -27 -27 19 24 8 3 9 7 8 hvcurveto
          270 414 rlineto
          11 8 19 6 19 hhcurveto
          endchar
        </CharString>
        <CharString name="Odieresis">
          627 966 -25 rmoveto
          -524 -365 345 530 532 365 357 524 530 367 -357 -532 -530 -369 -345 -528 hvcurveto
          -9 1575 rmoveto
          -399 -231 -294 -406 -406 237 -280 410 401 240 274 410 414 -246 288 -412 hvcurveto
          -236 291 rmoveto
          -73 -61 60 73 73 61 60 73 73 60 -60 -73 -73 -60 -60 -73 hvcurveto
          491 hmoveto
          -73 -60 60 73 73 60 60 73 73 60 -60 -73 -73 -60 -60 -73 hvcurveto
          endchar
        </CharString>
        <CharString name="Ograve">
          627 966 -25 rmoveto
          -524 -365 345 530 532 365 357 524 530 367 -357 -532 -530 -369 -345 -528 hvcurveto
          -9 1575 rmoveto
          -399 -231 -294 -406 -406 237 -280 410 401 240 274 410 414 -246 288 -412 hvcurveto
          305 343 rmoveto
          -25 -23 -27 -26 -7 -6 3 4 -5 vhcurveto
          -162 93 -179 116 -157 98 rrcurveto
          -18 12 -9 15 18 vvcurveto
          41 42 43 42 16 14 -5 -10 11 vhcurveto
          136 -117 165 -129 150 -100 rrcurveto
          11 -7 5 -9 -14 vvcurveto
          endchar
        </CharString>
        <CharString name="Ohungarumlaut">
          627 966 -25 rmoveto
          -524 -365 345 530 532 365 357 524 530 367 -357 -532 -530 -369 -345 -528 hvcurveto
          -9 1575 rmoveto
          -399 -231 -294 -406 -406 237 -280 410 401 240 274 410 414 -246 288 -412 hvcurveto
          34 734 rmoveto
          42 42 -43 -41 -18 -8 -15 -18 -12 hvcurveto
          -158 -99 -177 -115 -163 -93 rrcurveto
          -4 -7 -7 -3 -5 hhcurveto
          -26 -23 27 25 14 6 9 11 7 hvcurveto
          150 100 164 129 136 117 rrcurveto
          10 11 14 5 16 hhcurveto
          375 hmoveto
          42 42 -43 -41 -18 -9 -15 -18 -12 hvcurveto
          -158 -99 -176 -115 -163 -93 rrcurveto
          -4 -7 -7 -3 -5 hhcurveto
          -26 -23 27 25 14 6 9 11 7 hvcurveto
          150 100 164 129 136 117 rrcurveto
          10 11 14 5 16 hhcurveto
          endchar
        </CharString>
        <CharString name="Omacron">
          627 966 -25 rmoveto
          -524 -365 345 530 532 365 357 524 530 367 -357 -532 -530 -369 -345 -528 hvcurveto
          -9 1575 rmoveto
          -399 -231 -294 -406 -406 237 -280 410 401 240 274 410 414 -246 288 -412 hvcurveto
          278 291 rmoveto
          -530 hlineto
          -55 -27 40 39 39 26 38 50 hvcurveto
          538 hlineto
          48 24 -38 -39 -39 -25 -40 -49 hvcurveto
          endchar
        </CharString>
        <CharString name="Oslash">
          627 957 1550 rmoveto
          85 78 -12 -23 70 hvcurveto
          -595 -1245 rlineto
          -173 117 -95 207 256 vvcurveto
          406 231 294 399 vhcurveto
          17 -1386 rmoveto
          -80 -73 11 20 -66 hvcurveto
          593 1241 rlineto
          171 -121 96 -209 -258 vvcurveto
          -410 -240 -274 -401 vhcurveto
          -475 -505 rmoveto
          170 357 rlineto
          -27 92 99 -14 106 hhcurveto
          528 369 345 530 353 -162 276 -263 146 hvcurveto
          163 342 rlineto
          4 10 2 8 10 vvcurveto
          50 -56 36 -46 -30 -21 -13 -26 -11 vhcurveto
          -167 -348 rlineto
          29 -95 -104 16 -111 hhcurveto
          -524 -365 -357 -532 -354 163 -272 265 -141 hvcurveto
          -170 -355 rlineto
          -5 -10 -3 -10 -11 vvcurveto
          -48 58 -38 47 35 17 19 29 15 vhcurveto
          endchar
        </CharString>
        <CharString name="Otilde">
          627 966 -25 rmoveto
          -524 -365 345 530 532 365 357 524 530 367 -357 -532 -530 -369 -345 -528 hvcurveto
          -9 1575 rmoveto
          -399 -231 -294 -406 -406 237 -280 410 401 240 274 410 414 -246 288 -412 hvcurveto
          -357 344 rmoveto
          155 84 110 106 vhcurveto
          155 116 -142 56 89 3 142 49 hhcurveto
          39 34 -18 -36 -155 -100 -109 -126 hvcurveto
          -116 -113 141 -77 -85 0 -141 -41 hhcurveto
          -39 -34 17 36 hvcurveto
          endchar
        </CharString>
        <CharString name="P">
          427 1435 1223 rmoveto
          315 -341 0 -281 vhcurveto
          -207 -649 268 hlineto
          288 273 14 320 hvcurveto
          236 -15 rmoveto
          -463 -422 -20 -428 vhcurveto
          -215 -549 305 hlineto
          51 21 -42 -50 -44 -27 -40 -47 hvcurveto
          -799 hlineto
          -47 -27 40 44 50 21 42 51 hvcurveto
          264 1362 -243 hlineto
          -51 -21 42 50 44 27 40 47 hvcurveto
          653 hlineto
          447 440 -26 -480 hvcurveto
          endchar
        </CharString>
        <CharString name="Q">
          635 974 1550 rmoveto
          -403 -232 -295 -405 -406 233 -280 402 410 245 275 411 413 -245 287 -410 hvcurveto
          166 -1563 rmoveto
          228 -148 rlineto
          -17 33 37 -5 38 hhcurveto
          60 71 29 59 82 hvcurveto
          8 12 14 4 15 hhcurveto
          56 53 -53 -55 -123 -271 -70 -104 -267 -120 293 70 -199 hvcurveto
          -477 39 -324 334 498 vvcurveto
          532 367 357 530 530 367 -357 -532 -473 -292 -325 -439 -65 vhcurveto
          endchar
        </CharString>
        <CharString name="R">
          515 749 942 rmoveto
          305 271 5 292 298 -316 1 -297 hvcurveto
          -147 -596 hlineto
          1003 307 rmoveto
          -273 -200 -104 -260 -45 vhcurveto
          127 -56 95 -85 60 -146 150 -363 rcurveline
          147 hlineto
          80 28 -24 -69 -75 -44 -10 -63 hvcurveto
          -434 1 rlineto
          -47 -27 40 44 50 21 43 51 hvcurveto
          49 hlineto
          -112 283 rlineto
          151 -60 -138 153 -199 hhcurveto
          -227 -587 264 hlineto
          51 21 -43 -50 -44 -27 -40 -47 hvcurveto
          -717 hlineto
          -47 -27 40 44 50 21 43 51 hvcurveto
          223 1361 -182 hlineto
          -51 -21 42 50 44 27 40 47 hvcurveto
          592 hlineto
          435 390 -36 -429 hvcurveto
          endchar
        </CharString>
        <CharString name="Racute">
          515 749 942 rmoveto
          305 271 5 292 298 -316 1 -297 hvcurveto
          -147 -596 hlineto
          1003 307 rmoveto
          -273 -200 -104 -260 -45 vhcurveto
          127 -56 95 -85 60 -146 150 -363 rcurveline
          147 hlineto
          80 28 -24 -69 -75 -44 -10 -63 hvcurveto
          -434 1 rlineto
          -47 -27 40 44 50 21 43 51 hvcurveto
          49 hlineto
          -112 283 rlineto
          151 -60 -138 153 -199 hhcurveto
          -227 -587 264 hlineto
          51 21 -43 -50 -44 -27 -40 -47 hvcurveto
          -717 hlineto
          -47 -27 40 44 50 21 43 51 hvcurveto
          223 1361 -182 hlineto
          -51 -21 42 50 44 27 40 47 hvcurveto
          592 hlineto
          435 390 -36 -429 hvcurveto
          -397 1035 rmoveto
          42 42 -43 -41 -18 -8 -15 -18 -12 hvcurveto
          -158 -99 -177 -115 -163 -93 rrcurveto
          -4 -7 -7 -3 -5 hhcurveto
          -26 -23 27 25 14 6 9 11 7 hvcurveto
          150 100 164 129 136 117 rrcurveto
          10 11 14 5 16 hhcurveto
          endchar
        </CharString>
        <CharString name="Rcaron">
          515 749 942 rmoveto
          305 271 5 292 298 -316 1 -297 hvcurveto
          -147 -596 hlineto
          1003 307 rmoveto
          -273 -200 -104 -260 -45 vhcurveto
          127 -56 95 -85 60 -146 150 -363 rcurveline
          147 hlineto
          80 28 -24 -69 -75 -44 -10 -63 hvcurveto
          -434 1 rlineto
          -47 -27 40 44 50 21 43 51 hvcurveto
          49 hlineto
          -112 283 rlineto
          151 -60 -138 153 -199 hhcurveto
          -227 -587 264 hlineto
          51 21 -43 -50 -44 -27 -40 -47 hvcurveto
          -717 hlineto
          -47 -27 40 44 50 21 43 51 hvcurveto
          223 1361 -182 hlineto
          -51 -21 42 50 44 27 40 47 hvcurveto
          592 hlineto
          435 390 -36 -429 hvcurveto
          -753 592 rmoveto
          -19 -19 6 11 -8 hvcurveto
          -270 414 rlineto
          -7 8 -3 9 8 vvcurveto
          24 27 19 27 12 14 -2 -11 8 vhcurveto
          238 -306 238 306 rlineto
          11 8 14 2 12 hhcurveto
          27 27 -19 -24 -8 -3 -9 -7 -8 hvcurveto
          -270 -414 rlineto
          -11 -8 -19 -6 -19 hhcurveto
          endchar
        </CharString>
        <CharString name="Rcommaaccent">
          515 749 942 rmoveto
          305 271 5 292 298 -316 1 -297 hvcurveto
          -147 -596 hlineto
          1003 307 rmoveto
          -273 -200 -104 -260 -45 vhcurveto
          127 -56 95 -85 60 -146 150 -363 rcurveline
          147 hlineto
          80 28 -24 -69 -75 -44 -10 -63 hvcurveto
          -434 1 rlineto
          -47 -27 40 44 50 21 43 51 hvcurveto
          49 hlineto
          -112 283 rlineto
          151 -60 -138 153 -199 hhcurveto
          -227 -587 264 hlineto
          51 21 -43 -50 -44 -27 -40 -47 hvcurveto
          -717 hlineto
          -47 -27 40 44 50 21 43 51 hvcurveto
          223 1361 -182 hlineto
          -51 -21 42 50 44 27 40 47 hvcurveto
          592 hlineto
          435 390 -36 -429 hvcurveto
          -638 -1319 rmoveto
          110 95 -74 -148 -211 -123 -134 -151 -76 hvcurveto
          -9 -16 -17 -4 -14 hhcurveto
          -43 -32 33 35 18 9 19 22 15 hvcurveto
          77 51 101 66 114 vvcurveto
          -108 -80 48 102 103 82 52 88 hvcurveto
          endchar
        </CharString>
        <CharString name="S">
          198 805 1581 rmoveto
          -322 -74 -142 -152 -130 90 -75 179 -44 hvcurveto
          287 -71 rlineto
          264 -66 181 -126 -317 vvcurveto
          -347 -321 -138 -351 -142 -154 34 88 -128 vhcurveto
          -46 -5 -21 -74 -46 hhcurveto
          -48 -31 19 45 -5 hvcurveto
          -57 496 rlineto
          53 32 26 64 40 35 -25 -40 5 vhcurveto
          16 -139 rlineto
          -124 13 200 -136 207 hhcurveto
          229 263 58 251 181 -125 49 -150 43 hvcurveto
          -328 93 rlineto
          -240 54 -174 122 270 vvcurveto
          293 261 175 323 140 158 -32 -80 97 vhcurveto
          56 39 55 55 40 35 -26 -40 5 vhcurveto
          7 -397 rlineto
          -58 -39 -24 -53 -47 -32 19 44 -5 vhcurveto
          -4 116 rlineto
          152 -18 -174 57 -171 hhcurveto
          endchar
        </CharString>
        <CharString name="Sacute">
          198 805 1581 rmoveto
          -322 -74 -142 -152 -130 90 -75 179 -44 hvcurveto
          287 -71 rlineto
          264 -66 181 -126 -317 vvcurveto
          -347 -321 -138 -351 -142 -154 34 88 -128 vhcurveto
          -46 -5 -21 -74 -46 hhcurveto
          -48 -31 19 45 -5 hvcurveto
          -57 496 rlineto
          53 32 26 64 40 35 -25 -40 5 vhcurveto
          16 -139 rlineto
          -124 13 200 -136 207 hhcurveto
          229 263 58 251 181 -125 49 -150 43 hvcurveto
          -328 93 rlineto
          -240 54 -174 122 270 vvcurveto
          293 261 175 323 140 158 -32 -80 97 vhcurveto
          56 39 55 55 40 35 -26 -40 5 vhcurveto
          7 -397 rlineto
          -58 -39 -24 -53 -47 -32 19 44 -5 vhcurveto
          -4 116 rlineto
          152 -18 -174 57 -171 hhcurveto
          273 707 rmoveto
          42 42 -43 -41 -18 -8 -15 -18 -12 hvcurveto
          -158 -99 -177 -115 -163 -93 rrcurveto
          -4 -7 -7 -3 -5 hhcurveto
          -26 -23 27 25 14 6 9 11 7 hvcurveto
          150 100 164 129 136 117 rrcurveto
          10 11 14 5 16 hhcurveto
          endchar
        </CharString>
        <CharString name="Scaron">
          198 805 1581 rmoveto
          -322 -74 -142 -152 -130 90 -75 179 -44 hvcurveto
          287 -71 rlineto
          264 -66 181 -126 -317 vvcurveto
          -347 -321 -138 -351 -142 -154 34 88 -128 vhcurveto
          -46 -5 -21 -74 -46 hhcurveto
          -48 -31 19 45 -5 hvcurveto
          -57 496 rlineto
          53 32 26 64 40 35 -25 -40 5 vhcurveto
          16 -139 rlineto
          -124 13 200 -136 207 hhcurveto
          229 263 58 251 181 -125 49 -150 43 hvcurveto
          -328 93 rlineto
          -240 54 -174 122 270 vvcurveto
          293 261 175 323 140 158 -32 -80 97 vhcurveto
          56 39 55 55 40 35 -26 -40 5 vhcurveto
          7 -397 rlineto
          -58 -39 -24 -53 -47 -32 19 44 -5 vhcurveto
          -4 116 rlineto
          152 -18 -174 57 -171 hhcurveto
          -29 264 rmoveto
          -19 -19 6 11 -8 hvcurveto
          -270 414 rlineto
          -7 8 -3 9 8 vvcurveto
          24 27 19 27 12 14 -2 -11 8 vhcurveto
          238 -306 238 306 rlineto
          11 8 14 2 12 hhcurveto
          27 27 -19 -24 -8 -3 -9 -7 -8 hvcurveto
          -270 -414 rlineto
          -11 -8 -19 -6 -19 hhcurveto
          endchar
        </CharString>
        <CharString name="Scedilla">
          198 805 1581 rmoveto
          -322 -74 -142 -152 -130 90 -75 179 -44 hvcurveto
          287 -71 rlineto
          264 -66 181 -126 -317 vvcurveto
          -347 -321 -138 -351 -142 -154 34 88 -128 vhcurveto
          -46 -5 -21 -74 -46 hhcurveto
          -48 -31 19 45 -5 hvcurveto
          -57 496 rlineto
          53 32 26 64 40 35 -25 -40 5 vhcurveto
          16 -139 rlineto
          -124 13 200 -136 207 hhcurveto
          229 263 58 251 181 -125 49 -150 43 hvcurveto
          -328 93 rlineto
          -240 54 -174 122 270 vvcurveto
          293 261 175 323 140 158 -32 -80 97 vhcurveto
          56 39 55 55 40 35 -26 -40 5 vhcurveto
          7 -397 rlineto
          -58 -39 -24 -53 -47 -32 19 44 -5 vhcurveto
          -4 116 rlineto
          152 -18 -174 57 -171 hhcurveto
          -3 -1586 rmoveto
          -60 -501 rlineto
          -118 -8 -69 -56 -65 hhcurveto
          -58 -54 46 91 66 156 423 30 49 hvcurveto
          endchar
        </CharString>
        <CharString name="Scommaaccent">
          198 805 1581 rmoveto
          -322 -74 -142 -152 -130 90 -75 179 -44 hvcurveto
          287 -71 rlineto
          264 -66 181 -126 -317 vvcurveto
          -347 -321 -138 -351 -142 -154 34 88 -128 vhcurveto
          -46 -5 -21 -74 -46 hhcurveto
          -48 -31 19 45 -5 hvcurveto
          -57 496 rlineto
          53 32 26 64 40 35 -25 -40 5 vhcurveto
          16 -139 rlineto
          -124 13 200 -136 207 hhcurveto
          229 263 58 251 181 -125 49 -150 43 hvcurveto
          -328 93 rlineto
          -240 54 -174 122 270 vvcurveto
          293 261 175 323 140 158 -32 -80 97 vhcurveto
          56 39 55 55 40 35 -26 -40 5 vhcurveto
          7 -397 rlineto
          -58 -39 -24 -53 -47 -32 19 44 -5 vhcurveto
          -4 116 rlineto
          152 -18 -174 57 -171 hhcurveto
          2 -1710 rmoveto
          110 95 -74 -148 -211 -123 -134 -151 -76 hvcurveto
          -9 -16 -17 -4 -14 hhcurveto
          -43 -32 33 35 18 9 19 22 15 hvcurveto
          77 51 101 66 114 vvcurveto
          -108 -80 48 102 103 82 52 88 hvcurveto
          endchar
        </CharString>
        <CharString name="T">
          349 102 1184 rmoveto
          -44 -24 32 48 hvcurveto
          15 372 rlineto
          52 2 14 26 45 hhcurveto
          1442 hlineto
          43 16 -27 -51 2 hvcurveto
          15 -372 rlineto
          -48 -24 -32 -44 -47 -30 17 50 -5 vhcurveto
          -31 287 rlineto
          -510 -1362 265 hlineto
          51 20 -42 -50 -44 -26 -40 -47 hvcurveto
          -758 hlineto
          -47 -27 40 44 50 21 42 51 hvcurveto
          264 1362 -490 hlineto
          -30 -287 rlineto
          -51 -5 -30 -16 -47 hhcurveto
          endchar
        </CharString>
        <CharString name="Tcaron">
          349 102 1184 rmoveto
          -44 -24 32 48 hvcurveto
          15 372 rlineto
          52 2 14 26 45 hhcurveto
          1442 hlineto
          43 16 -27 -51 2 hvcurveto
          15 -372 rlineto
          -48 -24 -32 -44 -47 -30 17 50 -5 vhcurveto
          -31 287 rlineto
          -510 -1362 265 hlineto
          51 20 -42 -50 -44 -26 -40 -47 hvcurveto
          -758 hlineto
          -47 -27 40 44 50 21 42 51 hvcurveto
          264 1362 -490 hlineto
          -30 -287 rlineto
          -51 -5 -30 -16 -47 hhcurveto
          729 657 rmoveto
          -19 -19 6 11 -8 hvcurveto
          -270 414 rlineto
          -7 8 -3 9 8 vvcurveto
          24 27 19 27 12 14 -2 -11 8 vhcurveto
          238 -306 238 306 rlineto
          11 8 14 2 12 hhcurveto
          27 27 -19 -24 -8 -3 -9 -7 -8 hvcurveto
          -270 -414 rlineto
          -11 -8 -19 -6 -19 hhcurveto
          endchar
        </CharString>
        <CharString name="Thorn">
          205 1545 907 rmoveto
          -436 -475 -11 -432 vhcurveto
          -284 305 vlineto
          51 21 -42 -50 -44 -27 -40 -47 hvcurveto
          -799 hlineto
          -47 -27 40 44 50 21 42 51 hvcurveto
          264 1360 -244 hlineto
          -51 -21 42 50 44 27 40 47 hvcurveto
          699 hlineto
          38 22 -40 -44 -50 -21 -42 -51 hvcurveto
          -211 -177 hlineto
          460 447 -1 -451 hvcurveto
          -236 10 rmoveto
          258 -216 16 -455 vhcurveto
          -567 vlineto
          467 204 11 282 hvcurveto
          endchar
        </CharString>
        <CharString name="U">
          539 944 -25 rmoveto
          -402 -280 232 397 hvcurveto
          934 -151 vlineto
          -51 -21 42 50 44 27 40 47 hvcurveto
          584 hlineto
          47 26 -40 -44 -50 -20 -42 -51 hvcurveto
          -203 -934 hlineto
          -286 160 -164 288 262 169 186 262 vhcurveto
          936 -191 vlineto
          -51 -21 42 50 44 27 40 47 hvcurveto
          553 hlineto
          47 27 -40 -44 -50 -21 -42 -51 hvcurveto
          -174 -936 hlineto
          -372 -252 -255 -371 vhcurveto
          endchar
        </CharString>
        <CharString name="Uacute">
          539 944 -25 rmoveto
          -402 -280 232 397 hvcurveto
          934 -151 vlineto
          -51 -21 42 50 44 27 40 47 hvcurveto
          584 hlineto
          47 26 -40 -44 -50 -20 -42 -51 hvcurveto
          -203 -934 hlineto
          -286 160 -164 288 262 169 186 262 vhcurveto
          936 -191 vlineto
          -51 -21 42 50 44 27 40 47 hvcurveto
          553 hlineto
          47 27 -40 -44 -50 -21 -42 -51 hvcurveto
          -174 -936 hlineto
          -372 -252 -255 -371 vhcurveto
          194 2309 rmoveto
          42 42 -43 -41 -18 -8 -15 -18 -12 hvcurveto
          -158 -99 -177 -115 -163 -93 rrcurveto
          -4 -7 -7 -3 -5 hhcurveto
          -26 -23 27 25 14 6 9 11 7 hvcurveto
          150 100 164 129 136 117 rrcurveto
          10 11 14 5 16 hhcurveto
          endchar
        </CharString>
        <CharString name="Ubreve">
          539 944 -25 rmoveto
          -402 -280 232 397 hvcurveto
          934 -151 vlineto
          -51 -21 42 50 44 27 40 47 hvcurveto
          584 hlineto
          47 26 -40 -44 -50 -20 -42 -51 hvcurveto
          -203 -934 hlineto
          -286 160 -164 288 262 169 186 262 vhcurveto
          936 -191 vlineto
          -51 -21 42 50 44 27 40 47 hvcurveto
          553 hlineto
          47 27 -40 -44 -50 -21 -42 -51 hvcurveto
          -174 -936 hlineto
          -372 -252 -255 -371 vhcurveto
          -226 2209 rmoveto
          -120 46 81 -60 81 hhcurveto
          81 81 60 120 46 hvcurveto
          16 6 14 5 13 hhcurveto
          26 29 -25 -22 -211 -148 -106 -148 -148 -148 106 211 22 29 25 26 13 14 -5 -16 6 hvcurveto
          endchar
        </CharString>
        <CharString name="Ucircumflex">
          539 944 -25 rmoveto
          -402 -280 232 397 hvcurveto
          934 -151 vlineto
          -51 -21 42 50 44 27 40 47 hvcurveto
          584 hlineto
          47 26 -40 -44 -50 -20 -42 -51 hvcurveto
          -203 -934 hlineto
          -286 160 -164 288 262 169 186 262 vhcurveto
          936 -191 vlineto
          -51 -21 42 50 44 27 40 47 hvcurveto
          553 hlineto
          47 27 -40 -44 -50 -21 -42 -51 hvcurveto
          -174 -936 hlineto
          -372 -252 -255 -371 vhcurveto
          -18 2365 rmoveto
          19 19 -6 -11 8 hvcurveto
          270 -414 rlineto
          7 -8 3 -9 -8 vvcurveto
          -24 -27 -19 -27 -12 -14 2 11 -8 vhcurveto
          -238 306 -238 -306 rlineto
          -11 -8 -14 -2 -12 hhcurveto
          -27 -27 19 24 8 3 9 7 8 hvcurveto
          270 414 rlineto
          11 8 19 6 19 hhcurveto
          endchar
        </CharString>
        <CharString name="Udieresis">
          539 944 -25 rmoveto
          -402 -280 232 397 hvcurveto
          934 -151 vlineto
          -51 -21 42 50 44 27 40 47 hvcurveto
          584 hlineto
          47 26 -40 -44 -50 -20 -42 -51 hvcurveto
          -203 -934 hlineto
          -286 160 -164 288 262 169 186 262 vhcurveto
          936 -191 vlineto
          -51 -21 42 50 44 27 40 47 hvcurveto
          553 hlineto
          47 27 -40 -44 -50 -21 -42 -51 hvcurveto
          -174 -936 hlineto
          -372 -252 -255 -371 vhcurveto
          -263 1866 rmoveto
          -73 -61 60 73 73 61 60 73 73 60 -60 -73 -73 -60 -60 -73 hvcurveto
          491 hmoveto
          -73 -60 60 73 73 60 60 73 73 60 -60 -73 -73 -60 -60 -73 hvcurveto
          endchar
        </CharString>
        <CharString name="Ugrave">
          539 944 -25 rmoveto
          -402 -280 232 397 hvcurveto
          934 -151 vlineto
          -51 -21 42 50 44 27 40 47 hvcurveto
          584 hlineto
          47 26 -40 -44 -50 -20 -42 -51 hvcurveto
          -203 -934 hlineto
          -286 160 -164 288 262 169 186 262 vhcurveto
          936 -191 vlineto
          -51 -21 42 50 44 27 40 47 hvcurveto
          553 hlineto
          47 27 -40 -44 -50 -21 -42 -51 hvcurveto
          -174 -936 hlineto
          -372 -252 -255 -371 vhcurveto
          278 1918 rmoveto
          -25 -23 -27 -26 -7 -6 3 4 -5 vhcurveto
          -162 93 -179 116 -157 98 rrcurveto
          -18 12 -9 15 18 vvcurveto
          41 42 43 42 16 14 -5 -10 11 vhcurveto
          136 -117 165 -129 150 -100 rrcurveto
          11 -7 5 -9 -14 vvcurveto
          endchar
        </CharString>
        <CharString name="Uhungarumlaut">
          539 944 -25 rmoveto
          -402 -280 232 397 hvcurveto
          934 -151 vlineto
          -51 -21 42 50 44 27 40 47 hvcurveto
          584 hlineto
          47 26 -40 -44 -50 -20 -42 -51 hvcurveto
          -203 -934 hlineto
          -286 160 -164 288 262 169 186 262 vhcurveto
          936 -191 vlineto
          -51 -21 42 50 44 27 40 47 hvcurveto
          553 hlineto
          47 27 -40 -44 -50 -21 -42 -51 hvcurveto
          -174 -936 hlineto
          -372 -252 -255 -371 vhcurveto
          7 2309 rmoveto
          42 42 -43 -41 -18 -8 -15 -18 -12 hvcurveto
          -158 -99 -177 -115 -163 -93 rrcurveto
          -4 -7 -7 -3 -5 hhcurveto
          -26 -23 27 25 14 6 9 11 7 hvcurveto
          150 100 164 129 136 117 rrcurveto
          10 11 14 5 16 hhcurveto
          375 hmoveto
          42 42 -43 -41 -18 -9 -15 -18 -12 hvcurveto
          -158 -99 -176 -115 -163 -93 rrcurveto
          -4 -7 -7 -3 -5 hhcurveto
          -26 -23 27 25 14 6 9 11 7 hvcurveto
          150 100 164 129 136 117 rrcurveto
          10 11 14 5 16 hhcurveto
          endchar
        </CharString>
        <CharString name="Umacron">
          539 944 -25 rmoveto
          -402 -280 232 397 hvcurveto
          934 -151 vlineto
          -51 -21 42 50 44 27 40 47 hvcurveto
          584 hlineto
          47 26 -40 -44 -50 -20 -42 -51 hvcurveto
          -203 -934 hlineto
          -286 160 -164 288 262 169 186 262 vhcurveto
          936 -191 vlineto
          -51 -21 42 50 44 27 40 47 hvcurveto
          553 hlineto
          47 27 -40 -44 -50 -21 -42 -51 hvcurveto
          -174 -936 hlineto
          -372 -252 -255 -371 vhcurveto
          251 1866 rmoveto
          -530 hlineto
          -55 -27 40 39 39 26 38 50 hvcurveto
          538 hlineto
          48 24 -38 -39 -39 -25 -40 -49 hvcurveto
          endchar
        </CharString>
        <CharString name="Uogonek">
          539 944 -25 rmoveto
          -402 -280 232 397 hvcurveto
          934 -151 vlineto
          -51 -21 42 50 44 27 40 47 hvcurveto
          584 hlineto
          47 26 -40 -44 -50 -20 -42 -51 hvcurveto
          -203 -934 hlineto
          -286 160 -164 288 262 169 186 262 vhcurveto
          936 -191 vlineto
          -51 -21 42 50 44 27 40 47 hvcurveto
          553 hlineto
          47 27 -40 -44 -50 -21 -42 -51 hvcurveto
          -174 -936 hlineto
          -372 -252 -255 -371 vhcurveto
          -114 -528 rmoveto
          -92 -70 43 115 72 66 175 170 141 hvcurveto
          79 hlineto
          9 -120 -192 -95 hvcurveto
          -111 137 25 -60 vvcurveto
          -51 -85 -62 -94 vhcurveto
          endchar
        </CharString>
        <CharString name="Uring">
          539 944 -25 rmoveto
          -402 -280 232 397 hvcurveto
          934 -151 vlineto
          -51 -21 42 50 44 27 40 47 hvcurveto
          584 hlineto
          47 26 -40 -44 -50 -20 -42 -51 hvcurveto
          -203 -934 hlineto
          -286 160 -164 288 262 169 186 262 vhcurveto
          936 -191 vlineto
          -51 -21 42 50 44 27 40 47 hvcurveto
          553 hlineto
          47 27 -40 -44 -50 -21 -42 -51 hvcurveto
          -174 -936 hlineto
          -372 -252 -255 -371 vhcurveto
          -14 2364 rmoveto
          165 82 -124 -124 -124 -86 -126 -166 -166 -84 122 123 126 88 127 167 hvcurveto
          3 -403 rmoveto
          94 44 70 82 82 -47 72 -95 -96 -46 -72 -82 -81 54 -71 92 hvcurveto
          endchar
        </CharString>
        <CharString name="Utilde">
          539 944 -25 rmoveto
          -402 -280 232 397 hvcurveto
          934 -151 vlineto
          -51 -21 42 50 44 27 40 47 hvcurveto
          584 hlineto
          47 26 -40 -44 -50 -20 -42 -51 hvcurveto
          -203 -934 hlineto
          -286 160 -164 288 262 169 186 262 vhcurveto
          936 -191 vlineto
          -51 -21 42 50 44 27 40 47 hvcurveto
          553 hlineto
          47 27 -40 -44 -50 -21 -42 -51 hvcurveto
          -174 -936 hlineto
          -372 -252 -255 -371 vhcurveto
          -384 1919 rmoveto
          155 84 110 106 vhcurveto
          155 116 -142 56 89 3 142 49 hhcurveto
          39 34 -18 -36 -155 -100 -109 -126 hvcurveto
          -116 -113 141 -77 -85 0 -141 -41 hhcurveto
          -39 -34 17 36 hvcurveto
          endchar
        </CharString>
        <CharString name="V">
          543 1839 1630 rmoveto
          -50 -20 -42 -51 vhcurveto
          -170 hlineto
          -551 -1509 rlineto
          -52 -23 -18 -30 -53 hhcurveto
          -52 -23 34 48 -18 hvcurveto
          -559 1509 rlineto
          -211 hlineto
          -51 -20 42 50 44 26 40 47 hvcurveto
          615 hlineto
          47 27 -40 -44 -50 -21 -42 -51 hvcurveto
          -162 hlineto
          434 -1206 412 1206 rlineto
          -162 hlineto
          -51 -21 42 50 44 27 40 47 hvcurveto
          533 hlineto
          47 26 -40 -44 hvcurveto
          endchar
        </CharString>
        <CharString name="W">
          1001 1655 1622 rmoveto
          50 21 42 51 vhcurveto
          497 hlineto
          51 21 -42 -50 -44 -27 -40 -47 hvcurveto
          -166 hlineto
          -436 -1499 rlineto
          -36 -14 -46 -30 -50 hhcurveto
          -51 -41 25 49 -7 hvcurveto
          -258 1088 -297 -1096 rlineto
          -37 -13 -51 -29 -50 hhcurveto
          -56 -39 25 53 -10 hvcurveto
          -383 1487 rlineto
          -164 hlineto
          -47 -26 40 44 50 20 42 51 hvcurveto
          498 hlineto
          51 21 -42 -50 -44 -27 -40 -47 hvcurveto
          -94 hlineto
          284 -1157 324 1157 rlineto
          -92 hlineto
          -47 -27 40 44 50 21 42 51 hvcurveto
          354 hlineto
          51 21 -42 -50 -44 -27 -40 -47 hvcurveto
          -100 hlineto
          278 -1137 316 1137 rlineto
          -121 hlineto
          -47 -27 40 44 hvcurveto
          endchar
        </CharString>
        <CharString name="X">
          638 1911 1630 rmoveto
          -50 -21 -42 -51 vhcurveto
          -166 hlineto
          -553 -643 619 -719 rlineto
          121 hlineto
          51 21 -42 -50 -44 -27 -40 -47 hvcurveto
          -676 hlineto
          -47 -27 40 44 50 21 42 51 hvcurveto
          278 hlineto
          -479 555 -477 -555 rlineto
          248 hlineto
          51 20 -42 -50 -44 -26 -40 -47 hvcurveto
          -656 hlineto
          -47 -26 40 44 50 20 42 51 hvcurveto
          183 hlineto
          591 688 -577 674 rlineto
          -135 hlineto
          -51 -21 42 50 44 27 40 47 hvcurveto
          594 hlineto
          47 26 -40 -44 -50 -20 -42 -51 hvcurveto
          -182 hlineto
          438 -510 438 510 rlineto
          -182 hlineto
          -51 -21 42 50 44 27 40 47 hvcurveto
          573 hlineto
          47 27 -40 -44 hvcurveto
          endchar
        </CharString>
        <CharString name="Y">
          511 1763 1630 rmoveto
          -50 -21 -42 -51 vhcurveto
          -139 hlineto
          -497 -815 rlineto
          -547 223 vlineto
          51 20 -42 -50 -44 -26 -40 -47 hvcurveto
          -717 hlineto
          -47 -27 40 44 50 21 42 51 hvcurveto
          264 563 hlineto
          -475 799 rlineto
          -211 hlineto
          -51 -21 42 50 44 27 40 47 hvcurveto
          594 hlineto
          47 27 -40 -44 -50 -21 -42 -51 hvcurveto
          -141 hlineto
          385 -647 381 647 rlineto
          -162 hlineto
          -51 -21 42 50 44 27 40 47 hvcurveto
          491 hlineto
          47 27 -40 -44 hvcurveto
          endchar
        </CharString>
        <CharString name="Yacute">
          511 1763 1630 rmoveto
          -50 -21 -42 -51 vhcurveto
          -139 hlineto
          -497 -815 rlineto
          -547 223 vlineto
          51 20 -42 -50 -44 -26 -40 -47 hvcurveto
          -717 hlineto
          -47 -27 40 44 50 21 42 51 hvcurveto
          264 563 hlineto
          -475 799 rlineto
          -211 hlineto
          -51 -21 42 50 44 27 40 47 hvcurveto
          594 hlineto
          47 27 -40 -44 -50 -21 -42 -51 hvcurveto
          -141 hlineto
          385 -647 381 647 rlineto
          -162 hlineto
          -51 -21 42 50 44 27 40 47 hvcurveto
          491 hlineto
          47 27 -40 -44 hvcurveto
          -638 654 rmoveto
          42 42 -43 -41 -18 -8 -15 -18 -12 hvcurveto
          -158 -99 -177 -115 -163 -93 rrcurveto
          -4 -7 -7 -3 -5 hhcurveto
          -26 -23 27 25 14 6 9 11 7 hvcurveto
          150 100 164 129 136 117 rrcurveto
          10 11 14 5 16 hhcurveto
          endchar
        </CharString>
        <CharString name="Ydieresis">
          511 1763 1630 rmoveto
          -50 -21 -42 -51 vhcurveto
          -139 hlineto
          -497 -815 rlineto
          -547 223 vlineto
          51 20 -42 -50 -44 -26 -40 -47 hvcurveto
          -717 hlineto
          -47 -27 40 44 50 21 42 51 hvcurveto
          264 563 hlineto
          -475 799 rlineto
          -211 hlineto
          -51 -21 42 50 44 27 40 47 hvcurveto
          594 hlineto
          47 27 -40 -44 -50 -21 -42 -51 hvcurveto
          -141 hlineto
          385 -647 381 647 rlineto
          -162 hlineto
          -51 -21 42 50 44 27 40 47 hvcurveto
          491 hlineto
          47 27 -40 -44 hvcurveto
          -1036 211 rmoveto
          -73 -61 60 73 73 61 60 73 73 60 -60 -73 -73 -60 -60 -73 hvcurveto
          491 hmoveto
          -73 -60 60 73 73 60 60 73 73 60 -60 -73 -73 -60 -60 -73 hvcurveto
          endchar
        </CharString>
        <CharString name="Z">
          333 151 1239 rmoveto
          -1 395 rlineto
          41 1 24 39 78 hhcurveto
          1130 hlineto
          47 27 -40 -44 -27 -4 -24 -12 -14 hvcurveto
          -1063 -1389 rlineto
          936 hlineto
          76 371 rlineto
          44 13 39 32 50 hhcurveto
          42 32 -29 -45 -14 -2 -13 -4 -12 hvcurveto
          -43 -432 rlineto
          -48 -14 -21 -30 -47 hhcurveto
          -1280 hlineto
          -43 -33 53 49 35 15 38 30 38 hvcurveto
          1018 1325 rlineto
          -797 hlineto
          -39 -297 rlineto
          -39 -14 -26 -37 -42 hhcurveto
          -41 -32 31 43 hvcurveto
          endchar
        </CharString>
        <CharString name="Zacute">
          333 151 1239 rmoveto
          -1 395 rlineto
          41 1 24 39 78 hhcurveto
          1130 hlineto
          47 27 -40 -44 -27 -4 -24 -12 -14 hvcurveto
          -1063 -1389 rlineto
          936 hlineto
          76 371 rlineto
          44 13 39 32 50 hhcurveto
          42 32 -29 -45 -14 -2 -13 -4 -12 hvcurveto
          -43 -432 rlineto
          -48 -14 -21 -30 -47 hhcurveto
          -1280 hlineto
          -43 -33 53 49 35 15 38 30 38 hvcurveto
          1018 1325 rlineto
          -797 hlineto
          -39 -297 rlineto
          -39 -14 -26 -37 -42 hhcurveto
          -41 -32 31 43 hvcurveto
          879 1045 rmoveto
          42 42 -43 -41 -18 -8 -15 -18 -12 hvcurveto
          -158 -99 -177 -115 -163 -93 rrcurveto
          -4 -7 -7 -3 -5 hhcurveto
          -26 -23 27 25 14 6 9 11 7 hvcurveto
          150 100 164 129 136 117 rrcurveto
          10 11 14 5 16 hhcurveto
          endchar
        </CharString>
        <CharString name="Zcaron">
          333 151 1239 rmoveto
          -1 395 rlineto
          41 1 24 39 78 hhcurveto
          1130 hlineto
          47 27 -40 -44 -27 -4 -24 -12 -14 hvcurveto
          -1063 -1389 rlineto
          936 hlineto
          76 371 rlineto
          44 13 39 32 50 hhcurveto
          42 32 -29 -45 -14 -2 -13 -4 -12 hvcurveto
          -43 -432 rlineto
          -48 -14 -21 -30 -47 hhcurveto
          -1280 hlineto
          -43 -33 53 49 35 15 38 30 38 hvcurveto
          1018 1325 rlineto
          -797 hlineto
          -39 -297 rlineto
          -39 -14 -26 -37 -42 hhcurveto
          -41 -32 31 43 hvcurveto
          667 602 rmoveto
          -19 -19 6 11 -8 hvcurveto
          -270 414 rlineto
          -7 8 -3 9 8 vvcurveto
          24 27 19 27 12 14 -2 -11 8 vhcurveto
          238 -306 238 306 rlineto
          11 8 14 2 12 hhcurveto
          27 27 -19 -24 -8 -3 -9 -7 -8 hvcurveto
          -270 -414 rlineto
          -11 -8 -19 -6 -19 hhcurveto
          endchar
        </CharString>
        <CharString name="Zdotaccent">
          333 151 1239 rmoveto
          -1 395 rlineto
          41 1 24 39 78 hhcurveto
          1130 hlineto
          47 27 -40 -44 -27 -4 -24 -12 -14 hvcurveto
          -1063 -1389 rlineto
          936 hlineto
          76 371 rlineto
          44 13 39 32 50 hhcurveto
          42 32 -29 -45 -14 -2 -13 -4 -12 hvcurveto
          -43 -432 rlineto
          -48 -14 -21 -30 -47 hhcurveto
          -1280 hlineto
          -43 -33 53 49 35 15 38 30 38 hvcurveto
          1018 1325 rlineto
          -797 hlineto
          -39 -297 rlineto
          -39 -14 -26 -37 -42 hhcurveto
          -41 -32 31 43 hvcurveto
          817 758 rmoveto
          -77 -60 -79 -89 -97 -53 79 77 73 48 72 104 vhcurveto
          0 vlineto
          92 55 -71 -74 hvcurveto
          endchar
        </CharString>
        <CharString name="a">
          15 1343 168 rmoveto
          -107 -189 -86 -91 -110 -66 52 110 -24 vhcurveto
          -113 -98 -166 -52 -179 hhcurveto
          -205 -153 135 200 359 439 22 335 29 hvcurveto
          162 vlineto
          105 -108 34 -103 -188 -65 -39 -82 -128 vhcurveto
          -7 -12 -11 -4 -12 hhcurveto
          -46 -42 52 47 161 309 42 166 339 100 -130 -335 hvcurveto
          -504 vlineto
          -41 13 -31 31 vhcurveto
          60 85 108 48 hhcurveto
          30 41 -50 -37 hvcurveto
          -507 399 rmoveto
          -212 -23 -347 -6 -225 vvcurveto
          -114 97 -54 116 140 114 58 73 92 vhcurveto
          endchar
        </CharString>
        <CharString name="aacute">
          15 1343 168 rmoveto
          -107 -189 -86 -91 -110 -66 52 110 -24 vhcurveto
          -113 -98 -166 -52 -179 hhcurveto
          -205 -153 135 200 359 439 22 335 29 hvcurveto
          162 vlineto
          105 -108 34 -103 -188 -65 -39 -82 -128 vhcurveto
          -7 -12 -11 -4 -12 hhcurveto
          -46 -42 52 47 161 309 42 166 339 100 -130 -335 hvcurveto
          -504 vlineto
          -41 13 -31 31 vhcurveto
          60 85 108 48 hhcurveto
          30 41 -50 -37 hvcurveto
          -507 399 rmoveto
          -212 -23 -347 -6 -225 vvcurveto
          -114 97 -54 116 140 114 58 73 92 vhcurveto
          -28 1457 rmoveto
          42 42 -43 -41 -18 -8 -15 -18 -12 hvcurveto
          -158 -99 -177 -115 -163 -93 rrcurveto
          -4 -7 -7 -3 -5 hhcurveto
          -26 -23 27 25 14 6 9 11 7 hvcurveto
          150 100 164 129 136 117 rrcurveto
          10 11 14 5 16 hhcurveto
          endchar
        </CharString>
        <CharString name="abreve">
          15 1343 168 rmoveto
          -107 -189 -86 -91 -110 -66 52 110 -24 vhcurveto
          -113 -98 -166 -52 -179 hhcurveto
          -205 -153 135 200 359 439 22 335 29 hvcurveto
          162 vlineto
          105 -108 34 -103 -188 -65 -39 -82 -128 vhcurveto
          -7 -12 -11 -4 -12 hhcurveto
          -46 -42 52 47 161 309 42 166 339 100 -130 -335 hvcurveto
          -504 vlineto
          -41 13 -31 31 vhcurveto
          60 85 108 48 hhcurveto
          30 41 -50 -37 hvcurveto
          -507 399 rmoveto
          -212 -23 -347 -6 -225 vvcurveto
          -114 97 -54 116 140 114 58 73 92 vhcurveto
          -448 1357 rmoveto
          -120 46 81 -60 81 hhcurveto
          81 81 60 120 46 hvcurveto
          16 6 14 5 13 hhcurveto
          26 29 -25 -22 -211 -148 -106 -148 -148 -148 106 211 22 29 25 26 13 14 -5 -16 6 hvcurveto
          endchar
        </CharString>
        <CharString name="acircumflex">
          15 1343 168 rmoveto
          -107 -189 -86 -91 -110 -66 52 110 -24 vhcurveto
          -113 -98 -166 -52 -179 hhcurveto
          -205 -153 135 200 359 439 22 335 29 hvcurveto
          162 vlineto
          105 -108 34 -103 -188 -65 -39 -82 -128 vhcurveto
          -7 -12 -11 -4 -12 hhcurveto
          -46 -42 52 47 161 309 42 166 339 100 -130 -335 hvcurveto
          -504 vlineto
          -41 13 -31 31 vhcurveto
          60 85 108 48 hhcurveto
          30 41 -50 -37 hvcurveto
          -507 399 rmoveto
          -212 -23 -347 -6 -225 vvcurveto
          -114 97 -54 116 140 114 58 73 92 vhcurveto
          -240 1513 rmoveto
          19 19 -6 -11 8 hvcurveto
          270 -414 rlineto
          7 -8 3 -9 -8 vvcurveto
          -24 -27 -19 -27 -12 -14 2 11 -8 vhcurveto
          -238 306 -238 -306 rlineto
          -11 -8 -14 -2 -12 hhcurveto
          -27 -27 19 24 8 3 9 7 8 hvcurveto
          270 414 rlineto
          11 8 19 6 19 hhcurveto
          endchar
        </CharString>
        <CharString name="acute">
          -680 517 1870 rmoveto
          42 42 -43 -41 -18 -8 -15 -18 -12 hvcurveto
          -158 -99 -177 -115 -163 -93 rrcurveto
          -4 -7 -7 -3 -5 hhcurveto
          -26 -23 27 25 14 6 9 11 7 hvcurveto
          150 100 164 129 136 117 rrcurveto
          10 11 14 5 16 hhcurveto
          endchar
        </CharString>
        <CharString name="adieresis">
          15 1343 168 rmoveto
          -107 -189 -86 -91 -110 -66 52 110 -24 vhcurveto
          -113 -98 -166 -52 -179 hhcurveto
          -205 -153 135 200 359 439 22 335 29 hvcurveto
          162 vlineto
          105 -108 34 -103 -188 -65 -39 -82 -128 vhcurveto
          -7 -12 -11 -4 -12 hhcurveto
          -46 -42 52 47 161 309 42 166 339 100 -130 -335 hvcurveto
          -504 vlineto
          -41 13 -31 31 vhcurveto
          60 85 108 48 hhcurveto
          30 41 -50 -37 hvcurveto
          -507 399 rmoveto
          -212 -23 -347 -6 -225 vvcurveto
          -114 97 -54 116 140 114 58 73 92 vhcurveto
          -485 1014 rmoveto
          -73 -61 60 73 73 61 60 73 73 60 -60 -73 -73 -60 -60 -73 hvcurveto
          491 hmoveto
          -73 -60 60 73 73 60 60 73 73 60 -60 -73 -73 -60 -60 -73 hvcurveto
          endchar
        </CharString>
        <CharString name="ae">
          677 1029 967 rmoveto
          137 82 140 84 203 hhcurveto
          247 214 -192 -268 -91 -73 -1 -90 -9 hvcurveto
          -643 -47 rlineto
          -242 5 142 -164 221 hhcurveto
          143 72 69 71 70 hvcurveto
          17 18 19 9 22 hhcurveto
          54 43 -35 -55 -165 -268 -110 -173 -209 -195 111 183 -76 hvcurveto
          -215 -73 -212 -79 -206 hhcurveto
          -233 -185 113 219 354 462 21 352 29 hvcurveto
          204 -41 103 -210 vhcurveto
          -202 -21 -121 -182 hhcurveto
          -56 -42 29 59 161 309 42 166 227 118 -65 -156 61 hvcurveto
          -129 -391 rmoveto
          -227 -24 -370 -6 -233 vvcurveto
          -114 97 -54 116 366 18 287 108 vhcurveto
          28 vlineto
          509 450 rmoveto
          -163 -141 -103 -184 -10 0 -6 4 -8 hvcurveto
          506 40 rlineto
          38 5 36 6 32 vvcurveto
          159 -123 69 -157 vhcurveto
          endchar
        </CharString>
        <CharString name="agrave">
          15 1343 168 rmoveto
          -107 -189 -86 -91 -110 -66 52 110 -24 vhcurveto
          -113 -98 -166 -52 -179 hhcurveto
          -205 -153 135 200 359 439 22 335 29 hvcurveto
          162 vlineto
          105 -108 34 -103 -188 -65 -39 -82 -128 vhcurveto
          -7 -12 -11 -4 -12 hhcurveto
          -46 -42 52 47 161 309 42 166 339 100 -130 -335 hvcurveto
          -504 vlineto
          -41 13 -31 31 vhcurveto
          60 85 108 48 hhcurveto
          30 41 -50 -37 hvcurveto
          -507 399 rmoveto
          -212 -23 -347 -6 -225 vvcurveto
          -114 97 -54 116 140 114 58 73 92 vhcurveto
          56 1066 rmoveto
          -25 -23 -27 -26 -7 -6 3 4 -5 vhcurveto
          -162 93 -179 116 -157 98 rrcurveto
          -18 12 -9 15 18 vvcurveto
          41 42 43 42 16 14 -5 -10 11 vhcurveto
          136 -117 165 -129 150 -100 rrcurveto
          11 -7 5 -9 -14 vvcurveto
          endchar
        </CharString>
        <CharString name="amacron">
          15 1343 168 rmoveto
          -107 -189 -86 -91 -110 -66 52 110 -24 vhcurveto
          -113 -98 -166 -52 -179 hhcurveto
          -205 -153 135 200 359 439 22 335 29 hvcurveto
          162 vlineto
          105 -108 34 -103 -188 -65 -39 -82 -128 vhcurveto
          -7 -12 -11 -4 -12 hhcurveto
          -46 -42 52 47 161 309 42 166 339 100 -130 -335 hvcurveto
          -504 vlineto
          -41 13 -31 31 vhcurveto
          60 85 108 48 hhcurveto
          30 41 -50 -37 hvcurveto
          -507 399 rmoveto
          -212 -23 -347 -6 -225 vvcurveto
          -114 97 -54 116 140 114 58 73 92 vhcurveto
          29 1014 rmoveto
          -530 hlineto
          -55 -27 40 39 39 26 38 50 hvcurveto
          538 hlineto
          48 24 -38 -39 -39 -25 -40 -49 hvcurveto
          endchar
        </CharString>
        <CharString name="ampersand">
          424 395 932 rmoveto
          -76 125 -103 150 163 vvcurveto
          219 134 152 212 225 140 -155 -220 -238 -135 -114 -147 -102 vhcurveto
          38 -48 39 -44 35 -40 104 -127 119 -122 132 -108 68 109 41 132 8 133 rrcurveto
          -136 hlineto
          -47 -27 40 44 50 21 42 51 hvcurveto
          475 hlineto
          51 20 -42 -50 -44 -26 -40 -47 hvcurveto
          -161 hlineto
          -9 -188 -64 -161 -87 -125 91 -64 96 -57 101 -48 rrcurveto
          57 -28 64 -1 -82 vvcurveto
          -63 -57 -33 -60 -25 -20 4 10 -18 vhcurveto
          -125 61 -121 71 -114 80 rrcurveto
          -109 -119 -164 -91 -199 hhcurveto
          -326 -217 218 319 223 151 103 157 96 hvcurveto
          87 -134 rmoveto
          -79 -61 -89 -75 -134 vvcurveto
          -230 132 -142 223 121 105 44 71 86 vhcurveto
          -192 152 -169 178 -138 197 rrcurveto
          73 236 rmoveto
          105 76 80 92 154 vvcurveto
          107 -59 110 -104 -99 -45 -94 -97 -125 53 -118 69 -105 vhcurveto
          endchar
        </CharString>
        <CharString name="aogonek">
          15 1343 168 rmoveto
          -107 -189 -86 -91 -110 -66 52 110 -24 vhcurveto
          -113 -98 -166 -52 -179 hhcurveto
          -205 -153 135 200 359 439 22 335 29 hvcurveto
          162 vlineto
          105 -108 34 -103 -188 -65 -39 -82 -128 vhcurveto
          -7 -12 -11 -4 -12 hhcurveto
          -46 -42 52 47 161 309 42 166 339 100 -130 -335 hvcurveto
          -504 vlineto
          -41 13 -31 31 vhcurveto
          60 85 108 48 hhcurveto
          30 41 -50 -37 hvcurveto
          -507 399 rmoveto
          -212 -23 -347 -6 -225 vvcurveto
          -114 97 -54 116 140 114 58 73 92 vhcurveto
          88 -832 rmoveto
          -92 -70 43 115 72 66 175 170 141 hvcurveto
          79 hlineto
          9 -120 -192 -95 hvcurveto
          -111 137 25 -60 vvcurveto
          -51 -85 -62 -94 vhcurveto
          endchar
        </CharString>
        <CharString name="aring">
          15 1343 168 rmoveto
          -107 -189 -86 -91 -110 -66 52 110 -24 vhcurveto
          -113 -98 -166 -52 -179 hhcurveto
          -205 -153 135 200 359 439 22 335 29 hvcurveto
          162 vlineto
          105 -108 34 -103 -188 -65 -39 -82 -128 vhcurveto
          -7 -12 -11 -4 -12 hhcurveto
          -46 -42 52 47 161 309 42 166 339 100 -130 -335 hvcurveto
          -504 vlineto
          -41 13 -31 31 vhcurveto
          60 85 108 48 hhcurveto
          30 41 -50 -37 hvcurveto
          -507 399 rmoveto
          -212 -23 -347 -6 -225 vvcurveto
          -114 97 -54 116 140 114 58 73 92 vhcurveto
          -236 1512 rmoveto
          165 82 -124 -124 -124 -86 -126 -166 -166 -84 122 123 126 88 127 167 hvcurveto
          3 -403 rmoveto
          94 44 70 82 82 -47 72 -95 -96 -46 -72 -82 -81 54 -71 92 hvcurveto
          endchar
        </CharString>
        <CharString name="asciicircum">
          -12 1124 639 rmoveto
          -37 -34 -29 -36 -31 -23 21 24 -11 vhcurveto
          -299 639 -326 -634 rlineto
          -30 -17 -27 -26 -40 hhcurveto
          -50 -46 39 51 11 3 14 7 16 hvcurveto
          352 713 rlineto
          49 25 33 51 57 hhcurveto
          53 33 -50 -42 20 hvcurveto
          349 -745 rlineto
          5 -11 3 -12 -12 vvcurveto
          endchar
        </CharString>
        <CharString name="asciitilde">
          25 159 1065 rmoveto
          166 98 119 122 vhcurveto
          240 179 -182 86 142 5 162 76 hhcurveto
          39 35 -18 -36 -167 -115 -117 -144 hvcurveto
          -195 -189 181 -129 -119 0 -161 -58 hhcurveto
          -38 -35 17 36 hvcurveto
          endchar
        </CharString>
        <CharString name="asterisk">
          336 1402 1104 rmoveto
          60 30 -62 -59 -59 -30 -62 -60 hvcurveto
          -362 43 rlineto
          -47 4 -27 30 44 vvcurveto
          44 27 30 47 4 vhcurveto
          -793 -199 rmoveto
          -60 -30 62 59 59 30 62 60 hvcurveto
          362 -43 rlineto
          47 -4 27 -30 -44 vvcurveto
          -44 -27 -30 -47 -4 vhcurveto
          617 -401 rmoveto
          -69 -80 -54 -68 -35 -26 15 26 -12 vhcurveto
          -142 336 rlineto
          -5 12 -3 13 14 vvcurveto
          43 37 30 41 32 17 -13 -23 17 vhcurveto
          217 -293 rlineto
          7 -14 3 -12 -11 vvcurveto
          -803 958 rmoveto
          70 78 53 70 34 24 -14 -27 15 vhcurveto
          142 -336 rlineto
          5 -12 3 -13 -14 vvcurveto
          -32 -19 -18 -20 -13 vhcurveto
          -21 -8 rlineto
          -3 -7 -6 -1 -7 hhcurveto
          -23 -22 13 26 -19 hvcurveto
          -217 292 rlineto
          -7 14 -3 12 11 vvcurveto
          146 -1081 rmoveto
          -71 -77 53 70 11 3 12 7 14 hvcurveto
          217 293 rlineto
          23 17 15 13 32 hhcurveto
          42 38 -30 -43 -14 -3 -13 -5 -12 hvcurveto
          -142 -336 rlineto
          -27 -15 -24 -14 -34 hhcurveto
          507 1204 rmoveto
          69 79 -56 -67 -11 -3 -12 -7 -14 hvcurveto
          -217 -292 rlineto
          -26 -19 -22 -13 -25 hhcurveto
          -41 -37 33 42 14 3 13 5 12 hvcurveto
          142 336 rlineto
          26 12 26 15 35 hhcurveto
          endchar
        </CharString>
        <CharString name="at">
          954 1469 1208 rmoveto
          58 20 38 94 75 30 19 6 23 hhcurveto
          7 3 -3 -7 -47 -20 -39 -15 -62 hvcurveto
          -145 -628 rlineto
          -5 -18 -3 -20 -22 vvcurveto
          -94 61 -49 102 291 109 340 299 451 -337 270 -464 -592 -442 -475 -590 -518 406 -330 517 393 196 154 147 229 vhcurveto
          8 10 11 4 15 hhcurveto
          31 33 -28 -31 -11 -4 -12 -10 -14 hvcurveto
          -227 -178 -359 -140 -397 hhcurveto
          -325 -262 121 161 -178 hvcurveto
          -176 159 -141 240 319 vvcurveto
          235 70 200 92 160 vhcurveto
          329 188 339 298 507 hhcurveto
          325 252 -124 -163 166 hvcurveto
          139 -137 122 -205 -245 vvcurveto
          -416 -183 -368 -413 -138 -79 76 102 -33 vhcurveto
          -99 -71 -115 -100 -168 hhcurveto
          -268 -146 188 269 311 225 330 312 132 105 -49 -58 74 hvcurveto
          -272 -45 rmoveto
          -263 -120 -236 -265 -147 82 -138 147 299 31 273 257 41 hvcurveto
          12 74 rlineto
          102 -124 80 -105 vhcurveto
          endchar
        </CharString>
        <CharString name="atilde">
          15 1343 168 rmoveto
          -107 -189 -86 -91 -110 -66 52 110 -24 vhcurveto
          -113 -98 -166 -52 -179 hhcurveto
          -205 -153 135 200 359 439 22 335 29 hvcurveto
          162 vlineto
          105 -108 34 -103 -188 -65 -39 -82 -128 vhcurveto
          -7 -12 -11 -4 -12 hhcurveto
          -46 -42 52 47 161 309 42 166 339 100 -130 -335 hvcurveto
          -504 vlineto
          -41 13 -31 31 vhcurveto
          60 85 108 48 hhcurveto
          30 41 -50 -37 hvcurveto
          -507 399 rmoveto
          -212 -23 -347 -6 -225 vvcurveto
          -114 97 -54 116 140 114 58 73 92 vhcurveto
          -606 1067 rmoveto
          155 84 110 106 vhcurveto
          155 116 -142 56 89 3 142 49 hhcurveto
          39 34 -18 -36 -155 -100 -109 -126 hvcurveto
          -116 -113 141 -77 -85 0 -141 -41 hhcurveto
          -39 -34 17 36 hvcurveto
          endchar
        </CharString>
        <CharString name="b">
          104 1126 582 rmoveto
          232 -114 204 -226 -162 -113 -53 -84 -81 vhcurveto
          -557 vlineto
          -103 71 112 -76 163 hhcurveto
          233 117 202 235 hvcurveto
          221 hmoveto
          -355 -207 -252 -350 -165 -132 80 95 -84 vhcurveto
          -82 -19 -76 -77 -68 -20 59 66 vhcurveto
          1407 vlineto
          -236 -62 rlineto
          -6 2 -2 -6 hhcurveto
          -42 -38 45 41 57 34 10 44 13 hvcurveto
          385 111 rlineto
          1 3 4 1 7 hhcurveto
          28 26 -19 -30 hvcurveto
          -655 vlineto
          92 95 104 61 165 hhcurveto
          341 212 -259 -347 hvcurveto
          endchar
        </CharString>
        <CharString name="backslash">
          -137 -129 1804 rmoveto
          50 56 36 47 27 20 -13 -26 14 vhcurveto
          1108 -2314 rlineto
          5 -10 3 -10 -11 vvcurveto
          -48 -57 -38 -47 -35 -18 19 29 -15 vhcurveto
          -1102 2308 rlineto
          -4 10 -2 8 10 vvcurveto
          endchar
        </CharString>
        <CharString name="bar">
          -535 314 1841 rmoveto
          49 32 -26 -46 5 hvcurveto
          -1867 vlineto
          -42 -48 -24 -40 -52 -36 22 60 vhcurveto
          1851 vlineto
          48 44 24 46 vhcurveto
          endchar
        </CharString>
        <CharString name="braceleft">
          -286 569 949 rmoveto
          -89 -25 -111 -158 -29 vhcurveto
          158 -30 25 -111 -89 -189 -87 -223 -173 vvcurveto
          -143 74 -103 288 55 47 -46 -56 -54 -48 -49 -54 -472 -112 185 227 vhcurveto
          210 92 245 170 vvcurveto
          73 -37 53 -144 -55 -47 46 56 vhcurveto
          1 vlineto
          0 vlineto
          56 47 46 55 144 37 53 73 vhcurveto
          170 -92 245 210 vvcurveto
          227 112 185 472 54 48 -49 -54 -56 -47 -46 -55 -288 -74 -103 -143 vhcurveto
          -173 87 -223 -189 vvcurveto
          endchar
        </CharString>
        <CharString name="braceright">
          -287 459 949 rmoveto
          189 87 223 173 vvcurveto
          143 -74 103 -288 -55 -47 46 56 54 48 49 54 472 112 -185 -227 vhcurveto
          -210 -92 -245 -170 vvcurveto
          -73 37 -53 144 55 47 -46 -56 vhcurveto
          0 vlineto
          -1 vlineto
          -56 -47 -46 -55 -144 -37 -53 -73 vhcurveto
          -170 92 -245 -210 vvcurveto
          -227 -112 -185 -472 -54 -48 49 54 56 47 46 55 288 74 103 143 vhcurveto
          173 -87 223 189 vvcurveto
          89 25 111 158 30 vhcurveto
          -158 29 -25 111 89 vvcurveto
          endchar
        </CharString>
        <CharString name="bracketleft">
          -405 275 -518 rmoveto
          -55 -47 42 56 hvcurveto
          40 1198 -40 1198 rlineto
          54 48 45 54 vhcurveto
          400 hlineto
          54 48 -49 -54 -56 -47 -46 -55 hvcurveto
          -281 -2183 281 hlineto
          55 47 -47 -56 -54 -48 -48 -54 hvcurveto
          endchar
        </CharString>
        <CharString name="bracketright">
          -435 635 -518 rmoveto
          -400 hlineto
          -54 -48 48 54 56 47 47 55 hvcurveto
          281 2183 -281 hlineto
          -55 -47 46 56 54 48 49 54 hvcurveto
          400 hlineto
          54 48 -45 -54 hvcurveto
          -40 -1198 40 -1198 rlineto
          -56 -47 -42 -55 vhcurveto
          endchar
        </CharString>
        <CharString name="breve">
          -659 88 1879 rmoveto
          -120 46 81 -60 81 hhcurveto
          81 81 60 120 46 hvcurveto
          16 6 14 5 13 hhcurveto
          26 29 -25 -22 -211 -148 -106 -148 -148 -148 106 211 22 29 25 26 13 14 -5 -16 6 hvcurveto
          endchar
        </CharString>
        <CharString name="brokenbar">
          -535 314 1841 rmoveto
          49 32 -26 -46 5 hvcurveto
          -1867 vlineto
          -42 -48 -24 -40 -52 -36 22 60 vhcurveto
          1851 vlineto
          48 44 24 46 vhcurveto
          endchar
        </CharString>
        <CharString name="bullet">
          -170 551 289 rmoveto
          -217 -141 138 216 217 142 137 216 210 137 -144 -210 -211 -138 -143 -209 hvcurveto
          endchar
        </CharString>
        <CharString name="c">
          -62 738 1188 rmoveto
          203 227 -60 -250 -79 -29 -61 -68 -100 -10 148 107 -26 hvcurveto
          17 -65 -64 8 -61 hhcurveto
          -258 -195 -158 -264 -286 199 -136 219 114 119 43 85 95 hvcurveto
          16 19 21 10 23 hhcurveto
          55 41 -29 -49 -172 -300 -103 -175 -384 -268 232 389 381 307 211 361 hvcurveto
          endchar
        </CharString>
        <CharString name="cacute">
          -62 950 1733 rmoveto
          42 42 -43 -41 -18 -8 -15 -18 -12 hvcurveto
          -158 -99 -177 -115 -163 -93 rrcurveto
          -4 -7 -7 -3 -5 hhcurveto
          -26 -23 27 25 14 6 9 11 7 hvcurveto
          150 100 164 129 136 117 rrcurveto
          10 11 14 5 16 hhcurveto
          -212 -545 rmoveto
          203 227 -60 -250 -79 -29 -61 -68 -100 -10 148 107 -26 hvcurveto
          17 -65 -64 8 -61 hhcurveto
          -258 -195 -158 -264 -286 199 -136 219 114 119 43 85 95 hvcurveto
          16 19 21 10 23 hhcurveto
          55 41 -29 -49 -172 -300 -103 -175 -384 -268 232 389 381 307 211 361 hvcurveto
          endchar
        </CharString>
        <CharString name="caron">
          -659 296 1433 rmoveto
          -19 -19 6 11 -8 hvcurveto
          -270 414 rlineto
          -7 8 -3 9 8 vvcurveto
          24 27 19 27 12 14 -2 -11 8 vhcurveto
          238 -306 238 306 rlineto
          11 8 14 2 12 hhcurveto
          27 27 -19 -24 -8 -3 -9 -7 -8 hvcurveto
          -270 -414 rlineto
          -11 -8 -19 -6 -19 hhcurveto
          endchar
        </CharString>
        <CharString name="ccaron">
          -62 738 1188 rmoveto
          203 227 -60 -250 -79 -29 -61 -68 -100 -10 148 107 -26 hvcurveto
          17 -65 -64 8 -61 hhcurveto
          -258 -195 -158 -264 -286 199 -136 219 114 119 43 85 95 hvcurveto
          16 19 21 10 23 hhcurveto
          55 41 -29 -49 -172 -300 -103 -175 -384 -268 232 389 381 307 211 361 hvcurveto
          102 vmoveto
          -19 -19 6 11 -8 hvcurveto
          -270 414 rlineto
          -7 8 -3 9 8 vvcurveto
          24 27 19 27 12 14 -2 -11 8 vhcurveto
          238 -306 238 306 rlineto
          11 8 14 2 12 hhcurveto
          27 27 -19 -24 -8 -3 -9 -7 -8 hvcurveto
          -270 -414 rlineto
          -11 -8 -19 -6 -19 hhcurveto
          endchar
        </CharString>
        <CharString name="ccedilla">
          -62 738 1188 rmoveto
          203 227 -60 -250 -79 -29 -61 -68 -100 -10 148 107 -26 hvcurveto
          17 -65 -64 8 -61 hhcurveto
          -258 -195 -158 -264 -286 199 -136 219 114 119 43 85 95 hvcurveto
          16 19 21 10 23 hhcurveto
          55 41 -29 -49 -172 -300 -103 -175 -384 -268 232 389 381 307 211 361 hvcurveto
          48 -1191 rmoveto
          -60 -501 rlineto
          -118 -8 -69 -56 -65 hhcurveto
          -58 -54 46 91 66 156 423 30 49 hvcurveto
          endchar
        </CharString>
        <CharString name="ccircumflex">
          -62 738 1188 rmoveto
          203 227 -60 -250 -79 -29 -61 -68 -100 -10 148 107 -26 hvcurveto
          17 -65 -64 8 -61 hhcurveto
          -258 -195 -158 -264 -286 199 -136 219 114 119 43 85 95 hvcurveto
          16 19 21 10 23 hhcurveto
          55 41 -29 -49 -172 -300 -103 -175 -384 -268 232 389 381 307 211 361 hvcurveto
          601 vmoveto
          19 19 -6 -11 8 hvcurveto
          270 -414 rlineto
          7 -8 3 -9 -8 vvcurveto
          -24 -27 -19 -27 -12 -14 2 11 -8 vhcurveto
          -238 306 -238 -306 rlineto
          -11 -8 -14 -2 -12 hhcurveto
          -27 -27 19 24 8 3 9 7 8 hvcurveto
          270 414 rlineto
          11 8 19 6 19 hhcurveto
          endchar
        </CharString>
        <CharString name="cdotaccent">
          -62 738 1188 rmoveto
          203 227 -60 -250 -79 -29 -61 -68 -100 -10 148 107 -26 hvcurveto
          17 -65 -64 8 -61 hhcurveto
          -258 -195 -158 -264 -286 199 -136 219 114 119 43 85 95 hvcurveto
          16 19 21 10 23 hhcurveto
          55 41 -29 -49 -172 -300 -103 -175 -384 -268 232 389 381 307 211 361 hvcurveto
          150 258 rmoveto
          -77 -60 -79 -89 -97 -53 79 77 73 48 72 104 vhcurveto
          0 vlineto
          92 55 -71 -74 hvcurveto
          endchar
        </CharString>
        <CharString name="cedilla">
          -959 264 hmoveto
          -60 -501 rlineto
          -118 -8 -69 -56 -65 hhcurveto
          -58 -54 46 91 66 156 423 30 49 hvcurveto
          endchar
        </CharString>
        <CharString name="cent">
          -18 723 1623 rmoveto
          39 29 -20 -37 hvcurveto
          -238 vlineto
          195 -6 206 -66 -238 vvcurveto
          -79 -29 -61 -68 -100 -10 148 107 -26 vhcurveto
          -57 15 -57 8 -54 2 rrcurveto
          -841 vlineto
          95 12 97 42 79 71 rrcurveto
          16 19 21 10 23 hhcurveto
          55 41 -29 -49 -158 -254 -100 -176 -15 hvcurveto
          -230 vlineto
          -39 -34 -20 -33 -35 -34 21 47 vhcurveto
          224 vlineto
          -335 34 -226 225 357 vvcurveto
          343 248 205 313 38 vhcurveto
          244 vlineto
          38 33 19 35 vhcurveto
          -68 -476 rmoveto
          -200 -40 -139 -148 -223 vvcurveto
          -251 153 -135 186 -30 vhcurveto
          endchar
        </CharString>
        <CharString name="circumflex">
          -659 296 1932 rmoveto
          19 19 -6 -11 8 hvcurveto
          270 -414 rlineto
          7 -8 3 -9 -8 vvcurveto
          -24 -27 -19 -27 -12 -14 2 11 -8 vhcurveto
          -238 306 -238 -306 rlineto
          -11 -8 -14 -2 -12 hhcurveto
          -27 -27 19 24 8 3 9 7 8 hvcurveto
          270 414 rlineto
          11 8 19 6 19 hhcurveto
          endchar
        </CharString>
        <CharString name="ck">
          1323 1553 1739 rmoveto
          28 25 -19 -30 hvcurveto
          -1041 vlineto
          155 105 157 104 151 99 rrcurveto
          -86 hlineto
          -52 -24 40 50 51 26 35 56 hvcurveto
          463 hlineto
          47 27 -39 -44 -50 -21 -43 -51 hvcurveto
          -111 hlineto
          -53 -36 -38 -25 -36 hvcurveto
          -280 -202 280 -401 rlineto
          -101 71 53 -2 128 hhcurveto
          15 hlineto
          89 27 -15 -77 -79 -49 -17 -90 hvcurveto
          -436 hlineto
          -51 -25 40 50 51 25 35 57 hvcurveto
          59 hlineto
          -301 432 -184 -112 rlineto
          -320 152 vlineto
          51 20 -42 -50 -44 -26 -40 -47 hvcurveto
          -504 hlineto
          -56 -26 35 51 49 24 41 52 hvcurveto
          155 1348 hlineto
          -235 -62 rlineto
          -6 1 -2 -6 hhcurveto
          -42 -37 45 41 57 33 10 44 13 hvcurveto
          385 111 rlineto
          1 3 5 1 7 hhcurveto
          -790 -551 rmoveto
          203 227 -60 -250 -79 -29 -61 -68 -100 -10 148 107 -26 hvcurveto
          17 -65 -64 8 -61 hhcurveto
          -258 -195 -158 -264 -286 199 -136 219 114 119 43 85 95 hvcurveto
          16 19 21 10 23 hhcurveto
          55 41 -29 -49 -172 -300 -103 -175 -384 -268 232 389 381 307 211 361 hvcurveto
          endchar
        </CharString>
        <CharString name="colon">
          -588 362 -70 rmoveto
          -125 -90 91 124 124 92 91 123 123 92 -93 -122 -124 -92 -91 -123 hvcurveto
          830 vmoveto
          -125 -90 91 124 124 92 91 123 123 92 -93 -122 -124 -92 -91 -123 hvcurveto
          endchar
        </CharString>
        <CharString name="comma">
          -599 353 280 rmoveto
          110 95 -74 -148 -211 -123 -134 -151 -76 hvcurveto
          -9 -16 -17 -4 -14 hhcurveto
          -43 -32 33 35 18 9 19 22 15 hvcurveto
          77 51 101 66 114 vvcurveto
          -108 -80 48 102 103 82 52 88 hvcurveto
          endchar
        </CharString>
        <CharString name="copyright">
          815 1961 850 rmoveto
          -531 -368 -344 -529 -529 -368 344 531 532 367 357 530 530 367 -357 -532 vhcurveto
          -891 -381 rmoveto
          166 123 93 169 32 38 11 35 29 43 -15 -30 hvcurveto
          -221 vlineto
          -21 -1 -7 -17 -7 vhcurveto
          -86 -99 -141 -68 -176 hhcurveto
          -320 -213 218 321 323 213 224 320 115 86 -38 -60 67 hvcurveto
          41 vlineto
          32 40 11 34 28 44 -15 -28 vhcurveto
          -265 vlineto
          -30 -43 -13 -29 -36 -15 39 27 -19 vhcurveto
          89 -58 -85 67 -129 hhcurveto
          -221 -123 -182 -222 -219 127 -170 217 hvcurveto
          -737 385 rmoveto
          -437 286 -294 445 445 286 294 437 435 -288 302 -443 -443 -288 -302 -435 vhcurveto
          endchar
        </CharString>
        <CharString name="ct">
          796 1772 134 rmoveto
          129 4 108 76 hhcurveto
          42 30 -34 -42 -119 -180 -74 -135 -157 -136 127 148 hvcurveto
          708 -150 vlineto
          -56 -26 35 51 49 24 42 52 hvcurveto
          156 hlineto
          122 3 273 115 33 23 -8 -17 24 vhcurveto
          -20 vlineto
          -18 2 -23 -18 vvcurveto
          -291 262 vlineto
          51 21 -43 -50 -44 -27 -40 -47 hvcurveto
          -260 -677 hlineto
          -105 53 -40 74 vhcurveto
          -1010 1054 rmoveto
          203 227 -60 -250 -79 -29 -61 -68 -100 -10 148 107 -26 hvcurveto
          17 -65 -64 8 -61 hhcurveto
          -258 -195 -158 -264 -286 199 -136 219 114 119 43 85 95 hvcurveto
          16 19 21 10 23 hhcurveto
          55 41 -29 -49 -172 -300 -103 -175 -384 -268 232 389 381 307 211 361 hvcurveto
          endchar
        </CharString>
        <CharString name="currency">
          -185 885 1108 rmoveto
          39 35 -35 -38 -19 -8 -18 -14 -15 hvcurveto
          -270 -269 270 -270 rlineto
          14 -14 8 -19 -18 vvcurveto
          -39 -35 -35 -39 -19 -19 8 14 -14 vhcurveto
          -269 269 -269 -269 rlineto
          -14 -15 -18 -8 -19 hhcurveto
          -39 -35 35 39 18 7 19 15 14 hvcurveto
          269 270 -269 269 rlineto
          -15 15 -7 18 19 vvcurveto
          38 35 35 39 19 18 -7 -15 15 vhcurveto
          269 -269 269 269 rlineto
          15 14 19 7 19 hhcurveto
          endchar
        </CharString>
        <CharString name="d">
          184 292 582 rmoveto
          -233 118 -204 232 159 116 79 100 71 vhcurveto
          557 vlineto
          86 -84 -116 51 -156 hhcurveto
          -226 -114 -210 -226 hvcurveto
          -222 hmoveto
          342 212 264 341 159 110 -56 -77 96 vhcurveto
          469 vlineto
          -236 -62 rlineto
          -6 2 -2 -6 hhcurveto
          -42 -38 45 41 57 34 10 44 13 hvcurveto
          385 111 rlineto
          1 3 5 1 7 hhcurveto
          28 25 -19 -30 hvcurveto
          -1514 vlineto
          145 21 rlineto
          1 7 9 1 11 hhcurveto
          53 35 -27 -47 -109 -153 6 -87 -10 hvcurveto
          -8 -52 -73 -14 -43 hhcurveto
          -47 -10 42 46 hvcurveto
          72 vlineto
          -92 -76 -127 -83 -157 hhcurveto
          -353 -205 256 351 hvcurveto
          endchar
        </CharString>
        <CharString name="dagger">
          -76 1023 1255 rmoveto
          44 36 -36 -44 -44 -36 -37 -44 hvcurveto
          -328 -1192 hlineto
          -42 -48 -24 -40 -52 -36 22 60 vhcurveto
          1176 -306 vlineto
          -44 -36 37 44 44 36 36 44 hvcurveto
          306 514 hlineto
          48 44 24 46 49 32 -26 -46 5 vhcurveto
          -514 vlineto
          endchar
        </CharString>
        <CharString name="daggerdbl">
          -76 963 1255 rmoveto
          44 36 -36 -44 -44 -36 -37 -44 hvcurveto
          -268 -556 268 hlineto
          44 36 -37 -44 -44 -36 -36 -44 hvcurveto
          -268 -475 hlineto
          -42 -48 -24 -40 -52 -36 22 60 vhcurveto
          459 -246 vlineto
          -44 -36 36 44 44 36 37 44 hvcurveto
          246 556 -246 hlineto
          -44 -36 37 44 44 36 36 44 hvcurveto
          246 514 hlineto
          48 44 24 46 49 32 -26 -46 5 vhcurveto
          -514 vlineto
          endchar
        </CharString>
        <CharString name="dcaron">
          184 1644 1739 rmoveto
          110 95 -74 -148 -211 -123 -134 -151 -76 hvcurveto
          -9 -16 -17 -4 -14 hhcurveto
          -43 -32 33 35 18 9 19 22 15 hvcurveto
          77 51 101 66 114 vvcurveto
          -108 -80 48 102 103 82 52 88 hvcurveto
          -1352 -1157 rmoveto
          -233 118 -204 232 159 116 79 100 71 vhcurveto
          557 vlineto
          86 -84 -116 51 -156 hhcurveto
          -226 -114 -210 -226 hvcurveto
          -222 hmoveto
          342 212 264 341 159 110 -56 -77 96 vhcurveto
          469 vlineto
          -236 -62 rlineto
          -6 2 -2 -6 hhcurveto
          -42 -38 45 41 57 34 10 44 13 hvcurveto
          385 111 rlineto
          1 3 5 1 7 hhcurveto
          28 25 -19 -30 hvcurveto
          -1514 vlineto
          145 21 rlineto
          1 7 9 1 11 hhcurveto
          53 35 -27 -47 -109 -153 6 -87 -10 hvcurveto
          -8 -52 -73 -14 -43 hhcurveto
          -47 -10 42 46 hvcurveto
          72 vlineto
          -92 -76 -127 -83 -157 hhcurveto
          -353 -205 256 351 hvcurveto
          endchar
        </CharString>
        <CharString name="dcroat">
          203 311 582 rmoveto
          -233 118 -204 232 159 116 79 100 71 vhcurveto
          557 vlineto
          86 -84 -116 51 -156 hhcurveto
          -226 -114 -210 -226 hvcurveto
          1033 856 rmoveto
          48 24 -38 -38 -39 -25 -40 -49 hvcurveto
          -130 -1107 hlineto
          145 21 rlineto
          1 7 9 1 11 hhcurveto
          53 35 -27 -47 -109 -153 6 -87 -10 hvcurveto
          -8 -52 -73 -14 -43 hhcurveto
          -47 -10 42 46 hvcurveto
          72 vlineto
          -92 -76 -127 -83 -157 hhcurveto
          -353 -205 256 351 342 212 264 341 159 110 -56 -77 96 hvcurveto
          228 -299 vlineto
          -56 -27 40 39 38 26 38 51 hvcurveto
          305 122 -212 hlineto
          -56 -27 40 39 38 26 38 51 hvcurveto
          352 hlineto
          48 24 -38 -38 hvcurveto
          -4 -1 -5 -4 vvcurveto
          0 vlineto
          -188 vlineto
          endchar
        </CharString>
        <CharString name="degree">
          -118 603 1642 rmoveto
          242 120 -181 -183 -181 -126 -185 -243 -243 -123 179 180 185 129 186 244 hvcurveto
          5 -590 rmoveto
          137 65 102 120 120 -68 106 -140 -140 -68 -106 -120 -119 79 -103 135 hvcurveto
          endchar
        </CharString>
        <CharString name="dieresis">
          -427 199 1432 rmoveto
          -73 -61 60 73 73 61 60 73 73 60 -60 -73 -73 -60 -60 -73 hvcurveto
          491 hmoveto
          -73 -60 60 73 73 60 60 73 73 60 -60 -73 -73 -60 -60 -73 hvcurveto
          endchar
        </CharString>
        <CharString name="divide">
          -792 endchar
        </CharString>
        <CharString name="dollar">
          317 900 1580 rmoveto
          -583 vlineto
          123 -30 rlineto
          264 -66 181 -126 -317 vvcurveto
          -312 -260 -143 -308 -26 vhcurveto
          -121 vlineto
          -36 -30 -30 -36 -36 -30 30 36 vhcurveto
          117 vlineto
          -132 3 -125 24 -119 45 rrcurveto
          -46 -5 -41 -24 -46 hhcurveto
          -48 -31 19 45 -5 hvcurveto
          -57 496 rlineto
          53 32 26 64 40 35 -25 -40 5 vhcurveto
          16 -139 23 -183 188 -76 206 -1 rlinecurve
          644 vlineto
          -108 31 rlineto
          -240 54 -174 122 270 vvcurveto
          274 228 171 294 21 vhcurveto
          117 vlineto
          36 30 30 36 36 30 -30 -36 vhcurveto
          -118 vlineto
          117 -8 115 -29 73 -42 rrcurveto
          56 39 30 55 40 35 -26 -40 5 vhcurveto
          31 -368 rlineto
          -58 -39 -24 -53 -47 -32 19 44 -5 vhcurveto
          -8 82 -17 141 -151 59 -158 8 rlinecurve
          -823 vmoveto
          -600 vlineto
          188 21 175 77 204 vvcurveto
          181 -125 49 -150 43 vhcurveto
          -220 298 rmoveto
          546 vlineto
          -242 -25 -59 -128 -136 vvcurveto
          -130 90 -75 179 -44 vhcurveto
          endchar
        </CharString>
        <CharString name="dotaccent">
          -991 300 206 rmoveto
          -77 -60 -79 -89 -97 -53 79 77 73 48 72 104 vhcurveto
          0 vlineto
          92 55 -71 -74 hvcurveto
          endchar
        </CharString>
        <CharString name="dotlessi">
          -581 60 86 rmoveto
          49 24 41 52 vhcurveto
          137 752 hlineto
          -144 -39 rlineto
          -1 -3 -4 -1 -7 hhcurveto
          -40 -42 39 41 43 20 31 38 10 hvcurveto
          319 79 rlineto
          1 4 5 2 7 hhcurveto
          30 22 -18 -30 hvcurveto
          -909 153 vlineto
          51 21 -42 -50 -44 -27 -40 -47 hvcurveto
          -487 hlineto
          -56 -26 35 51 hvcurveto
          endchar
        </CharString>
        <CharString name="e">
          -9 283 559 rmoveto
          -262 184 -139 240 170 80 74 82 88 vhcurveto
          17 20 23 9 23 hhcurveto
          54 42 -35 -55 -171 -324 -104 -184 -367 -262 232 368 364 231 249 374 268 262 -203 -293 -100 -69 -2 -95 -10 hvcurveto
          -87 176 rmoveto
          191 -139 71 -140 -236 -143 -125 -193 -17 vhcurveto
          601 13 rlineto
          37 2 37 10 31 vvcurveto
          endchar
        </CharString>
        <CharString name="eacute">
          -9 887 1733 rmoveto
          42 42 -43 -41 -18 -8 -15 -18 -12 hvcurveto
          -158 -99 -177 -115 -163 -93 rrcurveto
          -4 -7 -7 -3 -5 hhcurveto
          -26 -23 27 25 14 6 9 11 7 hvcurveto
          150 100 164 129 136 117 rrcurveto
          10 11 14 5 16 hhcurveto
          -604 -1174 rmoveto
          -262 184 -139 240 170 80 74 82 88 vhcurveto
          17 20 23 9 23 hhcurveto
          54 42 -35 -55 -171 -324 -104 -184 -367 -262 232 368 364 231 249 374 268 262 -203 -293 -100 -69 -2 -95 -10 hvcurveto
          -87 176 rmoveto
          191 -139 71 -140 -236 -143 -125 -193 -17 vhcurveto
          601 13 rlineto
          37 2 37 10 31 vvcurveto
          endchar
        </CharString>
        <CharString name="ecaron">
          -9 675 1290 rmoveto
          -19 -19 6 11 -8 hvcurveto
          -270 414 rlineto
          -7 8 -3 9 8 vvcurveto
          24 27 19 27 12 14 -2 -11 8 vhcurveto
          238 -306 238 306 rlineto
          11 8 14 2 12 hhcurveto
          27 27 -19 -24 -8 -3 -9 -7 -8 hvcurveto
          -270 -414 rlineto
          -11 -8 -19 -6 -19 hhcurveto
          -392 -731 rmoveto
          -262 184 -139 240 170 80 74 82 88 vhcurveto
          17 20 23 9 23 hhcurveto
          54 42 -35 -55 -171 -324 -104 -184 -367 -262 232 368 364 231 249 374 268 262 -203 -293 -100 -69 -2 -95 -10 hvcurveto
          -87 176 rmoveto
          191 -139 71 -140 -236 -143 -125 -193 -17 vhcurveto
          601 13 rlineto
          37 2 37 10 31 vvcurveto
          endchar
        </CharString>
        <CharString name="ecircumflex">
          -9 675 1789 rmoveto
          19 19 -6 -11 8 hvcurveto
          270 -414 rlineto
          7 -8 3 -9 -8 vvcurveto
          -24 -27 -19 -27 -12 -14 2 11 -8 vhcurveto
          -238 306 -238 -306 rlineto
          -11 -8 -14 -2 -12 hhcurveto
          -27 -27 19 24 8 3 9 7 8 hvcurveto
          270 414 rlineto
          11 8 19 6 19 hhcurveto
          -392 -1230 rmoveto
          -262 184 -139 240 170 80 74 82 88 vhcurveto
          17 20 23 9 23 hhcurveto
          54 42 -35 -55 -171 -324 -104 -184 -367 -262 232 368 364 231 249 374 268 262 -203 -293 -100 -69 -2 -95 -10 hvcurveto
          -87 176 rmoveto
          191 -139 71 -140 -236 -143 -125 -193 -17 vhcurveto
          601 13 rlineto
          37 2 37 10 31 vvcurveto
          endchar
        </CharString>
        <CharString name="edieresis">
          -9 410 1290 rmoveto
          -73 -61 60 73 73 61 60 73 73 60 -60 -73 -73 -60 -60 -73 hvcurveto
          491 hmoveto
          -73 -60 60 73 73 60 60 73 73 60 -60 -73 -73 -60 -60 -73 hvcurveto
          -618 -731 rmoveto
          -262 184 -139 240 170 80 74 82 88 vhcurveto
          17 20 23 9 23 hhcurveto
          54 42 -35 -55 -171 -324 -104 -184 -367 -262 232 368 364 231 249 374 268 262 -203 -293 -100 -69 -2 -95 -10 hvcurveto
          -87 176 rmoveto
          191 -139 71 -140 -236 -143 -125 -193 -17 vhcurveto
          601 13 rlineto
          37 2 37 10 31 vvcurveto
          endchar
        </CharString>
        <CharString name="edotaccent">
          -9 825 1446 rmoveto
          -77 -60 -79 -89 -97 -53 79 77 73 48 72 104 vhcurveto
          0 vlineto
          92 55 -71 -74 hvcurveto
          -542 -887 rmoveto
          -262 184 -139 240 170 80 74 82 88 vhcurveto
          17 20 23 9 23 hhcurveto
          54 42 -35 -55 -171 -324 -104 -184 -367 -262 232 368 364 231 249 374 268 262 -203 -293 -100 -69 -2 -95 -10 hvcurveto
          -87 176 rmoveto
          191 -139 71 -140 -236 -143 -125 -193 -17 vhcurveto
          601 13 rlineto
          37 2 37 10 31 vvcurveto
          endchar
        </CharString>
        <CharString name="egrave">
          -9 283 559 rmoveto
          -262 184 -139 240 170 80 74 82 88 vhcurveto
          17 20 23 9 23 hhcurveto
          54 42 -35 -55 -171 -324 -104 -184 -367 -262 232 368 364 231 249 374 268 262 -203 -293 -100 -69 -2 -95 -10 hvcurveto
          -87 176 rmoveto
          191 -139 71 -140 -236 -143 -125 -193 -17 vhcurveto
          601 13 rlineto
          37 2 37 10 31 vvcurveto
          17 586 rmoveto
          -25 -23 -27 -26 -7 -6 3 4 -5 vhcurveto
          -162 93 -179 116 -157 98 rrcurveto
          -18 12 -9 15 18 vvcurveto
          41 42 43 42 16 14 -5 -10 11 vhcurveto
          136 -117 165 -129 150 -100 rrcurveto
          11 -7 5 -9 -14 vvcurveto
          endchar
        </CharString>
        <CharString name="eight">
          3 627 1737 rmoveto
          268 250 -137 -263 -230 -162 -129 -154 -77 hvcurveto
          190 -101 197 -97 -285 vvcurveto
          -308 -248 -135 -307 -324 -237 144 323 235 151 128 156 78 vhcurveto
          -160 98 -110 103 229 vvcurveto
          265 218 159 272 vhcurveto
          41 -1592 rmoveto
          191 153 91 182 255 -297 40 -166 92 hvcurveto
          -137 -78 -111 -111 -186 vvcurveto
          -199 168 -86 199 vhcurveto
          -29 1436 rmoveto
          -168 -135 -89 -165 -201 211 -87 141 -66 hvcurveto
          142 69 110 104 179 vvcurveto
          174 -131 82 -170 vhcurveto
          endchar
        </CharString>
        <CharString name="ellipsis">
          1105 endchar
        </CharString>
        <CharString name="emacron">
          -9 283 559 rmoveto
          -262 184 -139 240 170 80 74 82 88 vhcurveto
          17 20 23 9 23 hhcurveto
          54 42 -35 -55 -171 -324 -104 -184 -367 -262 232 368 364 231 249 374 268 262 -203 -293 -100 -69 -2 -95 -10 hvcurveto
          -87 176 rmoveto
          191 -139 71 -140 -236 -143 -125 -193 -17 vhcurveto
          601 13 rlineto
          37 2 37 10 31 vvcurveto
          -47 534 rmoveto
          -530 hlineto
          -55 -27 40 39 39 26 38 50 hvcurveto
          538 hlineto
          48 24 -38 -39 -39 -25 -40 -49 hvcurveto
          endchar
        </CharString>
        <CharString name="emdash">
          136 1340 781 rmoveto
          58 48 -48 -58 -59 -48 -47 -58 hvcurveto
          -1235 hlineto
          -59 -47 47 59 58 47 48 59 hvcurveto
          endchar
        </CharString>
        <CharString name="endash">
          -76 1072 781 rmoveto
          58 48 -48 -58 -59 -48 -47 -58 hvcurveto
          -907 hlineto
          -59 -47 47 59 58 47 48 59 hvcurveto
          endchar
        </CharString>
        <CharString name="eng">
          102 1111 118 rmoveto
          644 vlineto
          160 -80 96 -162 -179 -196 -132 -179 vhcurveto
          -531 146 vlineto
          51 20 -42 -50 -44 -26 -40 -47 hvcurveto
          -467 hlineto
          -56 -26 35 51 49 24 41 52 hvcurveto
          124 803 hlineto
          -143 -35 rlineto
          -1 -3 -4 -1 -7 hhcurveto
          -40 -42 39 41 45 19 27 38 12 hvcurveto
          279 80 rlineto
          6 -2 2 6 hhcurveto
          6 hlineto
          28 23 -18 -29 hvcurveto
          21 -189 rlineto
          123 68 176 113 188 hhcurveto
          250 157 -156 -252 hvcurveto
          -662 vlineto
          -300 -86 -299 -352 -151 -122 52 166 77 18 44 78 55 34 -36 -62 vhcurveto
          -44 18 -42 -28 123 hhcurveto
          178 47 193 237 hvcurveto
          endchar
        </CharString>
        <CharString name="eogonek">
          -9 283 559 rmoveto
          -262 184 -139 240 170 80 74 82 88 vhcurveto
          17 20 23 9 23 hhcurveto
          54 42 -35 -55 -171 -324 -104 -184 -367 -262 232 368 364 231 249 374 268 262 -203 -293 -100 -69 -2 -95 -10 hvcurveto
          -87 176 rmoveto
          191 -139 71 -140 -236 -143 -125 -193 -17 vhcurveto
          601 13 rlineto
          37 2 37 10 31 vvcurveto
          -369 -1309 rmoveto
          -92 -70 43 115 72 66 175 170 141 hvcurveto
          79 hlineto
          9 -120 -192 -95 hvcurveto
          -111 137 25 -60 vvcurveto
          -51 -85 -62 -94 vhcurveto
          endchar
        </CharString>
        <CharString name="equal">
          -76 1072 213 rmoveto
          58 48 -48 -58 -59 -48 -47 -58 hvcurveto
          -907 hlineto
          -59 -47 47 59 58 47 48 59 hvcurveto
          907 523 rmoveto
          58 48 -48 -58 -59 -48 -47 -58 hvcurveto
          -907 hlineto
          -59 -47 47 59 58 47 48 59 hvcurveto
          endchar
        </CharString>
        <CharString name="eth">
          65 668 149 rmoveto
          246 139 177 249 257 -140 173 -237 -247 -146 -171 -259 -248 137 -178 248 hvcurveto
          -142 1736 rmoveto
          108 115 -125 -56 65 hvcurveto
          153 123 rlineto
          18 23 22 7 19 hhcurveto
          46 34 -40 -42 -24 -11 -25 -27 -19 hvcurveto
          -149 -103 rlineto
          226 -235 147 -299 -375 vvcurveto
          -428 -199 -284 -430 -364 -237 236 366 365 237 243 362 137 109 -66 -78 85 vhcurveto
          -35 170 -92 145 -114 124 -171 -118 rcurveline
          -7 -11 -11 -4 -11 hhcurveto
          -31 -29 27 32 18 9 21 23 18 hvcurveto
          136 110 rlineto
          -61 56 -151 94 92 vvcurveto
          41 35 22 43 vhcurveto
          endchar
        </CharString>
        <CharString name="exclam">
          -585 502 1587 rmoveto
          -338 -74 -332 -360 vvcurveto
          -34 -28 -27 -33 -34 -28 27 34 vhcurveto
          363 -74 329 342 vvcurveto
          94 57 54 79 81 54 -54 -98 vhcurveto
          -137 -1612 rmoveto
          -100 -77 77 100 100 77 76 100 100 76 -76 -100 -100 -76 -77 -100 hvcurveto
          endchar
        </CharString>
        <CharString name="exclamdown">
          -585 502 127 rmoveto
          -98 -54 -54 -81 -79 -57 54 94 vhcurveto
          342 74 329 363 vvcurveto
          34 28 28 34 33 28 -28 -34 vhcurveto
          -360 74 -332 -338 vvcurveto
          -137 1612 rmoveto
          100 76 -77 -100 -100 -76 -76 -100 -100 -77 76 100 100 77 77 100 hvcurveto
          endchar
        </CharString>
        <CharString name="f">
          -271 926 1411 rmoveto
          -49 -42 24 52 hvcurveto
          69 vlineto
          -213 -19 -60 -88 -218 -13 1 -13 -14 vvcurveto
          2 -69 rlineto
          219 hlineto
          51 21 -42 -50 -44 -27 -40 -47 hvcurveto
          -219 hlineto
          2 -770 rlineto
          252 hlineto
          51 21 -42 -50 -44 -27 -40 -47 hvcurveto
          -670 hlineto
          -56 -26 35 51 49 24 41 52 hvcurveto
          221 770 -178 hlineto
          -56 -26 35 51 49 24 41 52 hvcurveto
          184 105 hlineto
          353 209 159 359 44 40 -27 -47 vhcurveto
          -172 vlineto
          -56 -35 -26 -51 vhcurveto
          endchar
        </CharString>
        <CharString name="ff">
          502 927 1411 rmoveto
          -49 -42 24 52 hvcurveto
          69 vlineto
          -226 -20 -46 -97 -248 vvcurveto
          2 -69 rlineto
          530 105 hlineto
          353 209 159 359 44 40 -27 -47 vhcurveto
          -172 vlineto
          -56 -35 -26 -51 -49 -42 24 52 vhcurveto
          69 vlineto
          -226 -20 -46 -97 -248 vvcurveto
          2 -69 rlineto
          219 hlineto
          51 21 -42 -50 -44 -27 -40 -47 hvcurveto
          -219 hlineto
          2 -770 rlineto
          252 hlineto
          51 21 -42 -50 -44 -27 -40 -47 hvcurveto
          -570 hlineto
          -56 -26 35 51 49 24 41 52 hvcurveto
          121 770 -532 hlineto
          2 -770 rlineto
          152 hlineto
          51 21 -42 -50 -44 -27 -40 -47 hvcurveto
          -570 hlineto
          -56 -26 35 51 49 24 41 52 hvcurveto
          221 770 -178 hlineto
          -56 -26 35 51 49 24 41 52 hvcurveto
          184 105 hlineto
          353 209 159 359 44 40 -27 -47 vhcurveto
          -172 vlineto
          -56 -35 -26 -51 vhcurveto
          endchar
        </CharString>
        <CharString name="ffi">
          1470 2399 1427 rmoveto
          -84 -68 68 84 84 68 68 84 84 67 -68 -84 -84 -67 -68 -84 hvcurveto
          -308 -1341 rmoveto
          49 24 41 52 vhcurveto
          137 770 -780 hlineto
          2 -770 rlineto
          252 hlineto
          51 21 -42 -50 -44 -27 -40 -47 hvcurveto
          -670 hlineto
          -56 -26 35 51 49 24 41 52 hvcurveto
          221 770 -757 -770 253 hlineto
          51 21 -42 -50 -44 -27 -40 -47 hvcurveto
          -670 hlineto
          -56 -26 35 51 49 24 41 52 hvcurveto
          221 770 -178 hlineto
          -56 -26 35 51 49 24 41 52 hvcurveto
          184 105 hlineto
          353 209 159 359 44 40 -27 -47 vhcurveto
          -172 vlineto
          -56 -35 -26 -51 -49 -42 24 52 vhcurveto
          69 vlineto
          -226 -20 -45 -97 -248 vvcurveto
          -69 757 105 vlineto
          353 209 159 359 44 40 -27 -47 vhcurveto
          -172 vlineto
          -56 -35 -26 -51 -49 -42 24 52 vhcurveto
          69 vlineto
          -172 -15 -102 -66 -191 vvcurveto
          4 -162 rlineto
          932 hlineto
          31 20 -17 -30 hvcurveto
          -899 154 vlineto
          51 20 -42 -50 -44 -26 -40 -47 hvcurveto
          -488 hlineto
          -56 -26 35 51 hvcurveto
          endchar
        </CharString>
        <CharString name="ffl">
          1292 2238 1739 rmoveto
          29 24 -19 -30 hvcurveto
          -1514 192 vlineto
          51 21 -42 -50 -44 -27 -40 -47 hvcurveto
          -567 hlineto
          -56 -26 35 51 49 23 41 52 hvcurveto
          180 1380 -444 hlineto
          -208 -42 -124 -241 hvcurveto
          -69 270 vlineto
          51 21 -42 -50 -44 -27 -40 -47 hvcurveto
          -270 -770 218 hlineto
          51 21 -42 -50 -44 -27 -40 -47 hvcurveto
          -544 hlineto
          -56 -26 35 51 49 24 41 52 hvcurveto
          131 770 -624 -770 153 hlineto
          51 21 -42 -50 -44 -27 -40 -47 hvcurveto
          -570 hlineto
          -56 -26 35 51 49 24 41 52 hvcurveto
          221 770 -178 hlineto
          -56 -26 35 51 49 24 41 52 hvcurveto
          184 105 hlineto
          353 231 159 396 44 40 -27 -47 vhcurveto
          -172 vlineto
          -56 -35 -26 -51 -49 -42 24 52 vhcurveto
          69 vlineto
          -275 -20 -55 -97 -248 vvcurveto
          -69 624 105 vlineto
          353 209 159 359 vhcurveto
          endchar
        </CharString>
        <CharString name="fi">
          509 1130 86 rmoveto
          49 24 41 52 vhcurveto
          137 770 -780 hlineto
          2 -770 rlineto
          252 hlineto
          51 21 -42 -50 -44 -27 -40 -47 hvcurveto
          -670 hlineto
          -56 -26 35 51 49 24 41 52 hvcurveto
          221 770 -178 hlineto
          -56 -26 35 51 49 24 41 52 hvcurveto
          184 105 hlineto
          353 209 159 359 44 40 -27 -47 vhcurveto
          -172 vlineto
          -56 -35 -26 -51 -49 -42 24 52 vhcurveto
          69 vlineto
          -172 -15 -102 -66 -191 vvcurveto
          4 -162 rlineto
          932 hlineto
          31 20 -17 -30 hvcurveto
          -899 154 vlineto
          51 20 -42 -50 -44 -26 -40 -47 hvcurveto
          -488 hlineto
          -56 -26 35 51 hvcurveto
          308 1341 rmoveto
          -84 -68 68 84 84 68 68 84 84 67 -68 -84 -84 -67 -68 -84 hvcurveto
          endchar
        </CharString>
        <CharString name="five">
          -49 1042 1746 rmoveto
          -86 -31 -144 -81 vhcurveto
          -489 hlineto
          -49 -19 -69 -31 -2 hvcurveto
          -26 -467 rlineto
          70 56 125 52 117 hhcurveto
          314 198 -178 -313 -397 -332 -261 -397 -141 -197 28 140 62 37 53 63 hvcurveto
          137 74 -88 140 hhcurveto
          215 184 152 266 174 -83 139 -250 hvcurveto
          -191 -66 -119 -106 hhcurveto
          -22 -23 5 12 -27 hvcurveto
          59 880 rlineto
          87 103 1 96 vhcurveto
          444 -2 rlineto
          57 25 45 32 35 hhcurveto
          36 29 -17 -38 hvcurveto
          endchar
        </CharString>
        <CharString name="fl">
          659 1554 1739 rmoveto
          29 24 -19 -30 hvcurveto
          -1514 244 vlineto
          51 21 -42 -50 -44 -27 -40 -47 hvcurveto
          -667 hlineto
          -56 -26 35 51 49 23 41 52 hvcurveto
          228 1380 -588 hlineto
          -208 -42 -124 -241 hvcurveto
          -69 270 vlineto
          51 21 -42 -50 -44 -27 -40 -47 hvcurveto
          -270 -770 254 hlineto
          51 21 -42 -50 -44 -27 -40 -47 hvcurveto
          -670 hlineto
          -56 -26 35 51 49 24 41 52 hvcurveto
          221 770 -178 hlineto
          -56 -26 35 51 49 24 41 52 hvcurveto
          184 105 hlineto
          353 209 159 359 vhcurveto
          endchar
        </CharString>
        <CharString name="florin">
          -271 360 946 rmoveto
          -178 hlineto
          -56 -26 35 51 49 24 41 52 hvcurveto
          184 105 hlineto
          353 209 159 359 44 40 -27 -47 vhcurveto
          -172 vlineto
          -56 -35 -26 -51 -49 -42 24 52 vhcurveto
          69 vlineto
          -213 -19 -60 -88 -218 -13 1 -13 -14 vvcurveto
          2 -69 rlineto
          219 hlineto
          51 21 -42 -50 -44 -27 -40 -47 hvcurveto
          -219 hlineto
          2 -875 rlineto
          -353 -161 -159 -287 -44 -40 27 47 vhcurveto
          172 vlineto
          56 35 26 51 49 42 -24 -52 vhcurveto
          -69 vlineto
          117 19 36 88 218 vvcurveto
          13 -1 13 -2 853 vhcurveto
          endchar
        </CharString>
        <CharString name="foundryicon">
          -38 608 375 rmoveto
          -173 -209 -109 -87 -8 hhcurveto
          -23 -12 9 17 15 10 15 5 15 hvcurveto
          118 356 -204 161 -106 83 -15 13 rlinecurve
          -14 12 -7 14 15 vvcurveto
          20 13 10 26 1 138 -10 -20 273 vhcurveto
          69 167 40 98 11 29 rrcurveto
          60 21 20 41 36 hhcurveto
          19 30 -31 -16 hvcurveto
          63 -340 rlineto
          393 hlineto
          36 18 -14 -27 -5 -7 -7 -13 -9 hvcurveto
          -13 -9 -108 -88 -203 -167 rrcurveto
          64 -263 30 -137 -16 vvcurveto
          -20 -13 -14 -20 -11 -117 101 202 -222 vhcurveto
          endchar
        </CharString>
        <CharString name="four">
          171 850 1376 rmoveto
          -531 -663 rlineto
          531 hlineto
          501 -596 rmoveto
          -41 -25 -42 -45 vhcurveto
          -703 hlineto
          -45 -25 42 41 49 20 38 49 hvcurveto
          273 358 -693 hlineto
          -40 -23 36 36 28 8 24 13 13 hvcurveto
          273 340 276 334 277 335 rrcurveto
          13 10 46 9 17 hhcurveto
          41 -4 -42 -41 hvcurveto
          -934 296 vlineto
          45 16 -34 -45 -36 -24 -36 -40 hvcurveto
          -293 -358 232 hlineto
          49 19 -38 -49 hvcurveto
          endchar
        </CharString>
        <CharString name="fraction">
          95 170 -580 rmoveto
          -47 -58 38 48 11 3 10 5 10 hvcurveto
          1108 2314 rlineto
          26 11 21 13 30 hhcurveto
          46 56 -36 -50 -10 -2 -8 -4 -10 hvcurveto
          -1102 -2308 rlineto
          -29 -15 -17 -19 -35 hhcurveto
          endchar
        </CharString>
        <CharString name="g">
          58 96 776 rmoveto
          263 229 149 271 154 126 -43 -70 88 vhcurveto
          136 133 rlineto
          60 60 69 8 53 hhcurveto
          64 61 -21 -67 -47 -50 -49 -136 hvcurveto
          -1 hlineto
          -172 -109 rlineto
          33 -66 37 -88 -92 vvcurveto
          -261 -234 -129 -288 vhcurveto
          -26 -33 2 -34 hhcurveto
          -87 -93 -12 -87 -68 101 -9 92 hvcurveto
          34 32 1 26 hhcurveto
          324 277 -27 -331 -302 -308 -18 -309 -234 -258 85 233 147 61 79 105 48 hvcurveto
          -59 29 -68 54 91 vvcurveto
          113 65 49 95 24 vhcurveto
          -119 79 -84 78 171 vvcurveto
          268 -746 rmoveto
          -42 -42 -54 -54 -84 vvcurveto
          -138 157 -48 163 211 215 5 167 148 -156 17 -158 vhcurveto
          -42 -32 -1 -30 hhcurveto
          -61 -54 4 26 -117 hvcurveto
          246 1021 rmoveto
          -183 -124 -104 -195 -178 125 -87 174 177 120 69 201 188 -100 106 -189 hvcurveto
          endchar
        </CharString>
        <CharString name="gbreve">
          58 424 1721 rmoveto
          -120 46 81 -60 81 hhcurveto
          81 81 60 120 46 hvcurveto
          16 6 14 5 13 hhcurveto
          26 29 -25 -22 -211 -148 -106 -148 -148 -148 106 211 22 29 25 26 13 14 -5 -16 6 hvcurveto
          -328 -945 rmoveto
          263 229 149 271 154 126 -43 -70 88 vhcurveto
          136 133 rlineto
          60 60 69 8 53 hhcurveto
          64 61 -21 -67 -47 -50 -49 -136 hvcurveto
          -1 hlineto
          -172 -109 rlineto
          33 -66 37 -88 -92 vvcurveto
          -261 -234 -129 -288 vhcurveto
          -26 -33 2 -34 hhcurveto
          -87 -93 -12 -87 -68 101 -9 92 hvcurveto
          34 32 1 26 hhcurveto
          324 277 -27 -331 -302 -308 -18 -309 -234 -258 85 233 147 61 79 105 48 hvcurveto
          -59 29 -68 54 91 vvcurveto
          113 65 49 95 24 vhcurveto
          -119 79 -84 78 171 vvcurveto
          268 -746 rmoveto
          -42 -42 -54 -54 -84 vvcurveto
          -138 157 -48 163 211 215 5 167 148 -156 17 -158 vhcurveto
          -42 -32 -1 -30 hhcurveto
          -61 -54 4 26 -117 hvcurveto
          246 1021 rmoveto
          -183 -124 -104 -195 -178 125 -87 174 177 120 69 201 188 -100 106 -189 hvcurveto
          endchar
        </CharString>
        <CharString name="gdotaccent">
          58 788 1534 rmoveto
          -77 -60 -79 -89 -97 -53 79 77 73 48 72 104 vhcurveto
          0 vlineto
          92 55 -71 -74 hvcurveto
          -692 -758 rmoveto
          263 229 149 271 154 126 -43 -70 88 vhcurveto
          136 133 rlineto
          60 60 69 8 53 hhcurveto
          64 61 -21 -67 -47 -50 -49 -136 hvcurveto
          -1 hlineto
          -172 -109 rlineto
          33 -66 37 -88 -92 vvcurveto
          -261 -234 -129 -288 vhcurveto
          -26 -33 2 -34 hhcurveto
          -87 -93 -12 -87 -68 101 -9 92 hvcurveto
          34 32 1 26 hhcurveto
          324 277 -27 -331 -302 -308 -18 -309 -234 -258 85 233 147 61 79 105 48 hvcurveto
          -59 29 -68 54 91 vvcurveto
          113 65 49 95 24 vhcurveto
          -119 79 -84 78 171 vvcurveto
          268 -746 rmoveto
          -42 -42 -54 -54 -84 vvcurveto
          -138 157 -48 163 211 215 5 167 148 -156 17 -158 vhcurveto
          -42 -32 -1 -30 hhcurveto
          -61 -54 4 26 -117 hvcurveto
          246 1021 rmoveto
          -183 -124 -104 -195 -178 125 -87 174 177 120 69 201 188 -100 106 -189 hvcurveto
          endchar
        </CharString>
        <CharString name="germandbls">
          395 1323 469 rmoveto
          350 -241 47 -268 -47 -24 33 32 32 23 32 48 148 170 88 207 210 -125 76 -148 -141 -151 -85 -446 vhcurveto
          -869 134 vlineto
          51 21 -42 -50 -44 -27 -40 -47 hvcurveto
          -556 hlineto
          -47 -27 40 44 50 21 42 51 hvcurveto
          192 812 hlineto
          590 269 161 250 250 235 -126 -323 -181 -110 -115 -128 -38 vhcurveto
          249 -31 209 -147 -310 vvcurveto
          -284 -268 -184 -248 -57 -32 47 45 43 28 41 61 148 134 107 186 vhcurveto
          endchar
        </CharString>
        <CharString name="grave">
          -680 601 1479 rmoveto
          -25 -23 -27 -26 -7 -6 3 4 -5 vhcurveto
          -162 93 -179 116 -157 98 rrcurveto
          -18 12 -9 15 18 vvcurveto
          41 42 43 42 16 14 -5 -10 11 vhcurveto
          136 -117 165 -129 150 -100 rrcurveto
          11 -7 5 -9 -14 vvcurveto
          endchar
        </CharString>
        <CharString name="greater">
          543 196 1430 rmoveto
          1449 -529 rlineto
          52 -23 30 -18 -53 vvcurveto
          -52 -34 -23 -48 -18 vhcurveto
          -1431 -531 rlineto
          -6 -19 -17 -4 -16 hhcurveto
          -69 -44 57 58 45 26 46 61 22 hvcurveto
          1206 434 -1206 412 rlineto
          -64 22 -26 41 40 vvcurveto
          47 38 43 60 16 17 -3 -7 19 vhcurveto
          endchar
        </CharString>
        <CharString name="guillemotleft">
          260 706 273 rmoveto
          -563 403 rlineto
          -38 24 -28 23 32 vvcurveto
          33 27 24 39 25 vhcurveto
          550 403 rlineto
          13 27 25 6 21 hhcurveto
          55 33 -38 -46 -38 -23 -43 -51 -30 hvcurveto
          -409 -313 411 -311 rlineto
          56 -34 26 -45 -37 vvcurveto
          -39 -29 -31 -51 -22 -26 6 13 -30 vhcurveto
          630 hmoveto
          -563 403 rlineto
          -38 24 -28 23 32 vvcurveto
          33 27 24 39 25 vhcurveto
          550 403 rlineto
          13 27 25 6 21 hhcurveto
          55 33 -38 -46 -38 -23 -43 -51 -30 hvcurveto
          -409 -313 411 -311 rlineto
          56 -34 26 -45 -37 vvcurveto
          -39 -29 -31 -51 -22 -26 6 13 -30 vhcurveto
          endchar
        </CharString>
        <CharString name="guillemotright">
          259 868 273 rmoveto
          -13 -30 -26 -6 -22 hhcurveto
          -51 -28 31 39 37 25 45 56 34 hvcurveto
          412 311 -410 313 rlineto
          -51 30 -23 43 38 vvcurveto
          46 33 38 55 22 24 -6 -13 28 vhcurveto
          550 -403 rlineto
          39 -25 27 -24 -33 vvcurveto
          -32 -28 -23 -38 -24 vhcurveto
          -1194 -403 rmoveto
          -13 -30 -26 -6 -22 hhcurveto
          -51 -28 31 39 37 25 45 56 34 hvcurveto
          412 311 -410 313 rlineto
          -51 30 -23 43 38 vvcurveto
          46 33 38 55 22 24 -6 -13 28 vhcurveto
          550 -403 rlineto
          39 -25 27 -24 -33 vvcurveto
          -32 -28 -23 -38 -24 vhcurveto
          endchar
        </CharString>
        <CharString name="guilsinglleft">
          -107 1006 293 rmoveto
          -873 403 rlineto
          -42 18 -24 29 32 vvcurveto
          33 24 29 42 20 vhcurveto
          860 403 rlineto
          7 15 16 1 12 hhcurveto
          59 38 -48 -49 -39 -25 -35 -48 -21 hvcurveto
          -667 -306 667 -306 rlineto
          48 -23 27 -29 -36 vvcurveto
          -47 -33 -44 -52 -13 -15 1 7 -16 vhcurveto
          endchar
        </CharString>
        <CharString name="guilsinglright">
          -106 201 293 rmoveto
          -7 -15 -16 -1 -13 hhcurveto
          -52 -33 44 47 36 27 29 48 23 hvcurveto
          668 306 -668 306 rlineto
          -47 21 -25 35 39 vvcurveto
          49 37 48 59 13 15 -1 -7 16 vhcurveto
          860 -403 rlineto
          42 -20 23 -29 -33 vvcurveto
          -32 -24 -29 -41 -18 vhcurveto
          endchar
        </CharString>
        <CharString name="h">
          231 841 1018 rmoveto
          -153 -121 -109 -110 -68 hvcurveto
          -623 164 vlineto
          52 9 -40 -50 -40 -21 -46 -42 hvcurveto
          -489 hlineto
          -57 -19 32 52 50 17 42 52 hvcurveto
          129 1348 hlineto
          -235 -62 rlineto
          -6 2 -2 -6 hhcurveto
          -42 -38 45 41 57 34 10 44 13 hvcurveto
          385 111 rlineto
          1 3 4 1 7 hhcurveto
          28 25 -19 -30 hvcurveto
          -686 vlineto
          93 78 136 91 165 hhcurveto
          250 158 -156 -252 hvcurveto
          -604 163 vlineto
          52 10 -40 -50 -40 -22 -46 -42 hvcurveto
          -489 hlineto
          -57 -19 32 52 50 18 42 52 hvcurveto
          131 586 hlineto
          160 -80 96 -162 vhcurveto
          endchar
        </CharString>
        <CharString name="hbar">
          254 506 1438 rmoveto
          317 hlineto
          48 24 -38 -38 -39 -25 -40 -49 hvcurveto
          -315 -279 hlineto
          93 78 137 91 165 hhcurveto
          250 158 -156 -252 hvcurveto
          -604 163 vlineto
          52 10 -40 -50 -40 -22 -46 -42 hvcurveto
          -489 hlineto
          -57 -19 32 52 50 18 42 52 hvcurveto
          131 586 hlineto
          160 -80 96 -162 -153 -121 -109 -110 -68 vhcurveto
          -623 164 vlineto
          52 9 -40 -50 -40 -21 -46 -42 hvcurveto
          -489 hlineto
          -57 -19 32 52 50 17 42 52 hvcurveto
          129 1107 -115 hlineto
          -56 -27 40 39 38 26 38 51 hvcurveto
          121 121 -115 hlineto
          -56 -27 40 39 38 26 38 51 hvcurveto
          254 hlineto
          48 24 -38 -38 hvcurveto
          -4 -1 -3 -4 vvcurveto
          endchar
        </CharString>
        <CharString name="hungarumlaut">
          -451 517 1870 rmoveto
          42 42 -43 -41 -18 -8 -15 -18 -12 hvcurveto
          -158 -99 -177 -115 -163 -93 rrcurveto
          -4 -7 -7 -3 -5 hhcurveto
          -26 -23 27 25 14 6 9 11 7 hvcurveto
          150 100 164 129 136 117 rrcurveto
          10 11 14 5 16 hhcurveto
          375 hmoveto
          42 42 -43 -41 -18 -9 -15 -18 -12 hvcurveto
          -158 -99 -176 -115 -163 -93 rrcurveto
          -4 -7 -7 -3 -5 hhcurveto
          -26 -23 27 25 14 6 9 11 7 hvcurveto
          150 100 164 129 136 117 rrcurveto
          10 11 14 5 16 hhcurveto
          endchar
        </CharString>
        <CharString name="hyphen">
          20 194 715 rmoveto
          55 46 47 56 vhcurveto
          742 hlineto
          56 46 -47 -55 -57 -45 -46 -57 hvcurveto
          -742 hlineto
          -57 -45 46 57 hvcurveto
          endchar
        </CharString>
        <CharString name="i">
          -525 410 1427 rmoveto
          -84 -68 68 84 84 68 68 84 84 67 -68 -84 -84 -67 -68 -84 hvcurveto
          -308 -1344 rmoveto
          49 24 41 52 vhcurveto
          137 810 hlineto
          -143 -39 rlineto
          -1 -3 -4 -1 -7 hhcurveto
          -40 -42 39 41 43 19 31 38 10 hvcurveto
          320 80 rlineto
          1 4 5 1 7 hhcurveto
          30 21 -17 -30 hvcurveto
          -968 154 vlineto
          51 21 -42 -50 -44 -27 -37 -47 hvcurveto
          -488 hlineto
          -56 -26 32 51 hvcurveto
          endchar
        </CharString>
        <CharString name="iacute">
          -581 587 1733 rmoveto
          42 42 -43 -41 -18 -8 -15 -18 -12 hvcurveto
          -158 -99 -177 -115 -163 -93 rrcurveto
          -4 -7 -7 -3 -5 hhcurveto
          -26 -23 27 25 14 6 9 11 7 hvcurveto
          150 100 164 129 136 117 rrcurveto
          10 11 14 5 16 hhcurveto
          -527 -1647 rmoveto
          49 24 41 52 vhcurveto
          137 752 hlineto
          -144 -39 rlineto
          -1 -3 -4 -1 -7 hhcurveto
          -40 -42 39 41 43 20 31 38 10 hvcurveto
          319 79 rlineto
          1 4 5 2 7 hhcurveto
          30 22 -18 -30 hvcurveto
          -909 153 vlineto
          51 21 -42 -50 -44 -27 -40 -47 hvcurveto
          -487 hlineto
          -56 -26 35 51 hvcurveto
          endchar
        </CharString>
        <CharString name="ibreve">
          -581 167 1633 rmoveto
          -120 46 81 -60 81 hhcurveto
          81 81 60 120 46 hvcurveto
          16 6 14 5 13 hhcurveto
          26 29 -25 -22 -211 -148 -106 -148 -148 -148 106 211 22 29 25 26 13 14 -5 -16 6 hvcurveto
          -107 -1547 rmoveto
          49 24 41 52 vhcurveto
          137 752 hlineto
          -144 -39 rlineto
          -1 -3 -4 -1 -7 hhcurveto
          -40 -42 39 41 43 20 31 38 10 hvcurveto
          319 79 rlineto
          1 4 5 2 7 hhcurveto
          30 22 -18 -30 hvcurveto
          -909 153 vlineto
          51 21 -42 -50 -44 -27 -40 -47 hvcurveto
          -487 hlineto
          -56 -26 35 51 hvcurveto
          endchar
        </CharString>
        <CharString name="icircumflex">
          -581 375 1789 rmoveto
          19 19 -6 -11 8 hvcurveto
          270 -414 rlineto
          7 -8 3 -9 -8 vvcurveto
          -24 -27 -19 -27 -12 -14 2 11 -8 vhcurveto
          -238 306 -238 -306 rlineto
          -11 -8 -14 -2 -12 hhcurveto
          -27 -27 19 24 8 3 9 7 8 hvcurveto
          270 414 rlineto
          11 8 19 6 19 hhcurveto
          -315 -1703 rmoveto
          49 24 41 52 vhcurveto
          137 752 hlineto
          -144 -39 rlineto
          -1 -3 -4 -1 -7 hhcurveto
          -40 -42 39 41 43 20 31 38 10 hvcurveto
          319 79 rlineto
          1 4 5 2 7 hhcurveto
          30 22 -18 -30 hvcurveto
          -909 153 vlineto
          51 21 -42 -50 -44 -27 -40 -47 hvcurveto
          -487 hlineto
          -56 -26 35 51 hvcurveto
          endchar
        </CharString>
        <CharString name="idieresis">
          -581 130 1290 rmoveto
          -73 -61 60 73 73 61 60 73 73 60 -60 -73 -73 -60 -60 -73 hvcurveto
          491 hmoveto
          -73 -60 60 73 73 60 60 73 73 60 -60 -73 -73 -60 -60 -73 hvcurveto
          -561 -1204 rmoveto
          49 24 41 52 vhcurveto
          137 752 hlineto
          -144 -39 rlineto
          -1 -3 -4 -1 -7 hhcurveto
          -40 -42 39 41 43 20 31 38 10 hvcurveto
          319 79 rlineto
          1 4 5 2 7 hhcurveto
          30 22 -18 -30 hvcurveto
          -909 153 vlineto
          51 21 -42 -50 -44 -27 -40 -47 hvcurveto
          -487 hlineto
          -56 -26 35 51 hvcurveto
          endchar
        </CharString>
        <CharString name="igrave">
          -581 60 86 rmoveto
          49 24 41 52 vhcurveto
          137 752 hlineto
          -144 -39 rlineto
          -1 -3 -4 -1 -7 hhcurveto
          -40 -42 39 41 43 20 31 38 10 hvcurveto
          319 79 rlineto
          1 4 5 2 7 hhcurveto
          30 22 -18 -30 hvcurveto
          -909 153 vlineto
          51 21 -42 -50 -44 -27 -40 -47 hvcurveto
          -487 hlineto
          -56 -26 35 51 hvcurveto
          502 1256 rmoveto
          -25 -23 -27 -26 -7 -6 3 4 -5 vhcurveto
          -162 93 -179 116 -157 98 rrcurveto
          -18 12 -9 15 18 vvcurveto
          41 42 43 42 16 14 -5 -10 11 vhcurveto
          136 -117 165 -129 150 -100 rrcurveto
          11 -7 5 -9 -14 vvcurveto
          endchar
        </CharString>
        <CharString name="ij">
          156 1037 1579 rmoveto
          76 51 80 76 87 73 -55 -87 -86 -58 -57 -85 -76 -68 53 76 vhcurveto
          -143 -2075 rmoveto
          -185 -91 44 189 hvcurveto
          9 vlineto
          85 16 48 80 56 34 -41 -69 vhcurveto
          -82 53 vlineto
          271 8 170 258 hvcurveto
          852 -613 -794 154 vlineto
          51 21 -42 -50 -44 -27 -37 -47 hvcurveto
          -488 hlineto
          -56 -26 32 51 49 24 41 52 hvcurveto
          137 797 -153 hlineto
          -1 hlineto
          -42 -43 25 52 43 27 41 60 hvcurveto
          1107 hlineto
          39 29 -6 -39 hvcurveto
          -971 vlineto
          -306 -88 -305 -359 vhcurveto
          -481 1923 rmoveto
          -84 -68 68 84 84 68 68 84 84 67 -68 -84 -84 -67 -68 -84 hvcurveto
          endchar
        </CharString>
        <CharString name="imacron">
          -581 60 86 rmoveto
          49 24 41 52 vhcurveto
          137 752 hlineto
          -144 -39 rlineto
          -1 -3 -4 -1 -7 hhcurveto
          -40 -42 39 41 43 20 31 38 10 hvcurveto
          319 79 rlineto
          1 4 5 2 7 hhcurveto
          30 22 -18 -30 hvcurveto
          -909 153 vlineto
          51 21 -42 -50 -44 -27 -40 -47 hvcurveto
          -487 hlineto
          -56 -26 35 51 hvcurveto
          584 1204 rmoveto
          -530 hlineto
          -55 -27 40 39 39 26 38 50 hvcurveto
          538 hlineto
          48 24 -38 -39 -39 -25 -40 -49 hvcurveto
          endchar
        </CharString>
        <CharString name="iogonek">
          -525 410 1427 rmoveto
          -84 -68 68 84 84 68 68 84 84 67 -68 -84 -84 -67 -68 -84 hvcurveto
          -308 -1344 rmoveto
          49 24 41 52 vhcurveto
          137 810 hlineto
          -143 -39 rlineto
          -1 -3 -4 -1 -7 hhcurveto
          -40 -42 39 41 43 19 31 38 10 hvcurveto
          320 80 rlineto
          1 4 5 1 7 hhcurveto
          30 21 -17 -30 hvcurveto
          -968 154 vlineto
          51 21 -42 -50 -44 -27 -37 -47 hvcurveto
          -488 hlineto
          -56 -26 32 51 hvcurveto
          213 -611 rmoveto
          -92 -70 43 115 72 66 175 170 141 hvcurveto
          79 hlineto
          9 -120 -192 -95 hvcurveto
          -111 137 25 -60 vvcurveto
          -51 -85 -62 -94 vhcurveto
          endchar
        </CharString>
        <CharString name="itilde">
          -581 60 86 rmoveto
          49 24 41 52 vhcurveto
          137 752 hlineto
          -144 -39 rlineto
          -1 -3 -4 -1 -7 hhcurveto
          -40 -42 39 41 43 20 31 38 10 hvcurveto
          319 79 rlineto
          1 4 5 2 7 hhcurveto
          30 22 -18 -30 hvcurveto
          -909 153 vlineto
          51 21 -42 -50 -44 -27 -40 -47 hvcurveto
          -487 hlineto
          -56 -26 35 51 hvcurveto
          -51 1257 rmoveto
          155 84 110 106 vhcurveto
          155 116 -142 56 89 3 142 49 hhcurveto
          39 34 -18 -36 -155 -100 -109 -126 hvcurveto
          -116 -113 141 -77 -85 0 -141 -41 hhcurveto
          -39 -34 17 36 hvcurveto
          endchar
        </CharString>
        <CharString name="j">
          -504 214 -323 rmoveto
          183 48 197 241 hvcurveto
          868 vlineto
          -144 -39 rlineto
          -1 -3 -4 -1 -7 hhcurveto
          -40 -42 39 41 43 19 31 38 10 hvcurveto
          320 80 rlineto
          1 4 5 1 7 hhcurveto
          30 22 -14 -31 hvcurveto
          -1028 vlineto
          -306 -88 -305 -359 -155 -123 60 193 79 18 44 80 56 34 -37 -63 vhcurveto
          -63 18 -42 -40 125 hhcurveto
          132 1902 rmoveto
          76 51 80 76 87 73 -55 -87 -86 -58 -57 -85 -76 -68 53 76 vhcurveto
          endchar
        </CharString>
        <CharString name="jcircumflex">
          -336 707 1789 rmoveto
          19 19 -6 -11 8 hvcurveto
          270 -414 rlineto
          7 -8 3 -9 -8 vvcurveto
          -24 -27 -19 -27 -12 -14 2 11 -8 vhcurveto
          -238 306 -238 -306 rlineto
          -11 -8 -14 -2 -12 hhcurveto
          -27 -27 19 24 8 3 9 7 8 hvcurveto
          270 414 rlineto
          11 8 19 6 19 hhcurveto
          -305 -2285 rmoveto
          -185 -89 44 189 hvcurveto
          23 -4 19 18 vvcurveto
          79 18 44 80 56 34 -37 -63 vhcurveto
          -133 53 vlineto
          271 8 170 258 hvcurveto
          868 vlineto
          -144 -39 rlineto
          -1 -3 -4 -1 -7 hhcurveto
          -40 -42 39 41 43 19 31 38 10 hvcurveto
          320 80 rlineto
          1 4 5 1 7 hhcurveto
          30 22 -14 -31 hvcurveto
          -1028 vlineto
          -306 -88 -305 -359 vhcurveto
          endchar
        </CharString>
        <CharString name="k">
          179 446 1739 rmoveto
          28 25 -19 -30 hvcurveto
          -1070 vlineto
          155 105 177 122 151 99 rrcurveto
          3 -87 0 -22 hhcurveto
          -52 -24 40 50 51 26 35 56 hvcurveto
          463 hlineto
          47 27 -10 -44 -50 -21 -72 -51 hvcurveto
          -111 hlineto
          -53 -37 -37 -26 -35 hvcurveto
          -290 -219 290 -373 rlineto
          -100 72 52 -3 128 hhcurveto
          15 hlineto
          89 27 -15 -77 -79 -49 -17 -90 hvcurveto
          -436 hlineto
          -51 -25 40 50 51 25 35 57 hvcurveto
          59 hlineto
          -301 403 -184 -112 rlineto
          -291 152 vlineto
          51 20 -42 -50 -44 -26 -40 -47 hvcurveto
          -504 hlineto
          -56 -26 35 51 49 24 41 52 hvcurveto
          155 1348 hlineto
          -235 -62 rlineto
          -6 1 -2 -6 hhcurveto
          -42 -37 45 41 57 33 10 44 13 hvcurveto
          385 111 rlineto
          1 3 5 1 7 hhcurveto
          endchar
        </CharString>
        <CharString name="kcommaaccent">
          179 743 -102 rmoveto
          110 95 -74 -148 -211 -123 -134 -151 -76 hvcurveto
          -9 -16 -17 -4 -14 hhcurveto
          -43 -32 33 35 18 9 19 22 15 hvcurveto
          77 51 101 66 114 vvcurveto
          -108 -80 48 102 103 82 52 88 hvcurveto
          -297 1841 rmoveto
          28 25 -19 -30 hvcurveto
          -1070 vlineto
          155 105 177 122 151 99 rrcurveto
          3 -87 0 -22 hhcurveto
          -52 -24 40 50 51 26 35 56 hvcurveto
          463 hlineto
          47 27 -10 -44 -50 -21 -72 -51 hvcurveto
          -111 hlineto
          -53 -37 -37 -26 -35 hvcurveto
          -290 -219 290 -373 rlineto
          -100 72 52 -3 128 hhcurveto
          15 hlineto
          89 27 -15 -77 -79 -49 -17 -90 hvcurveto
          -436 hlineto
          -51 -25 40 50 51 25 35 57 hvcurveto
          59 hlineto
          -301 403 -184 -112 rlineto
          -291 152 vlineto
          51 20 -42 -50 -44 -26 -40 -47 hvcurveto
          -504 hlineto
          -56 -26 35 51 49 24 41 52 hvcurveto
          155 1348 hlineto
          -235 -62 rlineto
          -6 1 -2 -6 hhcurveto
          -42 -37 45 41 57 33 10 44 13 hvcurveto
          385 111 rlineto
          1 3 5 1 7 hhcurveto
          endchar
        </CharString>
        <CharString name="kgreenlandic">
          237 520 1082 rmoveto
          -463 vlineto
          463 338 rlineto
          -98 hlineto
          -52 -24 40 50 51 26 35 56 hvcurveto
          475 hlineto
          47 27 -39 -44 -50 -21 -43 -51 hvcurveto
          -98 hlineto
          -53 -37 -37 -26 -35 hvcurveto
          -300 -217 287 -386 rlineto
          -99 74 50 -4 128 hhcurveto
          15 hlineto
          89 27 -15 -77 -79 -49 -17 -90 hvcurveto
          -436 hlineto
          -51 -25 40 50 51 25 35 57 hvcurveto
          59 hlineto
          -301 408 -184 -132 rlineto
          -276 152 vlineto
          51 20 -42 -50 -44 -26 -40 -47 hvcurveto
          -504 hlineto
          -56 -26 35 51 49 24 41 52 hvcurveto
          155 764 -235 hlineto
          -60 -27 45 47 49 30 50 54 hvcurveto
          375 hlineto
          37 31 -11 -38 hvcurveto
          endchar
        </CharString>
        <CharString name="l">
          -399 517 1735 rmoveto
          28 25 -19 -30 hvcurveto
          -1510 244 vlineto
          51 21 -42 -50 -44 -27 -40 -47 hvcurveto
          -668 hlineto
          -56 -26 35 51 49 24 41 52 hvcurveto
          227 1344 hlineto
          -235 -62 rlineto
          -6 2 -2 -6 hhcurveto
          -42 -38 45 41 57 34 10 44 13 hvcurveto
          385 111 rlineto
          1 3 4 1 7 hhcurveto
          endchar
        </CharString>
        <CharString name="lacute">
          -399 689 2280 rmoveto
          42 42 -43 -41 -18 -8 -15 -18 -12 hvcurveto
          -158 -99 -177 -115 -163 -93 rrcurveto
          -4 -7 -7 -3 -5 hhcurveto
          -26 -23 27 25 14 6 9 11 7 hvcurveto
          150 100 164 129 136 117 rrcurveto
          10 11 14 5 16 hhcurveto
          -172 -545 rmoveto
          28 25 -19 -30 hvcurveto
          -1510 244 vlineto
          51 21 -42 -50 -44 -27 -40 -47 hvcurveto
          -668 hlineto
          -56 -26 35 51 49 24 41 52 hvcurveto
          227 1344 hlineto
          -235 -62 rlineto
          -6 2 -2 -6 hhcurveto
          -42 -38 45 41 57 34 10 44 13 hvcurveto
          385 111 rlineto
          1 3 4 1 7 hhcurveto
          endchar
        </CharString>
        <CharString name="lcaron">
          -399 911 1735 rmoveto
          110 95 -74 -148 -211 -123 -134 -151 -76 hvcurveto
          -9 -16 -17 -4 -14 hhcurveto
          -43 -32 33 35 18 9 19 22 15 hvcurveto
          77 51 101 66 114 vvcurveto
          -108 -80 48 102 103 82 52 88 hvcurveto
          -394 hmoveto
          28 25 -19 -30 hvcurveto
          -1510 244 vlineto
          51 21 -42 -50 -44 -27 -40 -47 hvcurveto
          -668 hlineto
          -56 -26 35 51 49 24 41 52 hvcurveto
          227 1344 hlineto
          -235 -62 rlineto
          -6 2 -2 -6 hhcurveto
          -42 -38 45 41 57 34 10 44 13 hvcurveto
          385 111 rlineto
          1 3 4 1 7 hhcurveto
          endchar
        </CharString>
        <CharString name="lcommaaccent">
          -399 471 -102 rmoveto
          110 95 -74 -148 -211 -123 -134 -151 -76 hvcurveto
          -9 -16 -17 -4 -14 hhcurveto
          -43 -32 33 35 18 9 19 22 15 hvcurveto
          77 51 101 66 114 vvcurveto
          -108 -80 48 102 103 82 52 88 hvcurveto
          46 1837 rmoveto
          28 25 -19 -30 hvcurveto
          -1510 244 vlineto
          51 21 -42 -50 -44 -27 -40 -47 hvcurveto
          -668 hlineto
          -56 -26 35 51 49 24 41 52 hvcurveto
          227 1344 hlineto
          -235 -62 rlineto
          -6 2 -2 -6 hhcurveto
          -42 -38 45 41 57 34 10 44 13 hvcurveto
          385 111 rlineto
          1 3 4 1 7 hhcurveto
          endchar
        </CharString>
        <CharString name="ldot">
          78 517 1735 rmoveto
          28 25 -19 -30 hvcurveto
          -1510 244 vlineto
          51 21 -42 -50 -44 -27 -40 -47 hvcurveto
          -668 hlineto
          -56 -26 35 51 49 24 41 52 hvcurveto
          227 1344 hlineto
          -235 -62 rlineto
          -6 2 -2 -6 hhcurveto
          -42 -38 45 41 57 34 10 44 13 hvcurveto
          385 111 rlineto
          1 3 4 1 7 hhcurveto
          584 -1024 rmoveto
          -122 -89 90 121 122 90 89 121 122 89 -90 -121 -122 -90 -89 -121 hvcurveto
          endchar
        </CharString>
        <CharString name="less">
          543 1577 183 rmoveto
          -1449 530 rlineto
          -52 23 -30 18 53 vvcurveto
          52 34 23 48 18 vhcurveto
          1431 530 rlineto
          7 18 18 3 16 hhcurveto
          69 44 -57 -58 -45 -26 -45 -61 -22 hvcurveto
          -1206 -434 1206 -412 rlineto
          63 -22 27 -42 -39 vvcurveto
          -47 -38 -44 -60 -16 -17 3 7 -19 vhcurveto
          endchar
        </CharString>
        <CharString name="logicalnot">
          -22 171 715 rmoveto
          55 46 47 56 vhcurveto
          742 hlineto
          56 46 -47 -55 hvcurveto
          -4 vlineto
          -302 vlineto
          -56 -40 -27 -39 -39 -38 26 51 vhcurveto
          209 -688 vlineto
          -57 -45 46 57 hvcurveto
          endchar
        </CharString>
        <CharString name="lslash">
          -367 527 1735 rmoveto
          28 25 -19 -30 hvcurveto
          -511 vlineto
          177 75 rlineto
          6 21 18 3 16 hhcurveto
          50 18 -31 -33 -35 -20 -38 -24 -7 hvcurveto
          -256 -109 rlineto
          -830 244 vlineto
          51 21 -42 -50 -44 -27 -40 -47 hvcurveto
          -668 hlineto
          -56 -26 35 51 49 24 41 52 hvcurveto
          227 743 hlineto
          -155 -66 rlineto
          -7 -24 -20 -3 -17 hhcurveto
          -52 -19 31 33 34 19 36 26 8 hvcurveto
          242 103 rlineto
          432 vlineto
          -235 -62 rlineto
          -6 2 -2 -6 hhcurveto
          -42 -38 45 41 57 34 10 44 13 hvcurveto
          385 111 rlineto
          1 3 4 1 7 hhcurveto
          endchar
        </CharString>
        <CharString name="m">
          1219 1854 1188 rmoveto
          247 181 -159 -249 hvcurveto
          -604 146 vlineto
          51 20 -42 -50 -44 -26 -40 -47 hvcurveto
          -488 hlineto
          -56 -26 35 51 49 24 41 52 hvcurveto
          148 586 hlineto
          160 -80 96 -162 -216 -144 -133 -152 -82 vhcurveto
          -557 165 vlineto
          51 21 -42 -50 -44 -27 -40 -47 hvcurveto
          -528 hlineto
          -56 -26 35 51 49 24 41 52 hvcurveto
          168 586 hlineto
          160 -80 96 -162 -226 -154 -121 -154 -77 vhcurveto
          -567 185 vlineto
          51 20 -42 -50 -44 -26 -40 -47 hvcurveto
          -529 hlineto
          -56 -26 35 51 49 24 41 52 hvcurveto
          148 803 hlineto
          -144 -35 rlineto
          -1 -3 -4 -1 -7 hhcurveto
          -40 -42 39 41 45 19 27 38 12 hvcurveto
          279 80 rlineto
          6 -2 2 6 hhcurveto
          6 hlineto
          28 23 -18 -29 hvcurveto
          21 -189 rlineto
          136 81 197 100 216 hhcurveto
          202 143 -104 -150 56 hvcurveto
          134 93 167 120 225 hhcurveto
          endchar
        </CharString>
        <CharString name="macron">
          -355 782 966 rmoveto
          -530 hlineto
          -55 -27 40 39 39 26 38 50 hvcurveto
          538 hlineto
          48 24 -38 -39 -39 -25 -40 -49 hvcurveto
          endchar
        </CharString>
        <CharString name="minus">
          -20 174 715 rmoveto
          55 46 47 56 vhcurveto
          742 hlineto
          56 46 -47 -55 -57 -45 -46 -57 hvcurveto
          -742 hlineto
          -57 -45 46 57 hvcurveto
          endchar
        </CharString>
        <CharString name="mu">
          242 395 -502 rmoveto
          47 44 39 92 144 -23 183 -16 144 hvcurveto
          -75 47 90 -50 82 hhcurveto
          174 174 92 115 78 hvcurveto
          15 -98 rlineto
          -66 10 22 -22 39 hhcurveto
          273 29 rlineto
          38 10 19 31 43 vvcurveto
          45 -25 36 -45 vhcurveto
          -151 949 hlineto
          32 -20 17 -31 -7 -6 -1 -1 -4 vhcurveto
          -319 -80 rlineto
          -38 -10 -20 -31 -43 vvcurveto
          -41 42 -39 40 7 5 1 1 3 vhcurveto
          143 35 rlineto
          -625 vlineto
          -118 -56 -151 -91 -172 hhcurveto
          -142 -67 109 147 hvcurveto
          738 vlineto
          32 -20 17 -31 -7 -5 -1 -1 -4 vhcurveto
          -320 -80 rlineto
          -38 -10 -19 -31 -43 vvcurveto
          -41 42 -39 40 7 4 1 1 3 vhcurveto
          143 35 rlineto
          -1354 vlineto
          -79 54 -48 52 vhcurveto
          endchar
        </CharString>
        <CharString name="multiply">
          -185 885 1108 rmoveto
          39 35 -35 -38 -19 -8 -18 -14 -15 hvcurveto
          -270 -269 270 -270 rlineto
          14 -14 8 -19 -18 vvcurveto
          -39 -35 -35 -39 -19 -19 8 14 -14 vhcurveto
          -269 269 -269 -269 rlineto
          -14 -15 -18 -8 -19 hhcurveto
          -39 -35 35 39 18 7 19 15 14 hvcurveto
          269 270 -269 269 rlineto
          -15 15 -7 18 19 vvcurveto
          38 35 35 39 19 18 -7 -15 15 vhcurveto
          269 -269 269 269 rlineto
          15 14 19 7 19 hhcurveto
          endchar
        </CharString>
        <CharString name="n">
          230 869 1018 rmoveto
          -179 -196 -132 -179 hvcurveto
          -531 146 vlineto
          51 20 -42 -50 -44 -26 -40 -47 hvcurveto
          -467 hlineto
          -56 -26 35 51 49 24 41 52 hvcurveto
          124 803 hlineto
          -143 -35 rlineto
          -1 -3 -4 -1 -7 hhcurveto
          -40 -42 39 41 45 19 27 38 12 hvcurveto
          279 80 rlineto
          6 -2 2 6 hhcurveto
          6 hlineto
          28 23 -18 -29 hvcurveto
          21 -189 rlineto
          123 68 176 113 188 hhcurveto
          250 157 -156 -252 hvcurveto
          -604 125 vlineto
          51 21 -42 -50 -44 -27 -40 -47 hvcurveto
          -487 hlineto
          -56 -26 35 51 49 24 41 52 hvcurveto
          168 586 hlineto
          160 -80 96 -162 vhcurveto
          endchar
        </CharString>
        <CharString name="nacute">
          230 992 1733 rmoveto
          42 42 -43 -41 -18 -8 -15 -18 -12 hvcurveto
          -158 -99 -177 -115 -163 -93 rrcurveto
          -4 -7 -7 -3 -5 hhcurveto
          -26 -23 27 25 14 6 9 11 7 hvcurveto
          150 100 164 129 136 117 rrcurveto
          10 11 14 5 16 hhcurveto
          -123 -715 rmoveto
          -179 -196 -132 -179 hvcurveto
          -531 146 vlineto
          51 20 -42 -50 -44 -26 -40 -47 hvcurveto
          -467 hlineto
          -56 -26 35 51 49 24 41 52 hvcurveto
          124 803 hlineto
          -143 -35 rlineto
          -1 -3 -4 -1 -7 hhcurveto
          -40 -42 39 41 45 19 27 38 12 hvcurveto
          279 80 rlineto
          6 -2 2 6 hhcurveto
          6 hlineto
          28 23 -18 -29 hvcurveto
          21 -189 rlineto
          123 68 176 113 188 hhcurveto
          250 157 -156 -252 hvcurveto
          -604 125 vlineto
          51 21 -42 -50 -44 -27 -40 -47 hvcurveto
          -487 hlineto
          -56 -26 35 51 49 24 41 52 hvcurveto
          168 586 hlineto
          160 -80 96 -162 vhcurveto
          endchar
        </CharString>
        <CharString name="ncaron">
          230 780 1290 rmoveto
          -19 -19 6 11 -8 hvcurveto
          -270 414 rlineto
          -7 8 -3 9 8 vvcurveto
          24 27 19 27 12 14 -2 -11 8 vhcurveto
          238 -306 238 306 rlineto
          11 8 14 2 12 hhcurveto
          27 27 -19 -24 -8 -3 -9 -7 -8 hvcurveto
          -270 -414 rlineto
          -11 -8 -19 -6 -19 hhcurveto
          89 -272 rmoveto
          -179 -196 -132 -179 hvcurveto
          -531 146 vlineto
          51 20 -42 -50 -44 -26 -40 -47 hvcurveto
          -467 hlineto
          -56 -26 35 51 49 24 41 52 hvcurveto
          124 803 hlineto
          -143 -35 rlineto
          -1 -3 -4 -1 -7 hhcurveto
          -40 -42 39 41 45 19 27 38 12 hvcurveto
          279 80 rlineto
          6 -2 2 6 hhcurveto
          6 hlineto
          28 23 -18 -29 hvcurveto
          21 -189 rlineto
          123 68 176 113 188 hhcurveto
          250 157 -156 -252 hvcurveto
          -604 125 vlineto
          51 21 -42 -50 -44 -27 -40 -47 hvcurveto
          -487 hlineto
          -56 -26 35 51 49 24 41 52 hvcurveto
          168 586 hlineto
          160 -80 96 -162 vhcurveto
          endchar
        </CharString>
        <CharString name="ncommaaccent">
          230 797 -102 rmoveto
          110 95 -74 -148 -211 -123 -134 -151 -76 hvcurveto
          -9 -16 -17 -4 -14 hhcurveto
          -43 -32 33 35 18 9 19 22 15 hvcurveto
          77 51 101 66 114 vvcurveto
          -108 -80 48 102 103 82 52 88 hvcurveto
          73 1120 rmoveto
          -179 -196 -132 -179 hvcurveto
          -531 146 vlineto
          51 20 -42 -50 -44 -26 -40 -47 hvcurveto
          -467 hlineto
          -56 -26 35 51 49 24 41 52 hvcurveto
          124 803 hlineto
          -143 -35 rlineto
          -1 -3 -4 -1 -7 hhcurveto
          -40 -42 39 41 45 19 27 38 12 hvcurveto
          279 80 rlineto
          6 -2 2 6 hhcurveto
          6 hlineto
          28 23 -18 -29 hvcurveto
          21 -189 rlineto
          123 68 176 113 188 hhcurveto
          250 157 -156 -252 hvcurveto
          -604 125 vlineto
          51 21 -42 -50 -44 -27 -40 -47 hvcurveto
          -487 hlineto
          -56 -26 35 51 49 24 41 52 hvcurveto
          168 586 hlineto
          160 -80 96 -162 vhcurveto
          endchar
        </CharString>
        <CharString name="nine">
          54 124 1192 rmoveto
          333 216 214 331 391 180 -258 -389 -556 -292 -343 -295 -295 vhcurveto
          -20 -20 -33 -23 -40 hhcurveto
          -65 -39 37 65 100 127 75 61 63 hvcurveto
          142 148 159 181 41 246 rrcurveto
          -60 -86 -111 -51 -140 hhcurveto
          -318 -209 213 320 hvcurveto
          547 395 rmoveto
          -225 -125 -163 -228 -224 130 -147 220 220 130 149 222 229 -126 162 -224 hvcurveto
          endchar
        </CharString>
        <CharString name="nonmarkingreturn">
          -658 endchar
        </CharString>
        <CharString name="ntilde">
          230 869 1018 rmoveto
          -179 -196 -132 -179 hvcurveto
          -531 146 vlineto
          51 20 -42 -50 -44 -26 -40 -47 hvcurveto
          -467 hlineto
          -56 -26 35 51 49 24 41 52 hvcurveto
          124 803 hlineto
          -143 -35 rlineto
          -1 -3 -4 -1 -7 hhcurveto
          -40 -42 39 41 45 19 27 38 12 hvcurveto
          279 80 rlineto
          6 -2 2 6 hhcurveto
          6 hlineto
          28 23 -18 -29 hvcurveto
          21 -189 rlineto
          123 68 176 113 188 hhcurveto
          250 157 -156 -252 hvcurveto
          -604 125 vlineto
          51 21 -42 -50 -44 -27 -40 -47 hvcurveto
          -487 hlineto
          -56 -26 35 51 49 24 41 52 hvcurveto
          168 586 hlineto
          160 -80 96 -162 vhcurveto
          -455 325 rmoveto
          155 84 110 106 vhcurveto
          155 116 -142 56 89 3 142 49 hhcurveto
          39 34 -18 -36 -155 -100 -109 -126 hvcurveto
          -116 -113 141 -77 -85 0 -141 -41 hhcurveto
          -39 -34 17 36 hvcurveto
          endchar
        </CharString>
        <CharString name="numbersign">
          414 1561 1133 rmoveto
          46 38 -38 -46 -47 -37 -37 -46 hvcurveto
          -1332 hlineto
          -46 -38 37 47 46 38 38 46 hvcurveto
          1269 -401 rmoveto
          46 38 -38 -46 -47 -37 -37 -46 hvcurveto
          -1332 hlineto
          -46 -38 37 47 46 38 38 46 hvcurveto
          1232 1256 rmoveto
          43 55 -27 -51 -5 0 -5 -2 -6 hvcurveto
          -560 -2221 rlineto
          -37 -10 -18 -26 -48 hhcurveto
          -45 -56 27 50 6 1 7 2 6 hvcurveto
          564 2229 rlineto
          33 7 25 20 42 hhcurveto
          -598 1 rmoveto
          45 54 -27 -52 -5 -1 -4 -1 -5 hvcurveto
          -555 -2216 rlineto
          -37 -10 -18 -26 -48 hhcurveto
          -45 -56 26 51 6 1 6 2 7 hvcurveto
          559 2223 rlineto
          33 6 26 20 41 hhcurveto
          endchar
        </CharString>
        <CharString name="o">
          56 691 1018 rmoveto
          -254 -145 -182 -254 -256 145 -181 254 248 139 187 250 251 -139 185 -248 hvcurveto
          -1043 vmoveto
          -371 -250 236 371 373 251 233 370 365 243 -240 -366 -366 -244 -241 -364 hvcurveto
          endchar
        </CharString>
        <CharString name="oacute">
          56 903 1733 rmoveto
          42 42 -43 -41 -18 -8 -15 -18 -12 hvcurveto
          -158 -99 -177 -115 -163 -93 rrcurveto
          -4 -7 -7 -3 -5 hhcurveto
          -26 -23 27 25 14 6 9 11 7 hvcurveto
          150 100 164 129 136 117 rrcurveto
          10 11 14 5 16 hhcurveto
          -212 -715 rmoveto
          -254 -145 -182 -254 -256 145 -181 254 248 139 187 250 251 -139 185 -248 hvcurveto
          -1043 vmoveto
          -371 -250 236 371 373 251 233 370 365 243 -240 -366 -366 -244 -241 -364 hvcurveto
          endchar
        </CharString>
        <CharString name="obreve">
          56 483 1633 rmoveto
          -120 46 81 -60 81 hhcurveto
          81 81 60 120 46 hvcurveto
          16 6 14 5 13 hhcurveto
          26 29 -25 -22 -211 -148 -106 -148 -148 -148 106 211 22 29 25 26 13 14 -5 -16 6 hvcurveto
          208 -615 rmoveto
          -254 -145 -182 -254 -256 145 -181 254 248 139 187 250 251 -139 185 -248 hvcurveto
          -1043 vmoveto
          -371 -250 236 371 373 251 233 370 365 243 -240 -366 -366 -244 -241 -364 hvcurveto
          endchar
        </CharString>
        <CharString name="ocircumflex">
          56 691 1789 rmoveto
          19 19 -6 -11 8 hvcurveto
          270 -414 rlineto
          7 -8 3 -9 -8 vvcurveto
          -24 -27 -19 -27 -12 -14 2 11 -8 vhcurveto
          -238 306 -238 -306 rlineto
          -11 -8 -14 -2 -12 hhcurveto
          -27 -27 19 24 8 3 9 7 8 hvcurveto
          270 414 rlineto
          11 8 19 6 19 hhcurveto
          -771 vmoveto
          -254 -145 -182 -254 -256 145 -181 254 248 139 187 250 251 -139 185 -248 hvcurveto
          -1043 vmoveto
          -371 -250 236 371 373 251 233 370 365 243 -240 -366 -366 -244 -241 -364 hvcurveto
          endchar
        </CharString>
        <CharString name="odieresis">
          56 446 1290 rmoveto
          -73 -61 60 73 73 61 60 73 73 60 -60 -73 -73 -60 -60 -73 hvcurveto
          491 hmoveto
          -73 -60 60 73 73 60 60 73 73 60 -60 -73 -73 -60 -60 -73 hvcurveto
          -246 -272 rmoveto
          -254 -145 -182 -254 -256 145 -181 254 248 139 187 250 251 -139 185 -248 hvcurveto
          -1043 vmoveto
          -371 -250 236 371 373 251 233 370 365 243 -240 -366 -366 -244 -241 -364 hvcurveto
          endchar
        </CharString>
        <CharString name="oe">
          951 1939 756 rmoveto
          191 -139 71 -140 -224 -136 -125 -193 -16 vhcurveto
          581 13 rlineto
          37 2 37 10 31 vvcurveto
          -651 -197 rmoveto
          -262 175 -139 229 170 80 74 82 88 vhcurveto
          17 20 23 9 23 hhcurveto
          54 42 -35 -55 -171 -324 -104 -184 -224 -183 93 162 -104 hvcurveto
          -160 -98 -171 -95 -216 hhcurveto
          -371 -250 236 371 373 251 233 370 215 171 -94 -159 98 hvcurveto
          158 97 169 95 222 hhcurveto
          268 262 -203 -293 -100 -69 -2 -95 -10 hvcurveto
          -1338 438 rmoveto
          -254 -145 -182 -254 -256 145 -181 254 248 139 187 250 251 -139 185 -248 hvcurveto
          endchar
        </CharString>
        <CharString name="ogonek">
          -959 111 -516 rmoveto
          -92 -70 43 115 72 66 175 170 141 hvcurveto
          79 hlineto
          9 -120 -192 -95 hvcurveto
          -111 137 25 -60 vvcurveto
          -51 -85 -62 -94 vhcurveto
          endchar
        </CharString>
        <CharString name="ograve">
          56 987 1342 rmoveto
          -25 -23 -27 -26 -7 -6 3 4 -5 vhcurveto
          -162 93 -179 116 -157 98 rrcurveto
          -18 12 -9 15 18 vvcurveto
          41 42 43 42 16 14 -5 -10 11 vhcurveto
          136 -117 165 -129 150 -100 rrcurveto
          11 -7 5 -9 -14 vvcurveto
          -296 -324 rmoveto
          -254 -145 -182 -254 -256 145 -181 254 248 139 187 250 251 -139 185 -248 hvcurveto
          -1043 vmoveto
          -371 -250 236 371 373 251 233 370 365 243 -240 -366 -366 -244 -241 -364 hvcurveto
          endchar
        </CharString>
        <CharString name="ohungarumlaut">
          56 716 1733 rmoveto
          42 42 -43 -41 -18 -8 -15 -18 -12 hvcurveto
          -158 -99 -177 -115 -163 -93 rrcurveto
          -4 -7 -7 -3 -5 hhcurveto
          -26 -23 27 25 14 6 9 11 7 hvcurveto
          150 100 164 129 136 117 rrcurveto
          10 11 14 5 16 hhcurveto
          375 hmoveto
          42 42 -43 -41 -18 -9 -15 -18 -12 hvcurveto
          -158 -99 -176 -115 -163 -93 rrcurveto
          -4 -7 -7 -3 -5 hhcurveto
          -26 -23 27 25 14 6 9 11 7 hvcurveto
          150 100 164 129 136 117 rrcurveto
          10 11 14 5 16 hhcurveto
          -400 -715 rmoveto
          -254 -145 -182 -254 -256 145 -181 254 248 139 187 250 251 -139 185 -248 hvcurveto
          -1043 vmoveto
          -371 -250 236 371 373 251 233 370 365 243 -240 -366 -366 -244 -241 -364 hvcurveto
          endchar
        </CharString>
        <CharString name="omacron">
          56 960 1290 rmoveto
          -530 hlineto
          -55 -27 40 39 39 26 38 50 hvcurveto
          538 hlineto
          48 24 -38 -39 -39 -25 -40 -49 hvcurveto
          -269 -272 rmoveto
          -254 -145 -182 -254 -256 145 -181 254 248 139 187 250 251 -139 185 -248 hvcurveto
          -1043 vmoveto
          -371 -250 236 371 373 251 233 370 365 243 -240 -366 -366 -244 -241 -364 hvcurveto
          endchar
        </CharString>
        <CharString name="one">
          -224 159 84 rmoveto
          47 23 39 50 vhcurveto
          239 1357 hlineto
          -164 -13 rlineto
          -53 -29 37 51 45 24 37 41 3 hvcurveto
          330 29 rlineto
          46 20 -10 -55 hvcurveto
          -1481 174 vlineto
          49 22 -40 -49 -41 -28 -40 -45 hvcurveto
          -621 hlineto
          -55 -23 35 49 hvcurveto
          endchar
        </CharString>
        <CharString name="onehalf">
          1029 74 541 rmoveto
          34 17 28 36 vhcurveto
          172 977 hlineto
          -118 -10 rlineto
          -38 -21 27 37 32 17 27 30 2 hvcurveto
          237 21 rlineto
          33 15 -7 -40 hvcurveto
          -1066 125 vlineto
          35 16 -29 -35 -30 -20 -29 -32 hvcurveto
          -447 hlineto
          -40 -17 26 35 hvcurveto
          492 -634 rmoveto
          -35 -41 35 43 9 2 7 6 8 hvcurveto
          1076 1748 rlineto
          17 10 17 9 25 hhcurveto
          34 40 -33 -45 -8 -3 -5 -4 -8 hvcurveto
          -1069 -1745 rlineto
          -19 -13 -15 -13 -30 hhcurveto
          1609 1041 rmoveto
          -387 -496 -151 -46 -271 vhcurveto
          449 hlineto
          62 142 rlineto
          30 11 24 23 35 hhcurveto
          30 22 -20 -32 -9 -3 -8 -1 -9 hvcurveto
          -45 -200 rlineto
          -33 -9 -15 -21 -33 hhcurveto
          -673 hlineto
          -6 100 rlineto
          52 12 53 26 53 vhcurveto
          98 204 392 285 192 vvcurveto
          94 -107 32 -95 -101 -53 -33 -40 -54 vhcurveto
          -9 -12 -14 -5 -15 hhcurveto
          -37 -30 24 38 15 9 18 19 19 hvcurveto
          63 62 115 47 127 hhcurveto
          181 171 -75 -181 hvcurveto
          endchar
        </CharString>
        <CharString name="onequarter">
          923 1784 987 rmoveto
          -406 -496 rlineto
          406 hlineto
          337 -429 rmoveto
          -30 -19 -30 -32 vhcurveto
          -482 hlineto
          -32 -19 30 30 35 15 27 35 hvcurveto
          197 258 -523 hlineto
          -29 -16 26 26 20 6 18 9 9 hvcurveto
          197 245 198 240 199 241 rrcurveto
          9 7 11 7 12 hhcurveto
          30 32 -30 -30 hvcurveto
          -672 201 vlineto
          32 12 -25 -32 -26 -17 -26 -29 hvcurveto
          -199 -258 155 hlineto
          35 14 -27 -35 hvcurveto
          -2046 479 rmoveto
          34 17 28 36 vhcurveto
          172 977 hlineto
          -118 -10 rlineto
          -38 -21 27 37 32 17 27 30 2 hvcurveto
          237 21 rlineto
          33 15 -7 -40 hvcurveto
          -1066 125 vlineto
          35 16 -29 -35 -30 -20 -29 -32 hvcurveto
          -447 hlineto
          -40 -17 26 35 hvcurveto
          492 -634 rmoveto
          -35 -41 35 43 9 2 7 6 8 hvcurveto
          1076 1748 rlineto
          17 10 17 9 25 hhcurveto
          34 40 -33 -45 -8 -3 -5 -4 -8 hvcurveto
          -1069 -1745 rlineto
          -19 -13 -15 -13 -30 hhcurveto
          endchar
        </CharString>
        <CharString name="onesuperior">
          -41 790 1485 rmoveto
          -406 -496 rlineto
          406 hlineto
          337 -429 rmoveto
          -30 -19 -30 -32 vhcurveto
          -482 hlineto
          -32 -19 30 30 35 15 27 35 hvcurveto
          197 258 -523 hlineto
          -29 -16 26 26 20 6 18 9 9 hvcurveto
          197 245 198 240 199 241 rrcurveto
          9 7 11 7 12 hhcurveto
          30 32 -30 -30 hvcurveto
          -672 201 vlineto
          32 12 -25 -32 -26 -17 -26 -29 hvcurveto
          -199 -258 155 hlineto
          35 14 -27 -35 hvcurveto
          endchar
        </CharString>
        <CharString name="ordfeminine">
          53 1122 558 rmoveto
          -66 -116 -53 -57 -67 -41 33 67 -15 vhcurveto
          -70 -60 -102 -32 -111 hhcurveto
          -126 -95 84 124 221 271 13 207 18 hvcurveto
          100 vlineto
          65 -67 21 -64 -115 -41 -24 -50 -78 vhcurveto
          -5 -8 -7 -3 -7 hhcurveto
          -28 -26 33 29 99 190 26 103 209 62 -80 -207 hvcurveto
          -311 vlineto
          -26 8 -18 19 vhcurveto
          36 53 66 30 hhcurveto
          18 25 -31 -23 hvcurveto
          -312 246 rmoveto
          -131 -13 -215 -5 -138 vvcurveto
          -70 61 -33 71 86 71 35 45 57 vhcurveto
          endchar
        </CharString>
        <CharString name="ordmasculine">
          50 755 1075 rmoveto
          -168 -96 -120 -168 -170 96 -120 168 165 92 124 166 166 -92 122 -165 hvcurveto
          -691 vmoveto
          -245 -166 157 246 247 166 154 245 242 161 -159 -242 -243 -161 -160 -242 hvcurveto
          endchar
        </CharString>
        <CharString name="oslash">
          50 691 1018 rmoveto
          49 44 -7 -13 40 hvcurveto
          -373 -780 rlineto
          -103 75 -56 130 159 vvcurveto
          254 145 182 254 vhcurveto
          -873 vmoveto
          -51 -46 7 14 -42 hvcurveto
          372 779 rlineto
          100 -76 54 -131 -156 vvcurveto
          -250 -139 -187 -248 vhcurveto
          -305 -326 rmoveto
          89 186 rlineto
          -20 66 72 -10 78 hhcurveto
          364 244 241 366 247 -110 189 -184 97 hvcurveto
          86 181 rlineto
          3 6 1 6 6 vvcurveto
          32 -35 23 -30 -19 -14 -8 -17 -7 vhcurveto
          -89 -186 rlineto
          20 -64 -70 10 -76 hhcurveto
          -370 -251 -233 -373 -249 113 -189 186 -96 hvcurveto
          -88 -185 rlineto
          -3 -6 -2 -6 -7 vvcurveto
          -31 37 -25 30 23 11 12 19 9 vhcurveto
          endchar
        </CharString>
        <CharString name="otilde">
          56 691 1018 rmoveto
          -254 -145 -182 -254 -256 145 -181 254 248 139 187 250 251 -139 185 -248 hvcurveto
          -1043 vmoveto
          -371 -250 236 371 373 251 233 370 365 243 -240 -366 -366 -244 -241 -364 hvcurveto
          -366 1368 rmoveto
          155 84 110 106 vhcurveto
          155 116 -142 56 89 3 142 49 hhcurveto
          39 34 -18 -36 -155 -100 -109 -126 hvcurveto
          -116 -113 141 -77 -85 0 -141 -41 hhcurveto
          -39 -34 17 36 hvcurveto
          endchar
        </CharString>
        <CharString name="p">
          164 1186 582 rmoveto
          237 -118 199 -232 -177 -126 -73 -105 -80 vhcurveto
          -557 vlineto
          -85 85 124 -53 168 hhcurveto
          234 122 201 236 hvcurveto
          221 hmoveto
          -357 -225 -250 -352 -165 -117 54 80 -95 vhcurveto
          -508 202 vlineto
          51 21 -43 -50 -44 -27 -39 -47 hvcurveto
          -524 hlineto
          -56 -26 35 51 49 24 41 52 hvcurveto
          125 1378 hlineto
          -143 -35 rlineto
          -1 -3 -5 -1 -7 hhcurveto
          -40 -42 39 41 45 20 27 38 12 hvcurveto
          278 80 rlineto
          6 -2 2 6 hhcurveto
          7 hlineto
          28 23 -18 -29 hvcurveto
          20 -189 rlineto
          137 64 158 99 196 hhcurveto
          351 206 -253 -353 hvcurveto
          endchar
        </CharString>
</ttFont>
